<?xml version="1.0" encoding="utf-8"?>
<!-- Generator: Adobe Illustrator 20.0.0, SVG Export Plug-In . SVG Version: 6.00 Build 0)  -->
<svg version="1.1" id="圖層_1" xmlns="http://www.w3.org/2000/svg" xmlns:xlink="http://www.w3.org/1999/xlink" x="0px" y="0px"
	 viewBox="0 0 165.2 199.8" style="enable-background:new 0 0 165.2 199.8;" xml:space="preserve">
<style type="text/css">
	.st0{display:none;}
	.st1{display:inline;fill:#FFFFFF;}
	.st2{fill:#74C5BE;}
	.st3{fill:#FFFFFF;}
	.st4{display:none;fill:#FFFFFF;}
</style>
<g class="st0">
	<path class="st1" d="M-208.1,166.5c-0.7,0.5-1.5,0.7-2.4,0.7c-1,0-2-0.4-2.8-1.1l-0.6,1h-0.5l-0.1-3.7h0.5c0.4,2.2,1.6,3.3,3.4,3.3
		c0.6,0,1.1-0.2,1.5-0.6c0.4-0.4,0.6-0.9,0.6-1.5c0-0.5-0.3-1-0.8-1.3c-0.2-0.1-0.8-0.3-1.5-0.5c-1.1-0.3-1.9-0.5-2.4-0.9
		c-0.8-0.5-1.2-1.2-1.2-2.1c0-0.8,0.3-1.5,1-2c0.6-0.5,1.3-0.7,2.1-0.7c1,0,1.9,0.3,2.7,0.9l0.4-0.8h0.5l0.2,3.4h-0.5
		c-0.5-2-1.6-3-3.1-3c-0.5,0-1,0.2-1.3,0.5c-0.3,0.4-0.5,0.8-0.5,1.4c0,0.5,0.3,0.9,0.9,1.2c0.1,0,0.6,0.2,1.5,0.4
		c1.3,0.3,2.1,0.6,2.4,0.9c0.7,0.5,1.1,1.2,1.1,2.3C-207,165.2-207.4,165.9-208.1,166.5z"/>
	<path class="st1" d="M-199.8,167v-0.6h0.7c0.4,0,0.6-0.2,0.6-0.7v-3.5h-4.5v3.5c0,0.4,0.2,0.7,0.6,0.7h0.7v0.5h-4.2v-0.5h0.7
		c0.4,0,0.6-0.2,0.6-0.7v-7.3c0-0.4-0.2-0.7-0.6-0.7h-0.7v-0.5h4.2v0.5h-0.7c-0.4,0-0.6,0.2-0.6,0.7v3.2h4.5v-3.2
		c0-0.4-0.2-0.7-0.6-0.7h-0.7v-0.5h4.2v0.5h-0.7c-0.4,0-0.6,0.2-0.6,0.7v7.3c0,0.4,0.2,0.7,0.6,0.7h0.7v0.5h-4.2V167z"/>
	<path class="st1" d="M-188.4,167v-0.6h0.7c0.3,0,0.5-0.1,0.5-0.3c0-0.1,0-0.2-0.1-0.3l-0.8-2h-3.6c-0.5,1.4-0.8,2.1-0.8,2.1
		c0,0.4,0.4,0.6,1.2,0.6h0.3v0.5h-3.5v-0.6c0.7,0,1.2-0.3,1.4-0.9l3.1-8.3h0.9l3.4,8.3c0.2,0.6,0.7,0.8,1.4,0.8v0.5h-4.1
		C-188.4,166.8-188.4,167-188.4,167z M-190,159.1l-1.5,4h3.1L-190,159.1z"/>
	<path class="st1" d="M-179.4,162.2h-0.9v3.7c0,0.3,0,0.4,0.1,0.5s0.3,0.1,0.5,0.1h0.7v0.5h-4.2v-0.5h0.7c0.2,0,0.4,0,0.5-0.1
		s0.1-0.2,0.1-0.5v-7.5c0-0.4-0.2-0.6-0.6-0.6h-0.8v-0.5h5.1c0.9,0,1.7,0.2,2.3,0.5c0.8,0.4,1.2,1.1,1.2,1.9c0,0.7-0.3,1.2-0.8,1.7
		c-0.5,0.4-1.3,0.7-2.2,0.8l1.8,3.4c0.3,0.6,0.8,0.9,1.5,0.9v0.6h-2.4L-179.4,162.2z M-179.8,157.8c-0.2,0-0.4,0-0.5,0.1
		s-0.1,0.2-0.1,0.5v3.2h1c0.9,0,1.6-0.1,2.1-0.3c0.6-0.3,1-0.8,1-1.6c0-0.6-0.2-1-0.5-1.4c-0.3-0.3-0.8-0.5-1.4-0.5H-179.8z"/>
	<path class="st1" d="M-167.5,167v-0.6h0.5c0.2,0,0.3-0.1,0.3-0.2c0-0.1,0-0.2-0.1-0.3l-2.3-3.8l-1.4,1.5v2.4c0,0.3,0.2,0.5,0.5,0.5
		h0.8v0.5h-4.1v-0.6h0.9c0.3,0,0.5-0.1,0.5-0.5v-7.7c0-0.3-0.2-0.5-0.5-0.5h-0.9v-0.5h4.1v0.5h-0.8c-0.3,0-0.5,0.2-0.5,0.5v4.4
		l3.8-4.1c0.2-0.2,0.3-0.3,0.3-0.5c0-0.1-0.1-0.2-0.3-0.2h-0.6v-0.5h3.5v0.5c-0.6,0-1.1,0.1-1.3,0.2c-0.3,0.1-0.6,0.4-1,0.9l-1.8,2
		l2.8,4.9c0.3,0.5,0.8,0.7,1.7,0.7v0.5L-167.5,167L-167.5,167z"/>
	<path class="st1" d="M-149.1,160.8c-0.2-1.1-0.5-1.8-1-2.3s-1.3-0.7-2.3-0.7h-1.1c-0.4,0-0.6,0.2-0.6,0.7v3.1h1
		c0.5,0,0.9-0.2,1.1-0.6c0.2-0.3,0.3-0.8,0.3-1.3h0.5v4.4h-0.5c0-0.5-0.1-1-0.3-1.3c-0.3-0.4-0.6-0.6-1.1-0.6h-1v3.4
		c0,0.4,0.2,0.6,0.5,0.7c0.2,0.1,0.5,0.1,0.9,0.1v0.5h-4.3v-0.5c0.4,0,0.7,0,0.9-0.1c0.3-0.1,0.5-0.4,0.5-0.7v-6.9
		c0-0.6-0.4-0.8-1.3-0.8v-0.5h8.2l0.2,3.5L-149.1,160.8C-149.1,160.9-149.1,160.8-149.1,160.8z"/>
	<path class="st1" d="M-147.2,167v-0.6h1c0.3,0,0.4-0.1,0.4-0.5v-7.7c0-0.3-0.1-0.5-0.4-0.5h-1v-0.5h4.4v0.5h-1
		c-0.3,0-0.5,0.2-0.5,0.4v7.7c0,0.3,0.1,0.4,0.5,0.4h1v0.5h-4.4V167z"/>
	<path class="st1" d="M-132.6,157.8c-0.3,0-0.5,0.2-0.5,0.5v8.8h-0.6l-5.8-7.7v6.5c0,0.4,0.2,0.5,0.5,0.5h1v0.5h-3.6v-0.5h1
		c0.3,0,0.5-0.2,0.5-0.5v-7.3c0-0.4-0.2-0.6-0.4-0.7c-0.2-0.1-0.5-0.1-1-0.1v-0.5h2.4l5.4,7.2v-6.1c0-0.3-0.2-0.5-0.5-0.5h-1v-0.5
		h3.6v0.5L-132.6,157.8L-132.6,157.8z"/>
	<path class="st1" d="M-117.4,160.8c-0.2-1.1-0.5-1.8-1-2.3s-1.3-0.7-2.3-0.7h-1.1c-0.4,0-0.6,0.2-0.6,0.7v3.1h1
		c0.5,0,0.9-0.2,1.1-0.6c0.2-0.3,0.3-0.8,0.3-1.3h0.5v4.4h-0.5c0-0.5-0.1-1-0.3-1.3c-0.3-0.4-0.6-0.6-1.1-0.6h-1v3.4
		c0,0.4,0.2,0.6,0.5,0.7c0.2,0.1,0.5,0.1,0.9,0.1v0.5h-4.3v-0.5c0.4,0,0.7,0,0.9-0.1c0.3-0.1,0.5-0.4,0.5-0.7v-6.9
		c0-0.6-0.4-0.8-1.3-0.8v-0.5h8.2l0.2,3.5L-117.4,160.8C-117.4,160.9-117.4,160.8-117.4,160.8z"/>
	<path class="st1" d="M-112,162.2h-0.9v3.7c0,0.3,0,0.4,0.1,0.5s0.3,0.1,0.5,0.1h0.7v0.5h-4.2v-0.5h0.7c0.2,0,0.4,0,0.5-0.1
		s0.1-0.2,0.1-0.5v-7.5c0-0.4-0.2-0.6-0.6-0.6h-0.8v-0.5h5.1c0.9,0,1.7,0.2,2.3,0.5c0.8,0.4,1.2,1.1,1.2,1.9c0,0.7-0.3,1.2-0.8,1.7
		c-0.5,0.4-1.3,0.7-2.2,0.8l1.8,3.4c0.3,0.6,0.8,0.9,1.5,0.9v0.6h-2.4L-112,162.2z M-112.3,157.8c-0.2,0-0.4,0-0.5,0.1
		s-0.1,0.2-0.1,0.5v3.2h1c0.9,0,1.6-0.1,2.1-0.3c0.6-0.3,1-0.8,1-1.6c0-0.6-0.2-1-0.5-1.4c-0.3-0.3-0.8-0.5-1.4-0.5H-112.3z"/>
	<path class="st1" d="M-97.3,167h-8.5v-0.6c0.4,0,0.8,0,0.9-0.1c0.3-0.1,0.4-0.3,0.4-0.7v-7.2c0-0.4-0.3-0.7-0.8-0.7
		c-0.1,0-0.2,0-0.3,0s-0.2,0-0.3,0v-0.5h8.4l0.2,3.5h-0.5c-0.2-1.1-0.5-1.8-1-2.3s-1.3-0.7-2.3-0.7h-1.2c-0.4,0-0.6,0.2-0.6,0.7v3.2
		h1.2c1,0,1.4-0.6,1.4-1.9h0.5v4.4h-0.5c0-1.3-0.5-1.9-1.4-1.9h-1.3v3.4c0,0.5,0.2,0.8,0.6,0.8h1.6c0.9,0,1.6-0.3,2.2-0.9
		c0.5-0.5,0.8-1.3,1-2.2h0.5L-97.3,167z"/>
	<path class="st1" d="M-87.4,167h-8.5v-0.6c0.4,0,0.8,0,0.9-0.1c0.3-0.1,0.4-0.3,0.4-0.7v-7.2c0-0.4-0.3-0.7-0.8-0.7
		c-0.1,0-0.2,0-0.3,0s-0.2,0-0.3,0v-0.5h8.4l0.2,3.5h-0.5c-0.2-1.1-0.5-1.8-1-2.3s-1.3-0.7-2.3-0.7h-1.2c-0.4,0-0.6,0.2-0.6,0.7v3.2
		h1.2c1,0,1.4-0.6,1.4-1.9h0.5v4.4h-0.5c0-1.3-0.5-1.9-1.4-1.9H-93v3.4c0,0.5,0.2,0.8,0.6,0.8h1.6c0.9,0,1.6-0.3,2.2-0.9
		c0.5-0.5,0.8-1.3,1-2.2h0.5L-87.4,167z"/>
</g>
<g class="st0">
	<path class="st1" d="M-202.7,156.2v4.5h2.1c0.5,0,0.8-0.1,1-0.3s0.4-0.6,0.4-1.3h0.3v3.9h-0.3c0-0.4-0.1-0.8-0.2-1
		c-0.1-0.2-0.3-0.4-0.5-0.5s-0.5-0.2-0.9-0.2h-2.1v3.6c0,0.6,0,1,0.1,1.1s0.2,0.3,0.4,0.4c0.2,0.1,0.5,0.2,0.8,0.2h0.4v0.3h-4.8
		v-0.3h0.4c0.5,0,0.8-0.1,1-0.4c0.1-0.2,0.2-0.6,0.2-1.3v-7.4c0-0.6,0-1-0.1-1.1s-0.2-0.3-0.3-0.4c-0.2-0.1-0.5-0.2-0.8-0.2h-0.4
		v-0.3h8.5l0.1,2.5h-0.3c-0.1-0.5-0.3-0.9-0.5-1.2s-0.4-0.4-0.7-0.5s-0.7-0.2-1.3-0.2L-202.7,156.2L-202.7,156.2z"/>
	<path class="st1" d="M-193.4,159.1v6.2c0,0.5,0,0.8,0.1,1s0.2,0.3,0.3,0.4c0.1,0.1,0.4,0.1,0.8,0.1v0.3h-3.8v-0.3
		c0.4,0,0.6,0,0.8-0.1c0.1-0.1,0.2-0.2,0.3-0.4s0.1-0.5,0.1-1v-3c0-0.8,0-1.4-0.1-1.6c0-0.2-0.1-0.3-0.2-0.4
		c-0.1-0.1-0.2-0.1-0.3-0.1c-0.2,0-0.3,0-0.6,0.1l-0.1-0.3l2.3-0.9H-193.4z M-194.1,155.1c0.2,0,0.4,0.1,0.6,0.2
		c0.2,0.2,0.2,0.4,0.2,0.6c0,0.2-0.1,0.4-0.2,0.6c-0.2,0.2-0.4,0.3-0.6,0.3c-0.2,0-0.4-0.1-0.6-0.3s-0.3-0.4-0.3-0.6
		c0-0.2,0.1-0.4,0.2-0.6C-194.6,155.1-194.4,155.1-194.1,155.1z"/>
	<path class="st1" d="M-189,160.7c0.9-1.1,1.8-1.6,2.6-1.6c0.4,0,0.8,0.1,1.1,0.3s0.5,0.6,0.7,1c0.1,0.3,0.2,0.9,0.2,1.6v3.3
		c0,0.5,0,0.8,0.1,1c0.1,0.1,0.2,0.3,0.3,0.3c0.1,0.1,0.4,0.1,0.8,0.1v0.3h-3.8v-0.3h0.2c0.4,0,0.6-0.1,0.8-0.2
		c0.1-0.1,0.2-0.3,0.3-0.5c0-0.1,0-0.3,0-0.8V162c0-0.7-0.1-1.2-0.3-1.5s-0.5-0.5-0.9-0.5c-0.7,0-1.3,0.4-2,1.1v4.1
		c0,0.5,0,0.8,0.1,1s0.2,0.3,0.3,0.4c0.1,0.1,0.4,0.1,0.8,0.1v0.3h-3.8v-0.3h0.2c0.4,0,0.7-0.1,0.8-0.3s0.2-0.6,0.2-1.1v-2.9
		c0-0.9,0-1.5-0.1-1.7c0-0.2-0.1-0.3-0.2-0.4c-0.1-0.1-0.2-0.1-0.3-0.1c-0.2,0-0.3,0-0.6,0.1l-0.1-0.3l2.3-0.9h0.3L-189,160.7
		L-189,160.7z"/>
	<path class="st1" d="M-175.4,156.2v4.5h2.1c0.5,0,0.8-0.1,1-0.3s0.4-0.6,0.4-1.3h0.3v3.9h-0.3c0-0.4-0.1-0.8-0.2-1
		c-0.1-0.2-0.3-0.4-0.5-0.5s-0.5-0.2-0.9-0.2h-2.1v3.6c0,0.6,0,1,0.1,1.1s0.2,0.3,0.4,0.4c0.2,0.1,0.5,0.2,0.8,0.2h0.4v0.3h-4.9
		v-0.3h0.4c0.5,0,0.8-0.1,1-0.4c0.1-0.2,0.2-0.6,0.2-1.3v-7.4c0-0.6,0-1-0.1-1.1s-0.2-0.3-0.3-0.4c-0.2-0.1-0.5-0.2-0.8-0.2h-0.4
		v-0.3h8.5l0.1,2.5h-0.3c-0.1-0.5-0.3-0.9-0.5-1.2s-0.4-0.4-0.7-0.5s-0.7-0.2-1.3-0.2L-175.4,156.2L-175.4,156.2z"/>
	<path class="st1" d="M-166.5,159.1v1.7c0.6-1.2,1.3-1.7,2-1.7c0.3,0,0.6,0.1,0.8,0.3s0.3,0.4,0.3,0.7c0,0.2-0.1,0.4-0.2,0.6
		c-0.1,0.2-0.3,0.2-0.5,0.2s-0.4-0.1-0.7-0.3c-0.2-0.2-0.4-0.3-0.5-0.3s-0.2,0.1-0.3,0.2c-0.3,0.2-0.5,0.6-0.8,1.1v3.7
		c0,0.4,0.1,0.8,0.2,1s0.2,0.3,0.4,0.4c0.2,0.1,0.5,0.2,0.8,0.2v0.3h-4v-0.3c0.4,0,0.7-0.1,0.9-0.2c0.1-0.1,0.2-0.2,0.3-0.4
		c0-0.1,0-0.4,0-0.8v-3c0-0.9,0-1.4-0.1-1.6c0-0.2-0.1-0.3-0.2-0.4c-0.1-0.1-0.2-0.1-0.4-0.1s-0.4,0-0.6,0.1l-0.1-0.3l2.3-0.9h0.4
		L-166.5,159.1L-166.5,159.1z"/>
	<path class="st1" d="M-161.7,162.2c0,1.1,0.3,2,0.8,2.7c0.6,0.7,1.2,1,2,1c0.5,0,0.9-0.1,1.3-0.4c0.4-0.3,0.7-0.8,0.9-1.4l0.3,0.2
		c-0.1,0.8-0.5,1.5-1,2.1c-0.6,0.6-1.3,0.9-2.1,0.9c-0.9,0-1.7-0.4-2.4-1.1c-0.7-0.7-1-1.7-1-2.9c0-1.3,0.3-2.4,1-3.1
		c0.7-0.7,1.5-1.1,2.6-1.1c0.9,0,1.6,0.3,2.1,0.9c0.6,0.6,0.8,1.3,0.8,2.3L-161.7,162.2L-161.7,162.2z M-161.7,161.7h3.6
		c0-0.5-0.1-0.8-0.2-1c-0.1-0.3-0.3-0.6-0.6-0.7c-0.3-0.2-0.6-0.3-0.9-0.3c-0.5,0-0.9,0.2-1.3,0.5
		C-161.4,160.6-161.6,161.1-161.7,161.7z"/>
	<path class="st1" d="M-154,162.2c0,1.1,0.3,2,0.8,2.7c0.6,0.7,1.2,1,2,1c0.5,0,0.9-0.1,1.3-0.4c0.4-0.3,0.7-0.8,0.9-1.4l0.3,0.2
		c-0.1,0.8-0.5,1.5-1,2.1c-0.6,0.6-1.3,0.9-2.1,0.9c-0.9,0-1.7-0.4-2.4-1.1c-0.7-0.7-1-1.7-1-2.9c0-1.3,0.3-2.4,1-3.1
		c0.7-0.7,1.5-1.1,2.6-1.1c0.9,0,1.6,0.3,2.1,0.9c0.6,0.6,0.8,1.3,0.8,2.3L-154,162.2L-154,162.2z M-154,161.7h3.6
		c0-0.5-0.1-0.8-0.2-1c-0.1-0.3-0.3-0.6-0.6-0.7s-0.6-0.3-0.9-0.3c-0.5,0-0.9,0.2-1.3,0.5C-153.8,160.6-154,161.1-154,161.7z"/>
	<path class="st1" d="M-135.6,155.9v-0.3h4v0.3h-0.4c-0.4,0-0.8,0.2-1,0.6c-0.1,0.2-0.2,0.6-0.2,1.2v4.6c0,1.1-0.1,2-0.3,2.7
		c-0.2,0.6-0.7,1.2-1.3,1.6c-0.7,0.5-1.6,0.7-2.7,0.7c-1.2,0-2.2-0.2-2.8-0.6c-0.6-0.4-1.1-1-1.4-1.7c-0.2-0.5-0.3-1.4-0.3-2.8v-4.5
		c0-0.7-0.1-1.2-0.3-1.4s-0.5-0.3-0.9-0.3h-0.4v-0.3h4.9v0.3h-0.4c-0.5,0-0.8,0.1-1,0.4c-0.1,0.2-0.2,0.6-0.2,1.3v5
		c0,0.4,0,1,0.1,1.5c0.1,0.6,0.2,1,0.4,1.3s0.5,0.6,0.9,0.8s0.9,0.3,1.5,0.3c0.7,0,1.4-0.2,2-0.5s1-0.7,1.2-1.3
		c0.2-0.5,0.3-1.4,0.3-2.6v-4.6c0-0.7-0.1-1.2-0.2-1.3c-0.2-0.2-0.5-0.4-1-0.4H-135.6z"/>
	<path class="st1" d="M-128.6,160.7c0.9-1.1,1.8-1.6,2.6-1.6c0.4,0,0.8,0.1,1.1,0.3c0.3,0.2,0.5,0.6,0.7,1c0.1,0.3,0.2,0.9,0.2,1.6
		v3.3c0,0.5,0,0.8,0.1,1c0.1,0.1,0.2,0.3,0.3,0.3c0.1,0.1,0.4,0.1,0.8,0.1v0.3h-3.8v-0.3h0.2c0.4,0,0.6-0.1,0.8-0.2
		c0.1-0.1,0.2-0.3,0.3-0.5c0-0.1,0-0.3,0-0.8V162c0-0.7-0.1-1.2-0.3-1.5c-0.2-0.3-0.5-0.5-0.9-0.5c-0.7,0-1.3,0.4-2,1.1v4.1
		c0,0.5,0,0.8,0.1,1s0.2,0.3,0.3,0.4s0.4,0.1,0.8,0.1v0.3h-3.8v-0.3h0.2c0.4,0,0.7-0.1,0.8-0.3s0.2-0.6,0.2-1.1v-2.9
		c0-0.9,0-1.5-0.1-1.7c0-0.2-0.1-0.3-0.2-0.4c-0.1-0.1-0.2-0.1-0.3-0.1c-0.2,0-0.3,0-0.6,0.1l-0.1-0.3l2.3-0.9h0.4L-128.6,160.7
		L-128.6,160.7L-128.6,160.7z"/>
	<path class="st1" d="M-119.6,159.1v6.2c0,0.5,0,0.8,0.1,1s0.2,0.3,0.3,0.4c0.1,0.1,0.4,0.1,0.8,0.1v0.3h-3.8v-0.3
		c0.4,0,0.6,0,0.8-0.1c0.1-0.1,0.2-0.2,0.3-0.4c0.1-0.2,0.1-0.5,0.1-1v-3c0-0.8,0-1.4-0.1-1.6c0-0.2-0.1-0.3-0.2-0.4
		c-0.1-0.1-0.2-0.1-0.3-0.1c-0.2,0-0.3,0-0.6,0.1l-0.1-0.3l2.3-0.9H-119.6z M-120.3,155.1c0.2,0,0.4,0.1,0.6,0.2
		c0.2,0.2,0.2,0.4,0.2,0.6c0,0.2-0.1,0.4-0.2,0.6c-0.2,0.2-0.4,0.3-0.6,0.3s-0.4-0.1-0.6-0.3s-0.3-0.4-0.3-0.6
		c0-0.2,0.1-0.4,0.2-0.6S-120.5,155.1-120.3,155.1z"/>
	<path class="st1" d="M-115.2,156.8v2.5h1.8v0.6h-1.8v5c0,0.5,0.1,0.8,0.2,1s0.3,0.3,0.6,0.3c0.2,0,0.4-0.1,0.5-0.2
		c0.2-0.1,0.3-0.3,0.4-0.5h0.3c-0.2,0.6-0.5,1-0.8,1.2c-0.4,0.3-0.7,0.4-1.1,0.4c-0.3,0-0.5-0.1-0.8-0.2c-0.2-0.1-0.4-0.3-0.5-0.6
		s-0.2-0.7-0.2-1.2v-5.2h-1.2v-0.3c0.3-0.1,0.6-0.3,0.9-0.6s0.6-0.6,0.9-1c0.1-0.2,0.3-0.6,0.5-1.2H-115.2z"/>
	<path class="st1" d="M-111.3,162.2c0,1.1,0.3,2,0.8,2.7c0.6,0.7,1.2,1,2,1c0.5,0,0.9-0.1,1.3-0.4c0.4-0.3,0.7-0.8,0.9-1.4l0.3,0.2
		c-0.1,0.8-0.5,1.5-1,2.1c-0.6,0.6-1.3,0.9-2.1,0.9c-0.9,0-1.7-0.4-2.4-1.1c-0.7-0.7-1-1.7-1-2.9c0-1.3,0.3-2.4,1-3.1
		c0.7-0.7,1.5-1.1,2.6-1.1c0.9,0,1.6,0.3,2.1,0.9c0.6,0.6,0.8,1.3,0.8,2.3L-111.3,162.2L-111.3,162.2z M-111.3,161.7h3.6
		c0-0.5-0.1-0.8-0.2-1c-0.1-0.3-0.3-0.6-0.6-0.7c-0.3-0.2-0.6-0.3-0.9-0.3c-0.5,0-0.9,0.2-1.3,0.5
		C-111.1,160.6-111.3,161.1-111.3,161.7z"/>
	<path class="st1" d="M-99.5,166.2c-0.4,0.4-0.7,0.7-1.1,0.8c-0.4,0.2-0.7,0.3-1.2,0.3c-0.8,0-1.6-0.4-2.2-1.1
		c-0.6-0.7-0.9-1.6-0.9-2.7c0-1.1,0.3-2.1,1-3s1.6-1.4,2.7-1.4c0.7,0,1.2,0.2,1.7,0.6v-1.4c0-0.9,0-1.4-0.1-1.6
		c0-0.2-0.1-0.3-0.2-0.4c-0.1-0.1-0.2-0.1-0.3-0.1s-0.3,0-0.6,0.1l-0.1-0.3l2.3-0.9h0.4v8.9c0,0.9,0,1.5,0.1,1.7
		c0,0.2,0.1,0.3,0.2,0.4c0.1,0.1,0.2,0.1,0.3,0.1c0.2,0,0.4,0,0.6-0.1l0.1,0.3l-2.3,1h-0.4V166.2z M-99.5,165.6v-4
		c0-0.4-0.1-0.7-0.3-1s-0.4-0.6-0.7-0.7c-0.3-0.2-0.5-0.2-0.8-0.2c-0.5,0-0.9,0.2-1.3,0.7c-0.5,0.6-0.8,1.4-0.8,2.6
		c0,1.1,0.2,2,0.7,2.6s1,0.9,1.7,0.9C-100.5,166.4-100,166.1-99.5,165.6z"/>
</g>
<g>
	<path class="st2" d="M144.3,120.3c-4.2,4.5-10.3,5.6-19,4.7c-10.2-1.1-20.8-5.5-32-8.7c-16-4.5-32.6-7.9-53.1-7.3
		c-15.6,0.5-26.8,5.4-40.2,11.5c1.8-6.5,9.5-10.6,16.1-13.9c12.7-6.3,24.9-8.3,44.9-6.4c12.9,1.2,25.1,4.8,36.3,8.8
		C113,114.5,125.1,123.4,144.3,120.3z"/>
	<path class="st2" d="M165.2,128c-1.4,6.1-8.1,9.2-13.9,11.9c-20.3,9.3-44.5,1.5-62.8-6.6c-6.7-3-12.7-6.6-22.9-6.7
		c2.6-2.8,6.9-3.1,13.5-2.2c6.8,1,14.1,4.3,21.8,6.7c10.5,3.2,21.1,6,34.8,5.5C147.1,136.2,155,132.7,165.2,128z"/>
	<path class="st3" d="M142.7,5.1c-0.7,2.9-4,4.2-6.1,5.7c-0.7,0.5-1.5,1.1-2.2,1.6s-1.4,1-2,1.6c-0.9-0.2-1.8-0.3-2.8-0.3l-2.8,0.2
		c-1.1,0-2.2,0-3.3,0.1l0,0c0.5,1.7,2.2,2.8,4.2,3.8c-3.4,3-6.8,6.2-10.1,9.4c-5.1,0.5-9.7-1.9-14-0.5c1.2,4.6,7.5,4.5,9.4,8.4
		c-3,7.6-6.3,16.1-7.4,25.6c-0.1,1.1-0.2,2.2-0.3,3.3c-0.1,2.8-0.1,5.6,0.2,8.3v0.1c0.1,0.9,0.2,1.7,0.3,2.6c0,0.1,0,0.1,0,0.2
		c0.1,0.9,0.2,1.7,0.4,2.5c0,0.1,0,0.1,0,0.2c0.1,0.8,0.3,1.7,0.5,2.5c0,0.1,0,0.1,0,0.2c0.2,0.8,0.4,1.7,0.6,2.5v0.1
		c0.6,2.5,1.3,5,2.1,7.3v0.1c0.1,0.2,0.1,0.3,0.2,0.5c5,11,13.7,14.8,13.7,14.8c-7.4-0.8-13.5-3.1-16.3-4.3c-6-2-12.1-5-18.9-7.2
		c-17-5.2-44.1-8.9-62.1-3.2c-3.1,1-6,2.7-8.8,4c-2.5,1.2-5.1,3.5-8.2,2.9c4.3-26.5,20.2-48.6,37.4-65.9
		C64.1,14.4,87.6,2.7,117.5,1.5C125.8,1.2,135.8,1.6,142.7,5.1z M55.4,33.5C34,50.8,22.1,77.9,20.5,82.6c0,0.1-0.1,0.1-0.1,0.2l0,0
		c-0.1,0.3-0.1,0.5-0.1,0.5l0.1,0.4h0.4l0.3-0.1l0.2-0.3c16-28.1,34.6-48.8,34.8-49L55.4,33.5z"/>
	<path class="st4" d="M52.2,198.4h3.4l2.5-11l2.5,11H64l3.7-19h-4L62,190.9l-2.4-11.6h-3l-2.3,11.4l-1.8-11.4h-4.1L52.2,198.4z
		 M72.6,198.4v-19h-3.8v19H72.6z M82.7,198.4V195h-4.4v-15.6h-3.8v19H82.7z M94.6,188.8c0,0.9,0,1.7,0,2.5s-0.1,1.5-0.2,2.1
		c-0.1,0.7-0.2,1.2-0.4,1.8c-0.2,0.5-0.4,1-0.8,1.3c-0.4,0.5-1,0.9-1.6,1.3c-0.6,0.4-1.5,0.6-2.6,0.6h-5.4v-19H89
		c1.1,0,1.9,0.2,2.6,0.5c0.6,0.4,1.2,0.8,1.6,1.3c0.3,0.4,0.6,0.8,0.8,1.3c0.2,0.5,0.3,1.1,0.4,1.7c0.1,0.6,0.1,1.3,0.2,2.1
		C94.6,187.1,94.6,188,94.6,188.8 M90.8,188.8c0-0.5,0-1.1,0-1.6s0-1-0.1-1.5c0-0.5-0.1-0.9-0.1-1.3c-0.1-0.4-0.2-0.7-0.3-0.9
		c-0.1-0.2-0.3-0.4-0.5-0.6c-0.2-0.2-0.5-0.2-0.9-0.2h-1.5v12.2H89c0.4,0,0.7-0.1,0.9-0.2c0.2-0.1,0.4-0.3,0.5-0.6
		c0.1-0.2,0.2-0.5,0.3-0.9c0.1-0.4,0.1-0.8,0.1-1.3s0-1,0.1-1.5C90.8,189.9,90.8,189.4,90.8,188.8 M103.1,198.4l-1-5.2h-4.4l-1,5.2
		H95l4.2-19h1.5l4.2,19H103.1z M99.9,182.2l-1.9,9.6h3.8L99.9,182.2z M106,198.4h1.6v-19H106V198.4z M117.8,188.9
		c0,1.5,0,2.7-0.1,3.7c0,1-0.1,1.7-0.2,2.3s-0.2,1.1-0.4,1.4c-0.2,0.4-0.4,0.7-0.7,1c-0.3,0.3-0.7,0.6-1.2,0.8s-1,0.3-1.6,0.3h-3.9
		v-19h3.9c0.6,0,1.2,0.1,1.6,0.3c0.5,0.2,0.9,0.5,1.2,0.8c0.3,0.3,0.5,0.6,0.7,1s0.3,0.8,0.4,1.4c0.1,0.6,0.2,1.4,0.2,2.3
		C117.8,186.2,117.8,187.4,117.8,188.9 M116.3,188.9c0-1.4,0-2.5,0-3.3c0-0.9-0.1-1.6-0.1-2.1c-0.1-0.5-0.2-1-0.3-1.2
		c-0.1-0.3-0.3-0.5-0.5-0.8c-0.4-0.4-1-0.7-1.7-0.7h-2.2V197h2.2c0.8,0,1.4-0.2,1.7-0.7c0.2-0.2,0.4-0.5,0.5-0.8s0.2-0.7,0.3-1.2
		c0.1-0.5,0.1-1.2,0.1-2.1C116.3,191.3,116.3,190.2,116.3,188.9"/>
	<g class="st0">
		<path class="st1" d="M29,155.5h5.3v1.1H30v3.3h4.3v1.1H30v5.3h-1V155.5z"/>
		<path class="st1" d="M36,155.5h1.1v10.7H36V155.5z"/>
		<path class="st1" d="M39.5,166.3v-10.7h0.2l7.1,8.2v-8.2h1.1v10.7h-0.2l-7-8.1v8.1H39.5z"/>
		<path class="st1" d="M54.2,155.5h5.3v1.1h-4.3v3.3h4.3v1.1h-4.3v5.3h-1.1L54.2,155.5L54.2,155.5z"/>
		<path class="st1" d="M61.4,155.5h2.1c1.2,0,2,0.1,2.4,0.2c0.4,0.1,0.8,0.3,1.1,0.5c0.3,0.2,0.6,0.5,0.7,0.9
			c0.2,0.4,0.3,0.8,0.3,1.3c0,0.9-0.3,1.6-1,2.2c-0.6,0.5-1.6,0.8-2.7,0.7l3.8,5h-1.3l-3.8-5h-0.6v5h-1.1L61.4,155.5L61.4,155.5z
			 M62.5,156.6v3.6h1.8c0.9,0,1.6-0.1,2-0.4c0.4-0.3,0.6-0.8,0.6-1.4c0-0.6-0.2-1.1-0.6-1.4c-0.4-0.3-1.1-0.4-2-0.4L62.5,156.6
			L62.5,156.6z"/>
		<path class="st1" d="M70.4,155.5h6.1v1.1h-5v3.3h5v1h-5v4.2h5v1.1h-6.1V155.5z"/>
		<path class="st1" d="M78.3,155.5h6.1v1.1h-5v3.3h5v1h-5v4.2h5v1.1h-6.1V155.5z"/>
		<path class="st1" d="M90,155.5h1.1v6.5c0,0.7,0,1.2,0.1,1.5c0,0.3,0.2,0.7,0.4,1c0.2,0.3,0.5,0.6,0.9,0.7c0.4,0.2,0.8,0.3,1.2,0.3
			s0.8-0.1,1.1-0.2c0.3-0.2,0.6-0.4,0.8-0.7c0.2-0.3,0.4-0.6,0.5-0.9c0.1-0.3,0.1-0.9,0.1-1.7v-6.5h1.1v6.5c0,1.1-0.1,1.9-0.3,2.5
			c-0.2,0.6-0.6,1.1-1.1,1.4c-0.5,0.4-1.2,0.6-1.9,0.6c-0.6,0-1.1-0.1-1.6-0.3s-0.9-0.5-1.2-0.8c-0.3-0.3-0.5-0.7-0.7-1.2
			c-0.1-0.4-0.2-1.2-0.2-2.3v-6.4L90,155.5L90,155.5z"/>
		<path class="st1" d="M99.7,166.3v-10.7h0.2l7.1,8.2v-8.2h1.1v10.7h-0.2l-7-8.1v8.1H99.7z"/>
		<path class="st1" d="M110.5,155.5h1.1v10.7h-1.1V155.5z"/>
		<path class="st1" d="M112.9,156.6v-1h5.8v1h-2.4v9.7h-1.1v-9.7H112.9z"/>
		<path class="st1" d="M120.3,155.5h6.1v1.1h-5v3.3h5v1h-5v4.2h5v1.1h-6.1V155.5z"/>
		<path class="st1" d="M128.3,166.3v-10.7h2.2c1.5,0,2.6,0.1,3.3,0.3s1.3,0.6,1.8,1.1s0.9,1.1,1.2,1.8s0.4,1.5,0.4,2.4
			s-0.2,1.8-0.6,2.6c-0.4,0.8-1,1.4-1.8,1.9c-0.7,0.4-1.8,0.6-3.2,0.6L128.3,166.3L128.3,166.3z M129.3,165.2h1.2
			c1.3,0,2.2-0.1,2.8-0.2c0.6-0.1,1.1-0.4,1.5-0.8c0.4-0.4,0.8-0.8,1-1.4c0.2-0.5,0.3-1.2,0.3-1.9s-0.1-1.4-0.4-2s-0.6-1.1-1.1-1.5
			s-1.1-0.7-1.7-0.8c-0.7-0.1-1.6-0.2-2.9-0.2h-0.8L129.3,165.2L129.3,165.2z"/>
	</g>
</g>
<g>
	<g>
		<path class="st3" d="M56.1,168.1c-0.7,1.2-1.4,2.3-2.2,3.2l-0.6-0.5c0.8-0.9,1.5-1.9,2.1-3.1L56.1,168.1z M66.4,167.2h-13v-0.7
			h2.2v-2.6h-1.9v-0.8h1.9v-1.8h0.8v1.8h1.9v-1.8h0.8v1.8h2v-1.8h0.7v1.8h2v-1.8h0.7v1.8h1.6v0.8h-1.6v2.6h1.9V167.2z M65.9,160.7
			H55.6c-0.4,0.4-0.9,0.8-1.5,1.3l-0.6-0.5c1-0.7,2.1-1.8,3.3-3.3l0.8,0.3c-0.4,0.5-0.8,1-1.2,1.5H66L65.9,160.7L65.9,160.7z
			 M58.3,166.5v-2.6h-1.9v2.6H58.3z M58.9,171.2l-0.8,0.1c0-1.1-0.2-2.2-0.5-3.3l0.8-0.2C58.7,168.9,58.9,170,58.9,171.2z M61,166.5
			v-2.6h-2v2.6H61z M62.7,171.1l-0.7,0.3c-0.2-0.9-0.6-2-1.2-3.2l0.7-0.3C62,168.8,62.4,169.8,62.7,171.1z M63.8,166.5v-2.6h-2v2.6
			H63.8z M66.4,171l-0.7,0.4c-0.5-1-1.1-2.1-1.8-3.2l0.7-0.4C65.4,168.9,66,170,66.4,171z"/>
		<path class="st3" d="M81.5,170.5l-0.2,0.7c-2.6-0.1-4.3-0.1-5.1-0.2c-0.8-0.1-1.7-0.3-2.5-0.6s-1.6-0.7-2.2-1.3
			c-0.7,0.8-1.6,1.5-2.7,2.2l-0.5-0.6c1.1-0.6,1.9-1.3,2.6-2.1c-1-1.3-1.7-2.9-1.9-4.6h-0.4v-0.8H71V161h-2.4v-0.8H71v-2.1h0.8v2.1
			H74v0.8h-2.2v2.2h1.9c-0.1,2-0.7,3.8-1.7,5.3c0.6,0.6,1.3,1,2.2,1.3c0.8,0.3,2,0.5,3.4,0.5L81.5,170.5z M72.7,164.1h-3
			c0.2,1.5,0.8,2.8,1.6,3.9C72,166.9,72.5,165.6,72.7,164.1z M76,164.7c-0.5,0.9-1.2,1.8-1.9,2.5l-0.5-0.6c0.7-0.7,1.3-1.5,1.9-2.5
			L76,164.7z M77.1,168c0,0.7-0.5,1-1.6,1c-0.2,0-0.5,0-0.8,0l-0.2-0.8c0.4,0,0.8,0,1,0c0.4,0,0.6,0,0.7-0.1s0.1-0.2,0.1-0.5v-8.1
			H74v-0.7h3v9.2H77.1z M75.9,163l-0.7,0.4c-0.3-0.9-0.7-1.6-1.2-2.3l0.7-0.4C75.2,161.3,75.6,162,75.9,163z M79.7,164.6
			c-0.5,1-1.1,1.8-1.6,2.5l-0.5-0.6c0.7-0.8,1.2-1.7,1.6-2.5L79.7,164.6z M79.6,163l-0.7,0.4c-0.2-0.6-0.6-1.3-1.2-2.3l0.6-0.4
			C79,161.6,79.4,162.4,79.6,163z M80.8,168.1c0,0.3-0.1,0.5-0.3,0.7c-0.2,0.2-0.6,0.3-1.2,0.3c-0.3,0-0.5,0-0.8,0l-0.3-0.8
			c0.5,0,0.9,0,1.2,0c0.5,0,0.7-0.1,0.7-0.4v-8.4h-2.2v-0.6h3L80.8,168.1L80.8,168.1z"/>
		<path class="st3" d="M96.4,170.9H83.3v-0.7h13.1V170.9z M95.8,162.5H95v-2.3H84.7v2.3h-0.8v-3.1h5.8l-0.7-1l0.8-0.3
			c0.3,0.5,0.6,0.9,0.8,1.3h5.3v3.1H95.8z M94.6,168.9h-9.4v-5.4h9.4V168.9z M94.2,162.2h-8.7v-0.7h8.7V162.2z M93.8,165.8v-1.5H86
			v1.5H93.8z M93.8,168.2v-1.7H86v1.7H93.8z"/>
		<path class="st3" d="M111.4,160.6H98.3v-0.7h6.4c-0.3-0.5-0.6-1.1-1-1.5l0.8-0.3c0.4,0.6,0.8,1.2,1.1,1.8h5.7L111.4,160.6
			L111.4,160.6z M110.3,162.9H99.5v-0.8h10.8V162.9z M110.3,165.2H99.5v-0.7h10.8V165.2z M110.2,171.3h-0.8v-0.7h-8.9v0.7h-0.8v-4.6
			h10.5C110.2,166.7,110.2,171.3,110.2,171.3z M109.4,169.8v-2.4h-8.9v2.4H109.4z"/>
	</g>
</g>
</svg>
