<?xml version="1.0" encoding="utf-8"?>
<!-- Generator: Adobe Illustrator 20.0.0, SVG Export Plug-In . SVG Version: 6.00 Build 0)  -->
<svg version="1.1" id="圖層_1" xmlns="http://www.w3.org/2000/svg" xmlns:xlink="http://www.w3.org/1999/xlink" x="0px" y="0px"
	 viewBox="0 0 164.1 163.8" style="enable-background:new 0 0 164.1 163.8;" xml:space="preserve">
<style type="text/css">
	.st0{display:none;}
	.st1{display:inline;fill:#231815;}
	.st2{fill:#74C5BE;}
	.st3{fill:#FFFFFF;}
</style>
<g>
	<g class="st0">
		<path class="st1" d="M240.3,148c0.5,3,0.9,6,1.4,9.1h0.1c0.1-0.7,0.3-1.3,0.4-2c0.5-2.2,0.9-4.5,1.4-6.7c0.1-0.3,0.2-0.5,0.5-0.5
			c0.5,0,1.1,0,1.6,0c0.3,0,0.4,0.1,0.5,0.4c0.5,2.7,1.1,5.5,1.7,8.2c0,0.2,0.1,0.4,0.3,0.6c0.5-3.1,0.9-6.1,1.4-9.2
			c1.1,0,2.2,0,3.3,0c-0.2,1.1-0.4,2.1-0.6,3.1c-0.8,4.1-1.6,8.2-2.4,12.2c-0.1,0.4-0.2,0.5-0.6,0.5c-0.8,0-1.5,0-2.4,0
			c-0.7-3-1.4-6-2-8.9h-0.1c-0.7,3-1.4,5.9-2,8.9c-1,0-1.9,0-2.8,0c-1.1-5.3-2.1-10.5-3.2-15.8C237.9,148,239.1,148,240.3,148z"/>
		<path class="st1" d="M266.2,163.8c0-5.3,0-10.6,0-15.8c1.8,0,3.6-0.1,5.3,0c1.8,0.1,3.2,1.5,3.5,3.4c0.5,3,0.5,6.1-0.1,9.1
			c-0.4,2-2,3.3-4,3.3c-1.5,0-3,0-4.5,0C266.3,163.8,266.3,163.8,266.2,163.8z M269.4,150.8c0,3.4,0,6.8,0,10.2c0.4,0,0.7,0,1,0
			c1,0,1.4-0.3,1.5-1.3c0.3-2.5,0.3-4.9,0-7.4c-0.1-1.1-0.6-1.4-1.7-1.4C270,150.8,269.7,150.8,269.4,150.8z"/>
		<path class="st1" d="M265.3,160.9c0,1,0,1.9,0,2.9c-2.3,0-4.5,0-6.8,0c0-5.3,0-10.5,0-15.8c1,0,2.1,0,3.1,0c0,4.3,0,8.6,0,13
			C262.9,160.9,264.1,160.9,265.3,160.9z"/>
		<path class="st1" d="M253.8,163.8c0-5.3,0-10.5,0-15.8c1.1,0,2.1,0,3.1,0c0,5.3,0,10.5,0,15.8
			C255.9,163.8,254.9,163.8,253.8,163.8z"/>
		<path class="st1" d="M287.9,163.8c0-5.3,0-10.6,0-15.9c0.1,0,0.2,0,0.4,0c1,0,2,0,3,0c1.8,0,3,1.1,3.2,2.8
			c0.1,0.9,0.2,1.8,0.2,2.7c0,2.5,0,5-0.2,7.5c-0.1,1.8-1.4,2.8-3.2,2.9C290.2,163.8,289.1,163.8,287.9,163.8z M289.3,149.2
			c0,4.5,0,9,0,13.4c0.8,0,1.5,0,2.3,0c0.7-0.1,1.1-0.5,1.4-1.2c0.1-0.3,0.2-0.7,0.2-1c0.1-2.6,0.1-5.1,0.1-7.7
			c0-0.7-0.1-1.4-0.2-2.1c-0.2-0.8-0.7-1.4-1.6-1.5C290.8,149.1,290,149.2,289.3,149.2z"/>
		<path class="st1" d="M283.8,163.8c-0.5,0-0.9,0-1.4,0c-0.3-1.4-0.6-2.9-0.9-4.3c-1.2,0-2.4,0-3.7,0c-0.3,1.4-0.6,2.8-0.8,4.3
			c-0.5,0-0.9,0-1.4,0c0.2-0.8,0.3-1.6,0.5-2.4c1-4.3,1.9-8.6,2.9-12.8c0.1-0.6,0.3-0.8,0.9-0.7c0.2,0,0.3,0,0.5,0
			C281.5,153.2,282.7,158.5,283.8,163.8z M279.7,150.6L279.7,150.6c-0.6,2.5-1.1,5.1-1.6,7.6c1.1,0,2.1,0,3.1,0
			C280.8,155.6,280.2,153.1,279.7,150.6z"/>
		<path class="st1" d="M286.1,163.8c-0.4,0-0.8,0-1.3,0c0-5.3,0-10.5,0-15.8c0.4,0,0.8,0,1.3,0C286.1,153.2,286.1,158.5,286.1,163.8
			z"/>
	</g>
	<g>
		<path class="st2" d="M143.4,119.6c-4.2,4.5-10.2,5.6-18.9,4.7c-10.2-1.1-20.7-5.5-31.8-8.6c-15.9-4.5-32.4-7.9-52.7-7.2
			c-15.6,0.5-26.7,5.4-40,11.4c1.8-6.5,9.4-10.5,16-13.8c12.6-6.3,24.8-8.2,44.6-6.4c12.8,1.2,25,4.8,36.1,8.8
			C112.2,113.9,124.3,122.7,143.4,119.6z"/>
		<path class="st2" d="M164.1,127.2c-1.4,6.1-8,9.2-13.8,11.8c-20.1,9.2-44.2,1.5-62.4-6.5c-6.7-3-12.6-6.5-22.8-6.7
			c2.5-2.8,6.8-3.1,13.5-2.2c6.8,0.9,14,4.3,21.7,6.7c10.4,3.2,21,5.9,34.6,5.5C146.1,135.4,154,132,164.1,127.2z"/>
		<path class="st3" d="M141.7,5.2c-0.7,2.9-4,4.2-6.1,5.7c-0.7,0.5-1.4,1-2.2,1.6c-0.7,0.5-1.3,1-2,1.6c-0.9-0.2-1.8-0.3-2.7-0.3
			l-2.8,0.2c-1.1,0-2.2,0-3.3,0.1l0,0c0.5,1.6,2.2,2.8,4.2,3.8c-3.4,3-6.7,6.2-10,9.4c-5,0.5-9.7-1.9-13.9-0.5
			c1.2,4.6,7.4,4.4,9.3,8.3c-3,7.6-6.3,16-7.3,25.4c-0.1,1.1-0.2,2.2-0.3,3.3c-0.1,2.8-0.1,5.6,0.2,8.3v0.1c0.1,0.9,0.2,1.7,0.3,2.6
			c0,0.1,0,0.1,0,0.2c0.1,0.8,0.2,1.7,0.4,2.5c0,0.1,0,0.1,0,0.2c0.1,0.8,0.3,1.7,0.5,2.5c0,0.1,0,0.1,0,0.2
			c0.2,0.8,0.4,1.7,0.6,2.5V83c0.6,2.5,1.3,4.9,2.1,7.3v0.1c0.1,0.2,0.1,0.3,0.2,0.5c5,10.9,13.6,14.7,13.6,14.7
			c-7.3-0.8-13.4-3-16.1-4.3c-5.9-2-12.1-5-18.8-7.1c-17.1-5.3-44-9-61.9-3.3c-3.1,1-6,2.6-8.7,4c-2.5,1.2-5.1,3.5-8.1,2.9
			C13.2,71.5,29,49.6,46,32.4c17.6-18,41-29.6,70.7-30.8C125,1.3,134.9,1.7,141.7,5.2z M55.1,33.4C33.8,50.6,21.9,77.5,20.4,82.2
			c0,0.1-0.1,0.1-0.1,0.2l0,0c-0.1,0.3-0.1,0.5-0.1,0.5l0.1,0.4h0.4l0.3-0.1l0.2-0.3C37.1,55,55.6,34.4,55.7,34.2L55.1,33.4z"/>
	</g>
	<g class="st0">
		<path class="st1" d="M239.4,140.7c-0.3,0.2-0.7,0.3-1.1,0.3c-0.5,0-0.9-0.2-1.3-0.5l-0.3,0.5h-0.2v-1.7h0.2c0.2,1,0.7,1.5,1.6,1.5
			c0.3,0,0.5-0.1,0.7-0.3s0.3-0.4,0.3-0.7s-0.1-0.5-0.4-0.6c-0.1-0.1-0.3-0.1-0.7-0.2c-0.5-0.1-0.9-0.3-1.1-0.4
			c-0.4-0.2-0.6-0.5-0.6-1c0-0.4,0.2-0.7,0.5-0.9s0.6-0.3,1-0.3c0.5,0,0.9,0.1,1.2,0.4l0.2-0.4h0.2l0.1,1.6h-0.2
			c-0.2-0.9-0.7-1.4-1.4-1.4c-0.2,0-0.4,0.1-0.6,0.3s-0.2,0.4-0.2,0.6c0,0.2,0.1,0.4,0.4,0.5c0,0,0.3,0.1,0.7,0.2
			c0.6,0.2,0.9,0.3,1.1,0.4c0.3,0.2,0.5,0.6,0.5,1C239.9,140.2,239.7,140.5,239.4,140.7z"/>
		<path class="st1" d="M243.2,141v-0.2h0.3c0.2,0,0.3-0.1,0.3-0.3v-1.6h-2.1v1.6c0,0.2,0.1,0.3,0.3,0.3h0.3v0.2h-1.9v-0.2h0.3
			c0.2,0,0.3-0.1,0.3-0.3v-3.3c0-0.2-0.1-0.3-0.3-0.3h-0.3v-0.2h1.9v0.2H242c-0.2,0-0.3,0.1-0.3,0.3v1.5h2.1v-1.5
			c0-0.2-0.1-0.3-0.3-0.3h-0.3v-0.2h1.9v0.2h-0.3c-0.2,0-0.3,0.1-0.3,0.3v3.3c0,0.2,0.1,0.3,0.3,0.3h0.3v0.2H243.2z"/>
		<path class="st1" d="M248.4,141v-0.2h0.3c0.2,0,0.2-0.1,0.2-0.2c0,0,0-0.1,0-0.2l-0.4-0.9h-1.7c-0.2,0.6-0.4,1-0.4,1
			c0,0.2,0.2,0.3,0.6,0.3h0.1v0.2h-1.6v-0.2c0.3,0,0.6-0.1,0.7-0.4l1.4-3.8h0.4l1.6,3.8c0.1,0.3,0.3,0.4,0.6,0.4v0.2L248.4,141
			L248.4,141z M247.7,137.4l-0.7,1.8h1.4L247.7,137.4z"/>
		<path class="st1" d="M252.5,138.8h-0.4v1.7c0,0.1,0,0.2,0.1,0.2c0,0,0.1,0,0.2,0h0.3v0.2h-1.9v-0.2h0.3c0.1,0,0.2,0,0.2,0
			s0.1-0.1,0.1-0.2v-3.4c0-0.2-0.1-0.3-0.3-0.3h-0.4v-0.2h2.4c0.4,0,0.8,0.1,1,0.2c0.4,0.2,0.5,0.5,0.5,0.9c0,0.3-0.1,0.6-0.4,0.8
			c-0.2,0.2-0.6,0.3-1,0.4l0.8,1.5c0.1,0.3,0.4,0.4,0.7,0.4v0.3h-1.1L252.5,138.8z M252.4,136.8c-0.1,0-0.2,0-0.2,0.1
			c0,0-0.1,0.1-0.1,0.2v1.5h0.4c0.4,0,0.7,0,0.9-0.1c0.3-0.1,0.4-0.4,0.4-0.7s-0.1-0.5-0.2-0.6c-0.2-0.1-0.4-0.2-0.6-0.2h-0.6
			C252.4,137,252.4,136.8,252.4,136.8z"/>
		<path class="st1" d="M258,141v-0.2h0.2c0.1,0,0.1,0,0.1-0.1c0,0,0-0.1-0.1-0.2l-1-1.7l-0.7,0.7v1.1c0,0.1,0.1,0.2,0.2,0.2h0.4v0.2
			h-1.9v-0.2h0.4c0.1,0,0.2-0.1,0.2-0.2V137c0-0.1-0.1-0.2-0.2-0.2h-0.4v-0.2h1.9v0.2h-0.4c-0.1,0-0.2,0.1-0.2,0.2v2l1.7-1.9
			c0.1-0.1,0.1-0.2,0.1-0.2c0-0.1,0-0.1-0.1-0.1h-0.3v-0.2h1.6v0.2c-0.3,0-0.5,0-0.6,0.1s-0.3,0.2-0.5,0.4l-0.8,0.9l1.3,2.2
			c0.1,0.2,0.4,0.3,0.8,0.3v0.2H258V141z"/>
		<path class="st1" d="M266.4,138.2c-0.1-0.5-0.3-0.8-0.5-1s-0.6-0.3-1.1-0.3h-0.5c-0.2,0-0.3,0.1-0.3,0.3v1.4h0.5
			c0.2,0,0.4-0.1,0.5-0.3s0.2-0.4,0.2-0.6h0.3v2h-0.3c0-0.2-0.1-0.4-0.2-0.6c-0.1-0.2-0.3-0.3-0.5-0.3H264v1.6
			c0,0.2,0.1,0.3,0.2,0.3s0.2,0.1,0.4,0.1v0.2h-2v-0.2c0.2,0,0.3,0,0.4-0.1s0.2-0.2,0.2-0.3v-3.2c0-0.3-0.2-0.4-0.6-0.4v-0.2h3.8
			l0.1,1.6H266.4z"/>
		<path class="st1" d="M267.3,141v-0.2h0.5c0.1,0,0.2-0.1,0.2-0.2V137c0-0.1-0.1-0.2-0.2-0.2h-0.5v-0.2h2v0.2h-0.5
			c-0.1,0-0.2,0.1-0.2,0.2v3.5c0,0.1,0.1,0.2,0.2,0.2h0.5v0.2h-2V141z"/>
		<path class="st1" d="M274,136.8c-0.2,0-0.2,0.1-0.2,0.3v4h-0.3l-2.7-3.5v3c0,0.2,0.1,0.2,0.2,0.2h0.4v0.2h-1.7v-0.2h0.5
			c0.1,0,0.2-0.1,0.2-0.2v-3.3c0-0.2-0.1-0.3-0.2-0.3s-0.2-0.1-0.5-0.1v-0.2h1.3l2.5,3.3v-3c0-0.2-0.1-0.2-0.2-0.2h-0.5v-0.2h1.7
			v0.2H274z"/>
		<path class="st1" d="M280.9,138.2c-0.1-0.5-0.3-0.8-0.5-1s-0.6-0.3-1.1-0.3h-0.5c-0.2,0-0.3,0.1-0.3,0.3v1.4h0.5
			c0.2,0,0.4-0.1,0.5-0.3s0.2-0.4,0.2-0.6h0.3v2h-0.3c0-0.2-0.1-0.4-0.2-0.6c-0.1-0.2-0.3-0.3-0.5-0.3h-0.5v1.6
			c0,0.2,0.1,0.3,0.2,0.3s0.2,0.1,0.4,0.1v0.2h-2v-0.2c0.2,0,0.3,0,0.4-0.1s0.2-0.2,0.2-0.3v-3.2c0-0.3-0.2-0.4-0.6-0.4v-0.2h3.8
			l0.1,1.6H280.9z"/>
		<path class="st1" d="M283.4,138.8H283v1.7c0,0.1,0,0.2,0.1,0.2c0,0,0.1,0,0.2,0h0.3v0.2h-1.9v-0.2h0.3c0.1,0,0.2,0,0.2,0
			s0.1-0.1,0.1-0.2v-3.4c0-0.2-0.1-0.3-0.3-0.3h-0.4v-0.2h2.4c0.4,0,0.8,0.1,1,0.2c0.4,0.2,0.5,0.5,0.5,0.9c0,0.3-0.1,0.6-0.4,0.8
			c-0.2,0.2-0.6,0.3-1,0.4l0.8,1.5c0.1,0.3,0.4,0.4,0.7,0.4v0.3h-1.1L283.4,138.8z M283.3,136.8c-0.1,0-0.2,0-0.2,0.1
			c0,0-0.1,0.1-0.1,0.2v1.5h0.4c0.4,0,0.7,0,0.9-0.1c0.3-0.1,0.4-0.4,0.4-0.7s-0.1-0.5-0.2-0.6c-0.2-0.1-0.4-0.2-0.6-0.2h-0.6
			C283.3,137,283.3,136.8,283.3,136.8z"/>
		<path class="st1" d="M290.1,141h-3.9v-0.2c0.2,0,0.3,0,0.4-0.1s0.2-0.2,0.2-0.3v-3.3c0-0.2-0.1-0.3-0.4-0.3h-0.1
			c-0.1,0-0.1,0-0.1,0v-0.2h3.8l0.1,1.6h-0.2c-0.1-0.5-0.3-0.8-0.5-1s-0.6-0.3-1.1-0.3h-0.6c-0.2,0-0.3,0.1-0.3,0.3v1.4h0.5
			c0.4,0,0.7-0.3,0.7-0.9h0.4v2h-0.3c0-0.6-0.2-0.9-0.7-0.9h-0.5v1.6c0,0.2,0.1,0.4,0.3,0.4h0.7c0.4,0,0.7-0.1,1-0.4
			c0.2-0.3,0.4-0.6,0.5-1h0.2L290.1,141z"/>
		<path class="st1" d="M294.6,141h-3.9v-0.2c0.2,0,0.3,0,0.4-0.1s0.2-0.2,0.2-0.3v-3.3c0-0.2-0.1-0.3-0.4-0.3h-0.1
			c-0.1,0-0.1,0-0.1,0v-0.2h3.8l0.1,1.6h-0.2c-0.1-0.5-0.3-0.8-0.5-1s-0.6-0.3-1.1-0.3h-0.6c-0.2,0-0.3,0.1-0.3,0.3v1.4h0.5
			c0.4,0,0.7-0.3,0.7-0.9h0.3v2h-0.3c0-0.6-0.2-0.9-0.7-0.9h-0.5v1.6c0,0.2,0.1,0.4,0.3,0.4h0.7c0.4,0,0.7-0.1,1-0.4
			c0.2-0.3,0.4-0.6,0.5-1h0.2V141z"/>
	</g>
</g>
</svg>
