<?xml version="1.0" encoding="utf-8"?>
<!-- Generator: Adobe Illustrator 20.0.0, SVG Export Plug-In . SVG Version: 6.00 Build 0)  -->
<svg version="1.1" id="連署_拷貝" xmlns="http://www.w3.org/2000/svg" xmlns:xlink="http://www.w3.org/1999/xlink" x="0px"
	 y="0px" viewBox="0 0 209.4 190.9" style="enable-background:new 0 0 209.4 190.9;" xml:space="preserve">
<style type="text/css">
	.st0{fill:#FFFFFF;}
</style>
<g>
	<g>
		<path class="st0" d="M183,152c-5.3,5.8-13,7.2-24.1,6c-13-1.4-26.4-7.1-40.6-11.1c-20.3-5.8-41.4-10.1-67.3-9.3
			c-19.9,0.6-34.1,6.9-51,14.6c2.2-8.3,12-13.6,20.4-17.8c16.1-8.1,31.6-10.6,57-8.2c16.4,1.5,31.8,6.1,46,11.3
			C143.2,144.7,158.6,156,183,152z"/>
		<path class="st0" d="M209.4,161.8c-1.8,7.8-10.2,11.8-17.6,15.2c-25.7,11.8-56.4,1.9-79.6-8.4c-8.5-3.8-16.1-8.4-29.1-8.6
			c3.2-3.6,8.7-4,17.2-2.8c8.7,1.2,17.9,5.5,27.7,8.6c13.3,4.1,26.8,7.6,44.1,7.1C186.4,172.4,196.5,167.9,209.4,161.8z"/>
		<path class="st0" d="M180.9,4.7c-0.9,3.7-5.1,5.4-7.8,7.3c-0.9,0.7-1.8,1.3-2.7,2s-1.7,1.3-2.6,2c-1.1-0.3-2.3-0.4-3.5-0.3
			l-3.5,0.2c-1.4,0-2.8,0-4.2,0.2c0,0,0,0,0,0.1c0.7,2.1,2.7,3.6,5.3,4.9c-4.3,3.9-8.6,7.9-12.8,12.1c-6.4,0.6-12.3-2.5-17.7-0.6
			c1.5,5.9,9.5,5.7,11.9,10.7c-3.8,9.7-8,20.6-9.4,32.7c-0.2,1.4-0.3,2.8-0.3,4.3c-0.2,3.6-0.1,7.2,0.2,10.7v0.1
			c0.1,1.1,0.2,2.2,0.4,3.3c0,0.1,0,0.1,0,0.2c0.1,1.1,0.3,2.2,0.5,3.2c0,0.1,0,0.2,0,0.2c0.2,1.1,0.4,2.1,0.6,3.2
			c0,0.1,0,0.1,0,0.2c0.2,1.1,0.5,2.1,0.7,3.2v0.1c0.8,3.2,1.7,6.4,2.7,9.4v0.1c0.1,0.2,0.2,0.4,0.2,0.7
			c6.4,14.1,17.4,18.9,17.4,18.9c-9.4-1-17.1-3.9-20.6-5.5c-7.5-2.6-15.4-6.5-24-9.2c-21.8-6.8-56.2-11.6-79-4.2
			c-3.9,1.3-7.6,3.4-11.1,5.1c-3.1,1.5-6.5,4.5-10.4,3.7c5.5-33.8,25.7-62.1,47.4-84.2C81.2,16.6,111.1,1.7,149,0.1
			C159.5-0.3,172.1,0.3,180.9,4.7z M70.3,41C43.1,63.1,28,97.8,26,103.8c0,0.1-0.1,0.1-0.1,0.2l0,0c-0.1,0.4-0.2,0.6-0.1,0.6
			l0.2,0.5h0.5l0.4-0.1l0.2-0.3C47.5,68.8,71,42.4,71.3,42.1L70.3,41z"/>
	</g>
</g>
</svg>
