<?xml version="1.0" encoding="utf-8"?>
<!-- Generator: Adobe Illustrator 20.0.0, SVG Export Plug-In . SVG Version: 6.00 Build 0)  -->
<svg version="1.1" id="圖層_1" xmlns="http://www.w3.org/2000/svg" xmlns:xlink="http://www.w3.org/1999/xlink" x="0px" y="0px"
	 viewBox="0 0 164.1 165.2" style="enable-background:new 0 0 164.1 165.2;" xml:space="preserve">
<style type="text/css">
	.st0{display:none;}
	.st1{display:inline;fill:#231815;}
	.st2{fill:#231815;}
	.st3{fill:#74C5BE;}
	.st4{display:inline;fill:#74C5BE;}
	.st5{display:inline;fill:#FFFFFF;}
</style>
<g>
	<g class="st0">
		<path class="st1" d="M14.3,148.7c0.5,3,0.9,6,1.4,9.1h0.1c0.1-0.7,0.3-1.3,0.4-2c0.5-2.2,0.9-4.5,1.4-6.7c0.1-0.3,0.2-0.5,0.5-0.5
			c0.5,0,1.1,0,1.6,0c0.3,0,0.4,0.1,0.5,0.4c0.5,2.7,1.1,5.5,1.7,8.2c0,0.2,0.1,0.4,0.3,0.6c0.5-3.1,0.9-6.1,1.4-9.2
			c1.1,0,2.2,0,3.3,0c-0.2,1.1-0.4,2.1-0.6,3.1c-0.8,4.1-1.6,8.2-2.4,12.2c-0.1,0.4-0.2,0.5-0.6,0.5c-0.8,0-1.5,0-2.4,0
			c-0.7-3-1.4-6-2-8.9h-0.1c-0.7,3-1.4,5.9-2,8.9c-1,0-1.9,0-2.8,0c-1.1-5.3-2.1-10.5-3.2-15.8C11.9,148.7,13.1,148.7,14.3,148.7z"
			/>
		<path class="st1" d="M40.2,164.5c0-5.3,0-10.6,0-15.8c1.8,0,3.6-0.1,5.3,0c1.8,0.1,3.2,1.5,3.5,3.4c0.5,3,0.5,6.1-0.1,9.1
			c-0.4,2-2,3.3-4,3.3c-1.5,0-3,0-4.5,0C40.3,164.5,40.3,164.5,40.2,164.5z M43.4,151.5c0,3.4,0,6.8,0,10.2c0.4,0,0.7,0,1,0
			c1,0,1.4-0.3,1.5-1.3c0.3-2.5,0.3-4.9,0-7.4c-0.1-1.1-0.6-1.4-1.7-1.4C44,151.5,43.7,151.5,43.4,151.5z"/>
		<path class="st1" d="M39.3,161.6c0,1,0,1.9,0,2.9c-2.3,0-4.5,0-6.8,0c0-5.3,0-10.5,0-15.8c1,0,2.1,0,3.1,0c0,4.3,0,8.6,0,13
			C36.9,161.6,38.1,161.6,39.3,161.6z"/>
		<path class="st1" d="M27.8,164.5c0-5.3,0-10.5,0-15.8c1.1,0,2.1,0,3.1,0c0,5.3,0,10.5,0,15.8C29.9,164.5,28.9,164.5,27.8,164.5z"
			/>
		<path class="st1" d="M61.9,164.5c0-5.3,0-10.6,0-15.9c0.1,0,0.2,0,0.4,0c1,0,2,0,3,0c1.8,0,3,1.1,3.2,2.8c0.1,0.9,0.2,1.8,0.2,2.7
			c0,2.5,0,5-0.2,7.5c-0.1,1.8-1.4,2.8-3.2,2.9C64.2,164.5,63.1,164.5,61.9,164.5z M63.3,149.9c0,4.5,0,9,0,13.4c0.8,0,1.5,0,2.3,0
			c0.7-0.1,1.1-0.5,1.4-1.2c0.1-0.3,0.2-0.7,0.2-1c0.1-2.6,0.1-5.1,0.1-7.7c0-0.7-0.1-1.4-0.2-2.1c-0.2-0.8-0.7-1.4-1.6-1.5
			C64.8,149.8,64,149.9,63.3,149.9z"/>
		<path class="st1" d="M57.8,164.5c-0.5,0-0.9,0-1.4,0c-0.3-1.4-0.6-2.9-0.9-4.3c-1.2,0-2.4,0-3.7,0c-0.3,1.4-0.6,2.8-0.8,4.3
			c-0.5,0-0.9,0-1.4,0c0.2-0.8,0.3-1.6,0.5-2.4c1-4.3,1.9-8.6,2.9-12.8c0.1-0.6,0.3-0.8,0.9-0.7c0.2,0,0.3,0,0.5,0
			C55.5,153.9,56.7,159.2,57.8,164.5z M53.7,151.3L53.7,151.3c-0.6,2.5-1.1,5.1-1.6,7.6c1.1,0,2.1,0,3.1,0
			C54.8,156.3,54.2,153.8,53.7,151.3z"/>
		<path class="st1" d="M60.1,164.5c-0.4,0-0.8,0-1.3,0c0-5.3,0-10.5,0-15.8c0.4,0,0.8,0,1.3,0C60.1,153.9,60.1,159.2,60.1,164.5z"/>
	</g>
	<g>
		<path class="st2" d="M143.4,118.8c-4.2,4.5-10.2,5.6-18.9,4.7c-10.2-1.1-20.7-5.5-31.8-8.6c-15.9-4.5-32.4-7.9-52.7-7.2
			c-15.6,0.5-26.7,5.4-40,11.4c1.8-6.5,9.4-10.5,16-13.8c12.6-6.3,24.8-8.2,44.6-6.4c12.8,1.2,25,4.8,36.1,8.8
			C112.2,113.1,124.3,121.9,143.4,118.8z"/>
		<path class="st2" d="M164.1,126.4c-1.4,6.1-8,9.2-13.8,11.8c-20.1,9.2-44.2,1.5-62.4-6.5c-6.7-3-12.6-6.5-22.8-6.7
			c2.5-2.8,6.8-3.1,13.5-2.2c6.8,0.9,14,4.3,21.7,6.7c10.4,3.2,21,5.9,34.6,5.5C146.1,134.6,154,131.2,164.1,126.4z"/>
		<path class="st3" d="M141.7,4.4c-0.7,2.9-4,4.2-6.1,5.7c-0.7,0.5-1.4,1-2.2,1.6c-0.7,0.5-1.3,1-2,1.6c-0.9-0.2-1.8-0.3-2.7-0.3
			l-2.8,0.2c-1.1,0-2.2,0-3.3,0.1l0,0c0.5,1.6,2.2,2.8,4.2,3.8c-3.4,3-6.7,6.2-10,9.4c-5,0.5-9.7-1.9-13.9-0.5
			c1.2,4.6,7.4,4.4,9.3,8.3c-3,7.6-6.3,16-7.3,25.4c-0.1,1.1-0.2,2.2-0.3,3.3c-0.1,2.8-0.1,5.6,0.2,8.3v0.1c0.1,0.9,0.2,1.7,0.3,2.6
			c0,0.1,0,0.1,0,0.2c0.1,0.8,0.2,1.7,0.4,2.5c0,0.1,0,0.1,0,0.2c0.1,0.8,0.3,1.7,0.5,2.5c0,0.1,0,0.1,0,0.2
			c0.2,0.8,0.4,1.7,0.6,2.5v0.1c0.6,2.5,1.3,4.9,2.1,7.3v0.1c0.1,0.2,0.1,0.3,0.2,0.5c5,10.9,13.6,14.7,13.6,14.7
			c-7.3-0.8-13.4-3-16.1-4.3c-5.9-2-12.1-5-18.8-7.1c-17.1-5.3-44-9-61.9-3.3c-3.1,1-6,2.6-8.7,4c-2.5,1.2-5.1,3.5-8.1,2.9
			C13.2,70.7,29,48.8,46,31.6C63.6,13.6,87,2,116.7,0.8C125,0.5,134.9,0.9,141.7,4.4z M55.1,32.6C33.8,49.8,21.9,76.7,20.4,81.4
			c0,0.1-0.1,0.1-0.1,0.2l0,0c-0.1,0.3-0.1,0.5-0.1,0.5l0.1,0.4h0.4l0.3-0.1l0.2-0.3c15.9-27.9,34.4-48.5,34.5-48.7L55.1,32.6z"/>
	</g>
	<g class="st0">
		<path class="st1" d="M13.4,141.4c-0.3,0.2-0.7,0.3-1.1,0.3c-0.5,0-0.9-0.2-1.3-0.5l-0.3,0.5h-0.2V140h0.2c0.2,1,0.7,1.5,1.6,1.5
			c0.3,0,0.5-0.1,0.7-0.3s0.3-0.4,0.3-0.7s-0.1-0.5-0.4-0.6c-0.1-0.1-0.3-0.1-0.7-0.2c-0.5-0.1-0.9-0.3-1.1-0.4
			c-0.4-0.2-0.6-0.5-0.6-1c0-0.4,0.2-0.7,0.5-0.9s0.6-0.3,1-0.3c0.5,0,0.9,0.1,1.2,0.4l0.2-0.4h0.2l0.1,1.6h-0.2
			c-0.2-0.9-0.7-1.4-1.4-1.4c-0.2,0-0.4,0.1-0.6,0.3c-0.2,0.2-0.2,0.4-0.2,0.6c0,0.2,0.1,0.4,0.4,0.5c0,0,0.3,0.1,0.7,0.2
			c0.6,0.2,0.9,0.3,1.1,0.4c0.3,0.2,0.5,0.6,0.5,1C13.9,140.9,13.7,141.2,13.4,141.4z"/>
		<path class="st1" d="M17.2,141.7v-0.2h0.3c0.2,0,0.3-0.1,0.3-0.3v-1.6h-2.1v1.6c0,0.2,0.1,0.3,0.3,0.3h0.3v0.2h-1.9v-0.2h0.3
			c0.2,0,0.3-0.1,0.3-0.3v-3.3c0-0.2-0.1-0.3-0.3-0.3h-0.3v-0.2h1.9v0.2H16c-0.2,0-0.3,0.1-0.3,0.3v1.5h2.1v-1.5
			c0-0.2-0.1-0.3-0.3-0.3h-0.3v-0.2h1.9v0.2h-0.3c-0.2,0-0.3,0.1-0.3,0.3v3.3c0,0.2,0.1,0.3,0.3,0.3h0.3v0.2H17.2z"/>
		<path class="st1" d="M22.4,141.7v-0.2h0.3c0.2,0,0.2-0.1,0.2-0.2c0,0,0-0.1,0-0.2l-0.4-0.9h-1.7c-0.2,0.6-0.4,1-0.4,1
			c0,0.2,0.2,0.3,0.6,0.3h0.1v0.2h-1.6v-0.2c0.3,0,0.6-0.1,0.7-0.4l1.4-3.8H22l1.6,3.8c0.1,0.3,0.3,0.4,0.6,0.4v0.2L22.4,141.7
			L22.4,141.7z M21.7,138.1l-0.7,1.8h1.4L21.7,138.1z"/>
		<path class="st1" d="M26.5,139.5h-0.4v1.7c0,0.1,0,0.2,0.1,0.2c0,0,0.1,0,0.2,0h0.3v0.2h-1.9v-0.2h0.3c0.1,0,0.2,0,0.2,0
			s0.1-0.1,0.1-0.2v-3.4c0-0.2-0.1-0.3-0.3-0.3h-0.4v-0.2h2.4c0.4,0,0.8,0.1,1,0.2c0.4,0.2,0.5,0.5,0.5,0.9c0,0.3-0.1,0.6-0.4,0.8
			c-0.2,0.2-0.6,0.3-1,0.4l0.8,1.5c0.1,0.3,0.4,0.4,0.7,0.4v0.3h-1.1L26.5,139.5z M26.4,137.5c-0.1,0-0.2,0-0.2,0.1
			c0,0-0.1,0.1-0.1,0.2v1.5h0.4c0.4,0,0.7,0,0.9-0.1c0.3-0.1,0.4-0.4,0.4-0.7s-0.1-0.5-0.2-0.6c-0.2-0.1-0.4-0.2-0.6-0.2h-0.6
			C26.4,137.7,26.4,137.5,26.4,137.5z"/>
		<path class="st1" d="M32,141.7v-0.2h0.2c0.1,0,0.1,0,0.1-0.1c0,0,0-0.1-0.1-0.2l-1-1.7l-0.7,0.7v1.1c0,0.1,0.1,0.2,0.2,0.2h0.4
			v0.2h-1.9v-0.2h0.4c0.1,0,0.2-0.1,0.2-0.2v-3.6c0-0.1-0.1-0.2-0.2-0.2h-0.4v-0.2h1.9v0.2h-0.4c-0.1,0-0.2,0.1-0.2,0.2v2l1.7-1.9
			c0.1-0.1,0.1-0.2,0.1-0.2c0-0.1,0-0.1-0.1-0.1h-0.3v-0.2h1.6v0.2c-0.3,0-0.5,0-0.6,0.1s-0.3,0.2-0.5,0.4l-0.8,0.9l1.3,2.2
			c0.1,0.2,0.4,0.3,0.8,0.3v0.2H32V141.7z"/>
		<path class="st1" d="M40.4,138.9c-0.1-0.5-0.3-0.8-0.5-1s-0.6-0.3-1.1-0.3h-0.5c-0.2,0-0.3,0.1-0.3,0.3v1.4h0.5
			c0.2,0,0.4-0.1,0.5-0.3s0.2-0.4,0.2-0.6h0.3v2h-0.3c0-0.2-0.1-0.4-0.2-0.6c-0.1-0.2-0.3-0.3-0.5-0.3H38v1.6c0,0.2,0.1,0.3,0.2,0.3
			c0.1,0,0.2,0.1,0.4,0.1v0.2h-2v-0.2c0.2,0,0.3,0,0.4-0.1c0.1-0.1,0.2-0.2,0.2-0.3v-3.2c0-0.3-0.2-0.4-0.6-0.4v-0.2h3.8l0.1,1.6
			H40.4z"/>
		<path class="st1" d="M41.3,141.7v-0.2h0.5c0.1,0,0.2-0.1,0.2-0.2v-3.6c0-0.1-0.1-0.2-0.2-0.2h-0.5v-0.2h2v0.2h-0.5
			c-0.1,0-0.2,0.1-0.2,0.2v3.5c0,0.1,0.1,0.2,0.2,0.2h0.5v0.2h-2V141.7z"/>
		<path class="st1" d="M48,137.5c-0.2,0-0.2,0.1-0.2,0.3v4h-0.3l-2.7-3.5v3c0,0.2,0.1,0.2,0.2,0.2h0.4v0.2h-1.7v-0.2h0.5
			c0.1,0,0.2-0.1,0.2-0.2V138c0-0.2-0.1-0.3-0.2-0.3c-0.1,0-0.2-0.1-0.5-0.1v-0.2H45l2.5,3.3v-3c0-0.2-0.1-0.2-0.2-0.2h-0.5v-0.2
			h1.7v0.2H48z"/>
		<path class="st1" d="M54.9,138.9c-0.1-0.5-0.3-0.8-0.5-1s-0.6-0.3-1.1-0.3h-0.5c-0.2,0-0.3,0.1-0.3,0.3v1.4H53
			c0.2,0,0.4-0.1,0.5-0.3s0.2-0.4,0.2-0.6H54v2h-0.3c0-0.2-0.1-0.4-0.2-0.6c-0.1-0.2-0.3-0.3-0.5-0.3h-0.5v1.6
			c0,0.2,0.1,0.3,0.2,0.3c0.1,0,0.2,0.1,0.4,0.1v0.2h-2v-0.2c0.2,0,0.3,0,0.4-0.1c0.1-0.1,0.2-0.2,0.2-0.3v-3.2
			c0-0.3-0.2-0.4-0.6-0.4v-0.2h3.8l0.1,1.6H54.9z"/>
		<path class="st1" d="M57.4,139.5H57v1.7c0,0.1,0,0.2,0.1,0.2c0,0,0.1,0,0.2,0h0.3v0.2h-1.9v-0.2H56c0.1,0,0.2,0,0.2,0
			s0.1-0.1,0.1-0.2v-3.4c0-0.2-0.1-0.3-0.3-0.3h-0.4v-0.2H58c0.4,0,0.8,0.1,1,0.2c0.4,0.2,0.5,0.5,0.5,0.9c0,0.3-0.1,0.6-0.4,0.8
			c-0.2,0.2-0.6,0.3-1,0.4l0.8,1.5c0.1,0.3,0.4,0.4,0.7,0.4v0.3h-1.1L57.4,139.5z M57.3,137.5c-0.1,0-0.2,0-0.2,0.1
			c0,0-0.1,0.1-0.1,0.2v1.5h0.4c0.4,0,0.7,0,0.9-0.1c0.3-0.1,0.4-0.4,0.4-0.7s-0.1-0.5-0.2-0.6c-0.2-0.1-0.4-0.2-0.6-0.2h-0.6
			C57.3,137.7,57.3,137.5,57.3,137.5z"/>
		<path class="st1" d="M64.1,141.7h-3.9v-0.2c0.2,0,0.3,0,0.4-0.1c0.1-0.1,0.2-0.2,0.2-0.3v-3.3c0-0.2-0.1-0.3-0.4-0.3h-0.1
			c-0.1,0-0.1,0-0.1,0v-0.2H64l0.1,1.6h-0.2c-0.1-0.5-0.3-0.8-0.5-1s-0.6-0.3-1.1-0.3h-0.6c-0.2,0-0.3,0.1-0.3,0.3v1.4h0.5
			c0.4,0,0.7-0.3,0.7-0.9H63v2h-0.3c0-0.6-0.2-0.9-0.7-0.9h-0.5v1.6c0,0.2,0.1,0.4,0.3,0.4h0.7c0.4,0,0.7-0.1,1-0.4
			c0.2-0.3,0.4-0.6,0.5-1h0.2L64.1,141.7z"/>
		<path class="st1" d="M68.6,141.7h-3.9v-0.2c0.2,0,0.3,0,0.4-0.1s0.2-0.2,0.2-0.3v-3.3c0-0.2-0.1-0.3-0.4-0.3h-0.1
			c-0.1,0-0.1,0-0.1,0v-0.2h3.8l0.1,1.6h-0.2c-0.1-0.5-0.3-0.8-0.5-1s-0.6-0.3-1.1-0.3h-0.6c-0.2,0-0.3,0.1-0.3,0.3v1.4h0.5
			c0.4,0,0.7-0.3,0.7-0.9h0.3v2h-0.3c0-0.6-0.2-0.9-0.7-0.9h-0.5v1.6c0,0.2,0.1,0.4,0.3,0.4h0.7c0.4,0,0.7-0.1,1-0.4
			c0.2-0.3,0.4-0.6,0.5-1h0.2V141.7z"/>
	</g>
</g>
<g class="st0">
	<path class="st1" d="M12.5,136.9v2.4h1.1c0.3,0,0.4-0.1,0.6-0.2c0.1-0.1,0.2-0.3,0.2-0.7h0.2v2.1h-0.2c0-0.2,0-0.4-0.1-0.5
		s-0.1-0.2-0.2-0.2c-0.1-0.1-0.3-0.1-0.5-0.1h-1.1v1.9c0,0.3,0,0.5,0.1,0.6c0,0.1,0.1,0.1,0.2,0.2c0.1,0.1,0.3,0.1,0.4,0.1h0.2v0.2
		h-2.6v-0.2H11c0.3,0,0.4-0.1,0.5-0.2c0.1-0.1,0.1-0.3,0.1-0.7v-3.9c0-0.3,0-0.5-0.1-0.6c0-0.1-0.1-0.1-0.2-0.2
		c-0.1-0.1-0.3-0.1-0.4-0.1h-0.2v-0.2h4.5l0.1,1.3h-0.2c-0.1-0.3-0.2-0.5-0.3-0.6s-0.2-0.2-0.4-0.3s-0.4-0.1-0.7-0.1H12.5z"/>
	<path class="st1" d="M17.4,138.4v3.3c0,0.3,0,0.4,0.1,0.5c0,0.1,0.1,0.1,0.2,0.2c0.1,0,0.2,0.1,0.4,0.1v0.2h-2v-0.2
		c0.2,0,0.3,0,0.4-0.1c0.1,0,0.1-0.1,0.2-0.2c0-0.1,0.1-0.3,0.1-0.5v-1.6c0-0.4,0-0.7,0-0.9c0-0.1-0.1-0.2-0.1-0.2s-0.1-0.1-0.2-0.1
		s-0.2,0-0.3,0.1l-0.1-0.2L17.4,138.4L17.4,138.4L17.4,138.4z M17.1,136.2c0.1,0,0.2,0,0.3,0.1c0.1,0.1,0.1,0.2,0.1,0.3
		s0,0.2-0.1,0.3s-0.2,0.1-0.3,0.1c-0.1,0-0.2,0-0.3-0.1c-0.1-0.1-0.1-0.2-0.1-0.3s0-0.2,0.1-0.3C16.8,136.3,16.9,136.2,17.1,136.2z"
		/>
	<path class="st1" d="M19.8,139.2c0.5-0.6,0.9-0.9,1.4-0.9c0.2,0,0.4,0.1,0.6,0.2c0.2,0.1,0.3,0.3,0.4,0.6c0.1,0.2,0.1,0.5,0.1,0.8
		v1.7c0,0.3,0,0.4,0.1,0.5c0,0.1,0.1,0.1,0.2,0.2c0.1,0,0.2,0.1,0.4,0.1v0.2h-2v-0.2h0.1c0.2,0,0.3,0,0.4-0.1s0.1-0.1,0.2-0.3
		c0,0,0-0.2,0-0.4V140c0-0.4,0-0.6-0.1-0.8s-0.3-0.3-0.5-0.3c-0.4,0-0.7,0.2-1.1,0.6v2.2c0,0.3,0,0.4,0,0.5s0.1,0.1,0.2,0.2
		s0.2,0.1,0.4,0.1v0.2h-2v-0.2h0.1c0.2,0,0.3-0.1,0.4-0.2c0.1-0.1,0.1-0.3,0.1-0.6v-1.5c0-0.5,0-0.8,0-0.9c0-0.1-0.1-0.2-0.1-0.2
		S19,139,18.9,139s-0.2,0-0.3,0.1l-0.1-0.2l1.2-0.5h0.2v0.8L19.8,139.2L19.8,139.2z"/>
	<path class="st1" d="M27,136.9v2.4h1.1c0.3,0,0.4-0.1,0.6-0.2c0.1-0.1,0.2-0.3,0.2-0.7h0.2v2.1h-0.2c0-0.2,0-0.4-0.1-0.5
		s-0.1-0.2-0.2-0.2c-0.1-0.1-0.3-0.1-0.5-0.1H27v1.9c0,0.3,0,0.5,0.1,0.6c0,0.1,0.1,0.1,0.2,0.2c0.1,0.1,0.3,0.1,0.4,0.1h0.2v0.2
		h-2.6v-0.2h0.2c0.3,0,0.4-0.1,0.5-0.2c0.1-0.1,0.1-0.3,0.1-0.7v-3.9c0-0.3,0-0.5-0.1-0.6c0-0.1-0.1-0.1-0.2-0.2
		c-0.1-0.1-0.3-0.1-0.4-0.1h-0.2v-0.2h4.5l0.1,1.3h-0.2c-0.1-0.3-0.2-0.5-0.3-0.6c-0.1-0.1-0.2-0.2-0.4-0.3
		c-0.2-0.1-0.4-0.1-0.7-0.1H27z"/>
	<path class="st1" d="M31.7,138.4v0.9c0.3-0.6,0.7-0.9,1.1-0.9c0.2,0,0.3,0.1,0.4,0.2c0.1,0.1,0.2,0.2,0.2,0.3s0,0.2-0.1,0.3
		s-0.2,0.1-0.3,0.1s-0.2-0.1-0.4-0.2c-0.1-0.1-0.2-0.2-0.3-0.2s-0.1,0-0.2,0.1c-0.1,0.1-0.3,0.3-0.4,0.6v2c0,0.2,0,0.4,0.1,0.5
		c0,0.1,0.1,0.1,0.2,0.2c0.1,0.1,0.2,0.1,0.4,0.1v0.2h-2.1v-0.2c0.2,0,0.4,0,0.5-0.1c0.1,0,0.1-0.1,0.2-0.2c0-0.1,0-0.2,0-0.4v-1.6
		c0-0.5,0-0.8,0-0.9c0-0.1-0.1-0.2-0.1-0.2c-0.1,0-0.1-0.1-0.2-0.1s-0.2,0-0.3,0.1v-0.2L31.7,138.4L31.7,138.4L31.7,138.4z"/>
	<path class="st1" d="M34.3,140c0,0.6,0.1,1.1,0.4,1.4c0.3,0.3,0.6,0.5,1.1,0.5c0.3,0,0.5-0.1,0.7-0.2c0.2-0.1,0.4-0.4,0.5-0.8
		l0.1,0.1c-0.1,0.4-0.2,0.8-0.5,1.1s-0.7,0.5-1.1,0.5c-0.5,0-0.9-0.2-1.3-0.6c-0.4-0.4-0.5-0.9-0.5-1.5c0-0.7,0.2-1.2,0.5-1.6
		c0.4-0.4,0.8-0.6,1.4-0.6c0.5,0,0.8,0.2,1.1,0.5s0.4,0.7,0.4,1.2L34.3,140L34.3,140z M34.3,139.8h1.9c0-0.3,0-0.4-0.1-0.6
		c-0.1-0.2-0.2-0.3-0.3-0.4s-0.3-0.1-0.5-0.1s-0.5,0.1-0.7,0.3S34.3,139.4,34.3,139.8z"/>
	<path class="st1" d="M38.4,140c0,0.6,0.1,1.1,0.4,1.4c0.3,0.3,0.6,0.5,1.1,0.5c0.3,0,0.5-0.1,0.7-0.2c0.2-0.1,0.4-0.4,0.5-0.8
		l0.1,0.1c-0.1,0.4-0.2,0.8-0.5,1.1s-0.7,0.5-1.1,0.5c-0.5,0-0.9-0.2-1.3-0.6c-0.4-0.4-0.5-0.9-0.5-1.5c0-0.7,0.2-1.2,0.5-1.6
		c0.4-0.4,0.8-0.6,1.4-0.6c0.5,0,0.8,0.2,1.1,0.5s0.4,0.7,0.4,1.2L38.4,140L38.4,140z M38.4,139.8h1.9c0-0.3,0-0.4-0.1-0.6
		c-0.1-0.2-0.2-0.3-0.3-0.4s-0.3-0.1-0.5-0.1s-0.5,0.1-0.7,0.3C38.5,139.2,38.4,139.4,38.4,139.8z"/>
	<path class="st1" d="M48.1,136.7v-0.2h2.1v0.2H50c-0.2,0-0.4,0.1-0.6,0.3c-0.1,0.1-0.1,0.3-0.1,0.6v2.5c0,0.6-0.1,1.1-0.2,1.4
		c-0.1,0.3-0.4,0.6-0.7,0.9c-0.4,0.2-0.8,0.4-1.4,0.4c-0.7,0-1.2-0.1-1.5-0.3s-0.6-0.5-0.7-0.9c-0.1-0.3-0.1-0.8-0.1-1.5v-2.4
		c0-0.4-0.1-0.6-0.2-0.7c-0.1-0.1-0.3-0.2-0.5-0.2h-0.2v-0.2h2.6v0.2h-0.2c-0.3,0-0.4,0.1-0.5,0.2c-0.1,0.1-0.1,0.3-0.1,0.7v2.6
		c0,0.2,0,0.5,0.1,0.8c0,0.3,0.1,0.5,0.2,0.7c0.1,0.2,0.3,0.3,0.5,0.4c0.2,0.1,0.5,0.2,0.8,0.2c0.4,0,0.8-0.1,1.1-0.3
		s0.5-0.4,0.6-0.7s0.2-0.7,0.2-1.4v-2.5c0-0.4,0-0.6-0.1-0.7c-0.1-0.1-0.3-0.2-0.5-0.2L48.1,136.7L48.1,136.7z"/>
	<path class="st1" d="M51.8,139.2c0.5-0.6,0.9-0.9,1.4-0.9c0.2,0,0.4,0.1,0.6,0.2c0.2,0.1,0.3,0.3,0.4,0.6c0.1,0.2,0.1,0.5,0.1,0.8
		v1.7c0,0.3,0,0.4,0.1,0.5c0,0.1,0.1,0.1,0.2,0.2c0.1,0,0.2,0.1,0.4,0.1v0.2h-2v-0.2l0,0c0.2,0,0.3,0,0.4-0.1
		c0.1-0.1,0.1-0.1,0.2-0.3c0,0,0-0.2,0-0.4V140c0-0.4,0-0.6-0.1-0.8s-0.3-0.3-0.5-0.3c-0.4,0-0.7,0.2-1.1,0.6v2.2c0,0.3,0,0.4,0,0.5
		s0.1,0.1,0.2,0.2s0.2,0.1,0.4,0.1v0.2h-2v-0.2h0.1c0.2,0,0.3-0.1,0.4-0.2c0.1-0.1,0.1-0.3,0.1-0.6v-1.5c0-0.5,0-0.8,0-0.9
		c0-0.1-0.1-0.2-0.1-0.2s-0.1-0.1-0.2-0.1c-0.1,0-0.2,0-0.3,0.1l-0.1-0.2l1.2-0.5h0.2L51.8,139.2L51.8,139.2z"/>
	<path class="st1" d="M56.6,138.4v3.3c0,0.3,0,0.4,0.1,0.5c0,0.1,0.1,0.1,0.2,0.2c0.1,0,0.2,0.1,0.4,0.1v0.2h-2v-0.2
		c0.2,0,0.3,0,0.4-0.1c0.1,0,0.1-0.1,0.2-0.2c0-0.1,0.1-0.3,0.1-0.5v-1.6c0-0.4,0-0.7,0-0.9c0-0.1-0.1-0.2-0.1-0.2s-0.1-0.1-0.2-0.1
		c-0.1,0-0.2,0-0.3,0.1l-0.1-0.2L56.6,138.4L56.6,138.4L56.6,138.4z M56.3,136.2c0.1,0,0.2,0,0.3,0.1s0.1,0.2,0.1,0.3s0,0.2-0.1,0.3
		s-0.2,0.1-0.3,0.1s-0.2,0-0.3-0.1s-0.1-0.2-0.1-0.3s0-0.2,0.1-0.3C56,136.3,56.1,136.2,56.3,136.2z"/>
	<path class="st1" d="M59,137.1v1.3h1v0.3h-1v2.7c0,0.3,0,0.4,0.1,0.5s0.2,0.1,0.3,0.1s0.2,0,0.3-0.1s0.2-0.2,0.2-0.3H60
		c-0.1,0.3-0.3,0.5-0.4,0.7c-0.2,0.1-0.4,0.2-0.6,0.2c-0.1,0-0.3,0-0.4-0.1c-0.1-0.1-0.2-0.2-0.3-0.3s-0.1-0.4-0.1-0.7v-2.8h-0.6
		v-0.1c0.2-0.1,0.3-0.2,0.5-0.3c0.2-0.2,0.3-0.3,0.5-0.6c0.1-0.1,0.2-0.3,0.3-0.6H59V137.1z"/>
	<path class="st1" d="M61,140c0,0.6,0.1,1.1,0.4,1.4c0.3,0.3,0.6,0.5,1.1,0.5c0.3,0,0.5-0.1,0.7-0.2c0.2-0.1,0.4-0.4,0.5-0.8
		l0.1,0.1c-0.1,0.4-0.2,0.8-0.5,1.1s-0.7,0.5-1.1,0.5c-0.5,0-0.9-0.2-1.3-0.6c-0.4-0.4-0.5-0.9-0.5-1.5c0-0.7,0.2-1.2,0.5-1.6
		c0.4-0.4,0.8-0.6,1.4-0.6c0.5,0,0.8,0.2,1.1,0.5s0.4,0.7,0.4,1.2L61,140L61,140z M61,139.8h1.9c0-0.3,0-0.4-0.1-0.6
		c-0.1-0.2-0.2-0.3-0.3-0.4s-0.3-0.1-0.5-0.1s-0.5,0.1-0.7,0.3C61.2,139.2,61,139.4,61,139.8z"/>
	<path class="st1" d="M67.3,142.1c-0.2,0.2-0.4,0.4-0.6,0.4c-0.2,0.1-0.4,0.1-0.6,0.1c-0.4,0-0.8-0.2-1.2-0.6
		c-0.3-0.4-0.5-0.9-0.5-1.4s0.2-1.1,0.6-1.6s0.8-0.7,1.4-0.7c0.4,0,0.7,0.1,0.9,0.3V138c0-0.5,0-0.8,0-0.9c0-0.1-0.1-0.2-0.1-0.2
		s-0.1-0.1-0.2-0.1s-0.2,0-0.3,0.1l-0.1-0.2l1.2-0.5H68v4.7c0,0.5,0,0.8,0,0.9c0,0.1,0.1,0.2,0.1,0.2s0.1,0.1,0.2,0.1s0.2,0,0.3-0.1
		v0.2l-1.2,0.5h-0.2L67.3,142.1L67.3,142.1z M67.3,141.8v-2.1c0-0.2-0.1-0.4-0.2-0.6c-0.1-0.2-0.2-0.3-0.4-0.4
		c-0.1-0.1-0.3-0.1-0.4-0.1c-0.3,0-0.5,0.1-0.7,0.4c-0.3,0.3-0.4,0.8-0.4,1.4c0,0.6,0.1,1.1,0.4,1.4c0.3,0.3,0.6,0.5,0.9,0.5
		C66.8,142.2,67,142.1,67.3,141.8z"/>
</g>
<g class="st0">
	<path class="st4" d="M382.4,118.1c-4.2,4.5-10.2,5.6-18.9,4.7c-10.2-1.1-20.7-5.5-31.8-8.6c-15.9-4.5-32.4-7.9-52.7-7.2
		c-15.6,0.5-26.7,5.4-40,11.4c1.8-6.5,9.4-10.5,16-13.8c12.6-6.3,24.8-8.2,44.6-6.4c12.8,1.2,25,4.8,36.1,8.8
		C351.2,112.4,363.3,121.2,382.4,118.1z"/>
	<path class="st4" d="M403.1,125.7c-1.4,6.1-8,9.2-13.8,11.8c-20.1,9.2-44.2,1.5-62.4-6.5c-6.7-3-12.6-6.5-22.8-6.7
		c2.5-2.8,6.8-3.1,13.5-2.2c6.8,0.9,14,4.3,21.7,6.7c10.4,3.2,21,5.9,34.6,5.5C385.1,133.9,393,130.5,403.1,125.7z"/>
	<path class="st5" d="M380.7,3.7c-0.7,2.9-4,4.2-6.1,5.7c-0.7,0.5-1.4,1-2.2,1.6c-0.7,0.5-1.3,1-2,1.6c-0.9-0.2-1.8-0.3-2.7-0.3
		l-2.8,0.2c-1.1,0-2.2,0-3.3,0.1l0,0c0.5,1.6,2.2,2.8,4.2,3.8c-3.4,3-6.7,6.2-10,9.4c-5,0.5-9.7-1.9-13.9-0.5
		c1.2,4.6,7.4,4.4,9.3,8.3c-3,7.6-6.3,16-7.3,25.4c-0.1,1.1-0.2,2.2-0.3,3.3c-0.1,2.8-0.1,5.6,0.2,8.3v0.1c0.1,0.9,0.2,1.7,0.3,2.6
		c0,0.1,0,0.1,0,0.2c0.1,0.8,0.2,1.7,0.4,2.5c0,0.1,0,0.1,0,0.2c0.1,0.8,0.3,1.7,0.5,2.5c0,0.1,0,0.1,0,0.2c0.2,0.8,0.4,1.7,0.6,2.5
		v0.1c0.6,2.5,1.3,4.9,2.1,7.3v0.1c0.1,0.2,0.1,0.3,0.2,0.5c5,10.9,13.6,14.7,13.6,14.7c-7.3-0.8-13.4-3-16.1-4.3
		c-5.9-2-12.1-5-18.8-7.1c-17.1-5.3-44-9-61.9-3.3c-3.1,1-6,2.6-8.7,4c-2.5,1.2-5.1,3.5-8.1,2.9C252.2,70,268,48.1,285,30.9
		c17.6-18,41-29.6,70.7-30.8C364-0.2,373.9,0.2,380.7,3.7z M294.1,31.9c-21.3,17.2-33.2,44.1-34.7,48.8c0,0.1-0.1,0.1-0.1,0.2l0,0
		c-0.1,0.3-0.1,0.5-0.1,0.5l0.1,0.4h0.4l0.3-0.1l0.2-0.3c15.9-27.9,34.4-48.5,34.5-48.7L294.1,31.9z"/>
</g>
</svg>
