<?xml version="1.0" encoding="utf-8"?>
<!-- Generator: Adobe Illustrator 20.0.0, SVG Export Plug-In . SVG Version: 6.00 Build 0)  -->
<svg version="1.1" id="Capa_1" xmlns="http://www.w3.org/2000/svg" xmlns:xlink="http://www.w3.org/1999/xlink" x="0px" y="0px"
	 viewBox="0 0 418.7 429" style="enable-background:new 0 0 418.7 429;" xml:space="preserve">
<style type="text/css">
	.st0{fill:#FAA12E;}
	.st1{fill:#231815;}
</style>
<g>
	<path class="st0" d="M74.5,284.9c41.1-20.4,76.7-30.7,106.6-30.7c12.7,0,25.1,1.9,37.2,5.7c12.1,3.8,22.1,8,30.1,12.5
		s17.4,8.7,28.3,12.5s21.6,5.7,32.2,5.7c26.8,0,58.8-10.1,96.2-30.3c4.7-2.4,8.1-4.8,10.3-7.2c2.2-2.3,3.3-5.7,3.3-10v-199
		c0-4.5-1.6-8.4-4.9-11.7c-3.3-3.3-7.2-5-11.8-5c-2.2,0-7,1.8-14.2,5.5c-7.2,3.7-14.9,7.7-23,12.3c-8.1,4.5-17.7,8.6-28.7,12.3
		c-11,3.6-21.2,5.5-30.6,5.5c-8.7,0-16.3-1.7-23-5c-21.9-10.3-41-17.9-57.1-23c-16.2-5-33.6-7.6-52.2-7.6
		c-32.1,0-68.8,10.5-109.8,31.3c-8.5,4.2-14.5,7.5-18.5,9.9L74.5,284.9z"/>
	<path class="st1" d="M52.4,73l-2.8-20.5C55.9,47,60,39,60,30C60,13.4,46.6,0,30,0S0,13.4,0,30c0,10.8,5.8,20.2,14.3,25.5L66,413.8
		c1.2,8.8,8.8,15.2,17.4,15.2c0.8,0,1.6-0.1,2.4-0.1c9.6-1.3,16.4-10.2,15.1-19.9L73.4,228.2L52.4,73z"/>
</g>
</svg>
