<?xml version="1.0" encoding="utf-8"?>
<!-- Generator: Adobe Illustrator 20.0.0, SVG Export Plug-In . SVG Version: 6.00 Build 0)  -->
<svg version="1.1" id="連署_拷貝" xmlns="http://www.w3.org/2000/svg" xmlns:xlink="http://www.w3.org/1999/xlink" x="0px"
	 y="0px" viewBox="0 0 76 76.9" style="enable-background:new 0 0 76 76.9;" xml:space="preserve">
<style type="text/css">
	.st0{fill:#FFFFFF;}
</style>
<g>
	<path class="st0" d="M16.3,38.2L16.3,38.2c-1,0-1.2,0.6-1.5,1.1c-0.2,0.4-0.3,0.7-0.7,0.9c-0.2,0.2-0.6,0.3-0.9,0.4
		c-0.6,0.2-1.2,0.4-1.4,1.1l0,0.1l0.1,0.1c1.1,0.7,1.7,0.3,2.4-0.2c0.5-0.3,0.9-0.7,1.6-0.6l0-0.1L16,41l0,0c-0.6,2.3-1.4,5-3.9,5.6
		L12,46.5c-0.2-0.7-0.5-1.3-0.9-1.9l0.1,0l0-0.1l0.1,0c-0.3-0.8-1.2-1.2-1.7-1.5c0,0-0.1-0.1-0.1-0.2c-0.1-0.2-0.1-0.3-0.2-0.4
		c-0.4-0.2-1.1-0.2-1.7-0.3c-0.7-0.1-2.3-0.1-3.4,0.3c-0.1,0-0.2,0.1-0.3,0.3C3.7,42.8,3.6,43,3.6,43c-0.2,0.1-0.3,0.1-0.5,0.1
		c-0.2,0-0.4,0-0.6,0.2c-1.8,1.3-2.8,4.4-2.3,6.8c0.5,2.4,3,3.6,5.3,4.5c-0.3,0.4-0.6,0.7-0.9,1c-0.5,0.4-0.9,0.8-1,1.7
		c-0.1,1.2,0.3,2.3,1.2,3c1,0.7,2.3,0.9,3.4,0.5c0.6-0.2,1.6-1,1.8-1.9c0.1-0.5-0.1-1-0.6-1.4l-0.2-0.2l0,0.2
		C8.9,59,8,59.4,7.3,59.3c-0.9-0.1-1.7-0.9-1.6-2.2c0-0.3,0.6-1.1,0.8-1.3c1.1-1.5,1.9-1.2,3.8-0.6l0.3,0.1l0-0.1l0.1,0.1l0.2-0.2
		c1.5,0.9,2.4,2.3,2.6,4.1c0.3,2.3-0.5,4.7-2.1,6.4l-0.1-0.1l-0.1,0.1l-0.1-0.1c-1.3,0.7-2.6,1.4-4.9,1.1c0-0.8-0.4-1.2-0.8-1.7
		c-0.1-0.2-0.3-0.3-0.4-0.5L5,64.4c-0.5-1-1-2.1-2-2.8v0l0.1-0.1c-0.2-0.4-0.4-0.7-0.6-1c-0.7-1-1.3-2-1-3.9l-0.1,0l-0.1-0.1l0,0
		c0,0,0-0.1,0-0.1c0.1-0.3,0.2-0.6,0.1-0.9l-0.2,0.1c0.1,0.3,0,0.5-0.1,0.8c0,0.1-0.1,0.2-0.1,0.3l-0.1-0.1l-0.1,0.1l-0.1-0.1
		c-1,1.8-0.6,5.1,0.3,6.6L1.1,63l0.1,0.1L1.3,63c0.3,1.1,1,2.1,1.8,2.9l-0.1,0l0,0.1l-0.1,0c0.2,0.6,0.9,0.8,1.4,1.1
		c0.3,0.1,0.5,0.2,0.8,0.4c0,2.7-1.2,4.5-3.6,5.4l-0.1,0l0,0.1c0.1,0.7,0.1,1.2,0,1.7c-0.1,0.6-0.1,1.2,0.2,1.9l0.1,0.1L2,76.8
		c2.9-2,4.5-4.9,4.8-8.9c2.4,0.1,4.1-0.6,5-2l-0.1-0.1l0-0.1l-0.1,0c1.6-1.7,2.4-4.2,2.1-6.5c-0.2-1.8-1.1-3.3-2.6-4.2l0-0.1
		l0.1-0.1c-1.1-1-2.6-1.4-4-1.7c-1.7-0.4-3.2-0.8-4.1-2.2c-1.5-2.5-0.5-5,1-6.3c1.4-1.2,3.9-1.8,6.4,0.3l0.1-0.1l0.1,0.1l0.1-0.1
		c0.4,0.5,0.7,1.2,0.9,1.9c0,0.1,0,0.1-0.1,0.2c-0.1,0.2-0.1,0.4-0.2,0.6c-0.5,0.3-1.1,0.3-1.7,0.4c-0.4,0-0.8,0.1-1.2,0.2
		c-0.4-0.4-0.9-0.6-1.4-0.8c-0.6-0.2-1.1-0.5-1.4-0.9l-0.2,0.2c0.4,0.5,1,0.7,1.5,1c0.4,0.2,0.9,0.4,1.3,0.7
		c-0.3,0.4-0.7,0.6-1.2,0.8C7,49,6.7,49.1,6.5,49.3l0.1,0.2c0.2-0.2,0.5-0.3,0.7-0.4c0.5-0.2,1-0.4,1.3-0.9C9,48.1,9.4,48,9.8,48
		c0.6-0.1,1.1-0.1,1.7-0.4c0.2,1.4-0.4,2.9-1.5,4.1l0.2,0.2c1.2-1.3,1.8-2.9,1.6-4.4c0.1-0.2,0.1-0.4,0.2-0.6c0,0,0-0.1,0-0.1
		l0.2,0.1l0,0c2.7-0.7,3.5-3.6,4.1-5.9l0.1,0.1l0.1-0.1l0.1,0c0-0.3,0-0.5,0.1-0.7C16.7,39.5,16.8,39.1,16.3,38.2L16.3,38.2z"/>
	<path class="st0" d="M22,32.1L22,32.1c0.1-0.1,0.1-0.3,0.2-0.4L22,31.6c-0.1,0.2-0.2,0.4-0.2,0.6l-0.1-0.1l-0.1,0.1l-0.1-0.1
		c-1.5,1.4-3,2.2-4.7,2.2c-0.7,0-2.8-0.4-3.3-0.6c-0.6-0.2-1.1-0.7-1.7-1.2c-0.5-0.5-1.1-1-1.6-1.3c-0.8-0.4-1.5-0.4-2.4-0.3
		C7.2,31,6.6,31,6,31c-0.3-1.2-0.8-2.3-1.3-3.4c-0.8-1.9-1.6-3.8-1.8-6.3l0-0.3l-0.2,0.3c-0.8,1.1-1.7,3.5-0.9,5.3
		c-0.9,0.7-1.7,2.2-1.4,3.3c0.1,0.5,0.5,1.1,1.6,1.4l0,0l0,0c0.5-0.2,0.7-0.7,0.9-1.1c0.1-0.3,0.2-0.6,0.4-0.8
		c0.6,0.5,1.5,1.3,1.3,2.6c-0.1,0.3-0.5,0.6-1,1c-0.5,0.3-1.1,0.7-1.5,1.2c-0.1,0.2-0.2,0.5-0.4,0.9c-0.1,0.2-0.1,0.4-0.2,0.6
		c-0.7,1.6-0.7,3.3,0,4.9c0,0,0,0.1,0.1,0.2c0.1,0.4,0.3,1,0.7,1.1c0,0,0.1,0,0.1,0c0.1,0,0.3-0.1,0.4-0.2l0.2-0.2l-0.3,0
		c-0.1,0-0.1,0-0.1,0c0,0,0.1-0.2,0.1-0.2c0.1-0.2,0.3-0.6,0.1-1C3.4,39.6,4,39.3,4.7,39c1.2-0.5,2.4-1.1,2.4-2.8l0-0.1L7,36
		c-0.4-0.1-0.8,0.2-1.1,0.5c-0.2,0.2-0.4,0.4-0.6,0.3c-0.1,0-0.1-0.1-0.2-0.1c0.3-0.7,0.5-1.5,0.7-2.3C6,33.6,6.2,32.7,6.5,32
		c1.7-0.2,3,0.3,3.7,1.6c0.8,1.4,1.1,2.8,0.6,3.5c-0.3,0.5-1,0.8-1.9,0.7l0,0.1L8.8,38l-0.1,0.1c-0.2-0.6-0.3-1.1-0.2-1.7l-0.3,0
		c-0.1,0.6,0,1.2,0.3,1.8l-0.2,0l0,0.1l-0.1,0.1c0.6,1.1,1.7,1.6,2.8,1.1c1.3-0.5,2.2-2.2,1.7-4.3c0.4,0.2,0.7,0.5,1.1,0.8
		c0.6,0.6,1.3,1.2,2.7,1.1l0.1,0c0.5-0.3,0.3-0.6,0.2-0.9c0-0.1-0.1-0.2-0.1-0.2c0,0,0,0,0.1,0c2.9,0.1,4.7-1.2,5.4-3.7l-0.1,0
		L22,32.1z"/>
	<path class="st0" d="M26.1,24.4c0-0.3,0.2-0.5,0.3-0.7c0.2-0.4,0.5-0.7,0.3-1.6l0,0l0,0c-1.4-1.1-2.6-2.6-3.6-4.4l-0.1,0.1
		l-0.1-0.1l-0.1,0v-0.9h0.1c1,0.1,1.5-0.3,2-0.7c0.2-0.2,0.4-0.3,0.6-0.5l0,0l0-0.1c0.3-1.1-0.1-2-0.4-2.6c-0.2-0.5-0.4-1-0.3-1.4
		c0.2,0.1,0.3,0.1,0.4,0.2c0.2,0.1,0.4,0.2,0.6,0.3l0-0.1l0.1,0l0-0.1c0.2,0.1,0.3,0.2,0.5,0.3c1.1,0.8,2.2,1.6,3.4,2l0.1-0.2
		c-1.2-0.4-2.3-1.2-3.3-1.9c-0.2-0.1-0.4-0.3-0.5-0.4l0.1-0.1l-0.1-0.1l0.1,0c0-0.1,0.1-0.1,0.2-0.2c0.1-0.1,0.3-0.1,0.3-0.3
		c0.6-0.2,1.3-0.4,1.7-1l0-0.1c0.1-0.4,0.1-0.8,0-1l0-0.1c-0.1-0.1-0.2-0.2-0.3-0.3l0,0l0,0c-0.2,0-0.5-0.1-0.8-0.1l0,0l0,0
		c0,0-0.1,0-0.1,0.1c-0.1,0.1-0.3,0.2-0.4,0.2L27,8.7c0.2-0.1,0.3-0.1,0.5-0.2c0,0,0.1,0,0.1-0.1c0.2,0,0.5,0,0.7,0
		c0.1,0.1,0.1,0.2,0.2,0.2c0.1,0.2,0.1,0.5,0,0.8c-0.5,0.6-1.1,0.8-1.8,0.9v-0.1h-0.1l0.1-0.1c-0.6-0.5-1.3-0.3-2-0.2
		c-0.4,0.1-0.8,0.2-1.2,0.2l0,0.1l-0.1-0.1l-0.1,0V9.9l0.1,0l0.1-0.1l0.1,0.1c0.9-0.7,1.2-1.4,1.1-2.1c-0.3-1.6-3.2-2.7-4.9-3.3
		l-0.2-0.1c-0.2-0.1-0.4-0.1-0.6-0.2c-0.8-0.2-1.3-0.3-1.2-0.8c0.1-0.3,0.3-0.5,0.5-0.8C18.6,2.4,19,2,18.8,1.1l0-0.1l-0.1,0
		c-1.8-0.1-3,0.4-4.2,0.9c-0.6,0.3-1.3,0.6-2,0.7l0,0.1h-0.1V3c-0.3,0-0.7-0.1-1-0.2c-0.5-0.1-1-0.2-1.5-0.2
		c0.1-0.2,0.3-0.4,0.5-0.5c0.3-0.2,0.7-0.5,0.6-1.2l0-0.1l-0.1,0c-1.1-0.6-2,0-2.9,0.5C7.6,1.5,7.3,1.8,6.9,1.9L7,2L6.9,2.1l0.1,0.1
		c-0.6,0-1.2,0-1.9-0.1C4.6,2.1,4.2,2,3.8,2l0,0.3c0.4,0,0.9,0,1.3,0.1c0.6,0.1,1.2,0.1,1.9,0.1l0,0.1L7,2.6l0,0.1
		c0.8-0.1,1.3,0,1.8,0.1C9.1,2.9,9.4,2.9,9.8,3l0-0.1l0,0c0.5,0,1.1,0.1,1.6,0.2c0.3,0,0.6,0.1,0.9,0.1l0,0c0.3,0.1,0.7,0.2,1.1,0.3
		c4.1,1.1,8.3,2.3,9.5,6.3l0.1,0L23,9.9l0.1,0v0.4l-0.1,0l-0.1,0.1h-0.1c0,0.3,0,0.7,0,1c0,1.9,0,3.8-0.6,5.1l0.1,0.1v0.1h0.2v0.9
		l-0.1,0l-0.1,0.1l-0.1,0c-0.1,0.9,0.1,1.8,0.3,2.7c0.2,1.2,0.4,2.3,0.1,3.3c-1.4-0.5-4.1-0.9-5.6-0.2l0.1,0.1l-0.1,0.1l0,0.1h-1
		l0-0.1l-0.1-0.1l0-0.1c-0.8,0-1.5,0.1-2.3,0.3c-1.1,0.2-2.2,0.4-3.3,0l0,0.1l-0.1,0c-0.1-0.1-0.3-0.1-0.4-0.2l0.1-0.1l-0.1-0.1
		l0.1-0.1C5.6,21,3.6,17.5,3.5,12.6l-0.1,0l-0.1-0.1l-0.1,0c0-0.4-0.1-0.8-0.2-1.2l0.1-0.1l0.1,0c0.4-2.1-0.1-5.7-0.8-7.9L2.1,2.6
		l0,0.8c0,1.7-0.5,3-1,4.3c-0.4,1.1-0.9,2.2-1,3.6l0,0.1l0,0c0.4,0.4,0.9,0.3,1.3,0.2c0.3-0.1,0.6-0.2,1-0.1l0-0.1l0.1,0.1l0.2-0.1
		c0.1,0.4,0.3,0.8,0.2,1.3l-0.1-0.1l-0.1,0.1l-0.1-0.1c-0.1,0.2-0.2,0.3-0.2,0.5c-0.9,2-2.3,4.9-0.9,6.6l0,0l0.1,0
		c0.6,0,0.9-0.2,1.1-0.5c0.3-0.2,0.5-0.4,1-0.4c0.2,0.4,0.3,0.8,0.5,1.2c0.8,2,1.5,4,3.2,5.2l0,0l0,0c0.7,0,1-0.3,1.3-0.6
		c0.3-0.3,0.5-0.5,1-0.5l0-0.1L9.9,24l0-0.1c0.1,0,0.2,0.1,0.3,0.1c0,0,0.1,0,0.1,0.1l-0.1,0.2l0.1,0.1l-0.1,0.1
		c0.3,0.3,0.2,0.6-0.1,1c-0.2,0.4-0.5,1-0.2,1.8l0.1,0l0,0.1l0.3,0.1c0,0.8-0.7,1.6-1.3,1.7c-0.4,0.1-0.7-0.2-0.8-0.7L8,28.5
		c0.2,0.6,0.6,1,1.1,0.9c0.6-0.1,1.3-0.8,1.5-1.6l0,0l0,0.1c0.1,0,0.2-0.1,0.3-0.1c0.2-0.1,0.2-0.1,0.4,0.1l0.1-0.1l0.1,0l0,0
		c0.8,1,1.4,2.2,1.9,3.4c0.1,0.3,0.3,0.6,0.4,0.9l0.2-0.1c-0.1-0.3-0.3-0.6-0.4-0.9c-0.6-1.3-1.1-2.6-2-3.6l0.1-0.1l-0.1-0.1l0.1,0
		c0-0.5-0.2-0.7-0.3-0.9c-0.2-0.2-0.3-0.5-0.3-0.9c0.8-0.1,1.4,0.2,2,0.4c0.8,0.3,1.6,0.7,2.7,0.1l0.1,0v-1.8h-0.1L16,24l0-0.1h1
		l0,0.1l0.1,0.1l0,0.1c1.5,0.1,2.3,0.7,3.1,1.4c0.7,0.6,1.4,1.1,2.5,1.4l0,0l0,0c0.3-0.1,0.4-0.3,0.5-0.5c0.1-0.3,0.2-0.4,0.6-0.3
		l0,0c0.7,0.6,1.9,1.7,3.2,0.8l0,0l0-0.1c0.1-0.8-0.2-1.2-0.4-1.6C26.3,25,26.2,24.7,26.1,24.4z"/>
	<path class="st0" d="M16.8,28.9c-0.2,0.6-0.1,1.3,0.4,1.8c0.3,0.4,0.8,0.5,1.2,0.5l0,0l0.1,0.1l0,0.1c0.1,0,0.1,0,0.2,0
		c0.6,0,1.1-0.3,1.3-0.7c0.3-0.5,0.3-1.2-0.1-1.7c-0.4-0.5-1-0.7-1.7-0.6l-0.1,0l0,0.1c0,0.5,0.2,0.8,0.5,1c0.2,0.2,0.3,0.3,0.4,0.6
		c-0.3,0.1-0.4,0.4-0.5,0.6l0.1,0.1l-0.1,0.1l0.1,0.1c-0.4,0.1-0.7-0.1-1-0.4C17,30.2,16.8,29.5,17,29L16.8,28.9z"/>
	<path class="st0" d="M4.7,12.8L4.4,13L4.7,13c0.2,0,0.3,0.1,0.4,0.2c0.1,0.2,0,0.6-0.1,0.9c0,0.1-0.1,0.3-0.1,0.4l0,0.2l0.2,0
		c0.6-0.1,0.9,0.1,1.2,0.3c0.1,0.1,0.2,0.2,0.4,0.3l0.1,0l0.1-0.1c0.6-0.8,1-1.6,1.1-2.9C8,12,7.9,11.5,7.8,11
		c-0.1-0.8-0.2-1.4,0.2-1.6c1.1,1.4,2.3,3.3,1.9,5.1c0,0.1-0.4,0.9-0.5,1.1c-0.3,0.3-0.7,0.6-1.1,0.8c-0.4,0.2-0.9,0.5-1.1,0.9
		L7,17.4l0.2,0.1c0.3,0.1,0.2,0.6,0.2,1c0,0.5-0.1,1.1,0.3,1.2l1.8,0l0-0.1c0.9-1.4,1.1-3.3,1.4-5.2c0.1-0.7,0.2-1.4,0.3-2h0.2v-0.1
		l0.1,0.1l0.1-0.1c0.3,0.4,0.7,0.8,1.2,1.2l-0.1,0.1l0.1,0.1l-0.1,0c0.2,0.8,0.7,1.2,1.1,1.5c0.2,0.2,0.4,0.4,0.4,0.5
		c0,0.2-0.1,0.3-0.3,0.6c-0.1,0.1-0.1,0.1-0.2,0.2c-0.2,0.2-0.2,0.2-0.4,0.7C13,18.2,13,18.8,13,19.5c0,0.3,0,0.6,0,1
		c-0.2,0.2-0.4,0.3-0.7,0.5c-0.4,0.2-0.9,0.4-1,0.9l0,0.1l0.1,0c0.6,0.3,1.4,0.3,2.2,0.3c0.3,0,0.6,0,0.9,0l0.1,0l0,0
		c0.5-0.6,0.3-1.5,0.2-2.3c-0.2-0.8-0.3-1.5,0.2-1.8c0.1,0.1,0.1,0.3,0.2,0.4c0.3,0.7,0.7,1.4,1.1,2l0,0l0,0c0.5,0.2,1,0.1,1.6,0.1
		c0.7-0.1,1.4-0.1,2,0.2l0.2,0.1l0-0.2c0-0.4,0-0.7,0-1.1c0-1,0-2.1-0.3-2.9l0,0c-0.2-0.2-0.6-0.3-0.9-0.3c-0.3,0-0.6-0.1-0.8-0.2
		l-0.1,0.1H18v0c-0.1-0.1-0.2-0.1-0.4-0.2c-0.2-0.1-0.5-0.2-0.6-0.4h0.1v-0.4c0.3,0,0.6,0,0.9,0c1.3,0,2.6,0,3.3-0.6l0,0l0-0.1
		c0-0.2,0-0.5,0-0.7c0-0.9,0-1.9-0.6-2.2l-0.2-0.1l0,0.2c0,0.9-0.3,1.4-1,1.8H17l-0.1,0c-0.3,0.2-0.5,0.4-0.7,0.6
		c-0.3,0.3-0.6,0.6-1.1,0.7c-0.5-0.8-1.2-1.4-1.9-1.9l-0.1,0.1l-0.1,0l0,0.1c-0.4-0.4-0.8-0.7-1.1-1.1l0.1,0l0-0.1l0.1,0
		c0-0.2-0.1-0.3-0.2-0.4c-0.1-0.1-0.1-0.2-0.1-0.3c0,0,0.1,0,0.1,0c0.2,0,0.5-0.1,0.5-0.4l-0.1,0l0.1-0.1l0-0.1c0.2,0,0.4,0,0.6,0
		c0.3,0,0.6,0,1,0l0,0.1l0.1,0.1l0,0.1c2.1,0,3.8-0.6,4.8-1.7L19,9.2l-0.2-0.1C18.5,9.1,18.4,9,18.4,9c0,0,0-0.1,0.1-0.3
		c0.1-0.2,0.2-0.5,0.1-0.9l0-0.1l-0.1,0c-0.6,0.1-0.9,0-1.3-0.1c-0.2-0.1-0.4-0.1-0.6-0.2l-0.1,0l0,0.1c-0.2,1-0.9,1.6-1.7,2.1
		c-0.3,0.2-0.6,0.4-0.8,0.6l0.1,0.1l-0.1,0.1l0.1,0.1c-0.3,0-0.6,0-1,0c-0.2,0-0.4,0-0.6,0l0-0.1l-0.1-0.1l0-0.1
		c-2-0.2-3.2-1.1-3.5-2.7l-0.1,0l0.1-0.1l0-0.1h0.7L9.4,7.5l0.1,0.1L9.4,7.7C10,8,11,7.8,12.1,7.6c0.6-0.1,1.1-0.2,1.6-0.2l0.1,0
		l0,0c0.3-0.3,0.1-0.7,0-0.9c-0.2-0.4-0.3-0.6,0.3-1l0.2-0.1L14,5.2c-0.3-0.1-0.5,0-0.7,0.2c-0.2,0.1-0.3,0.2-0.4,0.1c0,0,0,0,0,0
		c-0.2-0.3-0.3-0.3-0.3-0.4c0,0,0,0.1,0,0.1l0-0.3c-0.6,0.1-1,0.5-1.4,0.9c-0.4,0.4-0.9,0.9-1.6,1.1l0,0.1L9.4,7.1l0.1,0.1H8.7
		l0-0.1L8.7,7l0-0.1C8.2,7,8.1,7,8,6.9c0,0,0-0.2,0-0.3c0-0.2,0.1-0.3,0-0.4c0-0.1-0.1-0.1-0.2-0.1l-0.1,0l0,0.1c0,0.1,0,0.1,0,0.1
		c-0.1,0.1-0.4,0-0.6,0c-0.3,0-0.5-0.1-0.7,0l0,0.1L6.3,6.4L6.2,6.5C6.1,6.3,6,6.1,5.7,5.8L5.5,6C5.8,6.3,5.9,6.5,6,6.6l-0.1,0
		l0,0.1L5.8,6.8C5.9,7,6,7.2,6,7.5c0,0.4-0.3,0.9-0.5,1.1L5.2,8.9l0.4-0.1c0.3-0.1,0.5,0,0.6,0.1c0.2,0.2,0.3,0.5,0.3,0.9
		C6.4,11.1,5.7,12,4.7,12.8z"/>
	<path class="st0" d="M34.8,13.7c-0.4-0.4-0.7-0.8-0.7-1.2c2,0.7,3.7-0.3,4.3-1.7c0.4-0.9,0.3-2.2-1.3-2.8l-0.1,0.1l-0.1,0l0,0.2
		c-0.2,0-0.3-0.1-0.5-0.2c-0.3-0.1-0.7-0.2-1.1-0.2l0.1,0.2c0.3-0.1,0.6,0,0.9,0.1c0.1,0.1,0.3,0.1,0.4,0.1l-0.1,0.1l0.1,0.1l-0.1,0
		c0.1,0.9-0.1,1.6-0.6,1.9c-0.7,0.4-2,0.3-3.3-0.5c-1.2-0.7-2-1.6-2-2.3l-0.1,0l-0.1-0.1l-0.1,0V6.3l0.1,0l0.1-0.1l0,0.1l0.2-0.1
		c1.5-0.4,3-0.9,4.7-1.1c0,0.3-0.1,0.4-0.3,0.6c-0.2,0.2-0.3,0.5-0.3,0.9l0,0.1l0.1,0c1.6-0.1,2.2-1.2,2.7-2.3
		c0.6-1.1,1.2-2.2,2.8-2.2l0.6,0l-0.5-0.2C40.5,2,40.2,1.9,40,1.7c-1.5-0.8-2.3-1.1-3.9-1c-0.6,0.1-2.5,0.9-2.9,1.1
		c-0.6,0.4-1,1-1.4,1.5c-0.4,0.5-0.7,0.9-1.1,1c-0.9,0.1-2-0.5-2.6-1.4c0.9-0.1,1.9-0.4,1.9-1.8l0,0c-0.3-0.6-0.7-1-1.3-1.1
		c-1.2-0.2-2.6,0.8-3.3,1.5c-1.6-1.2-4.2,0.1-5.1,0.9l-0.1,0.1l0.1,0.1C21,3.1,21.6,3,22.3,3c0.4,0,0.8-0.1,1.2,0
		c0.2,0,0.4,0.2,0.6,0.4c0.2,0.2,0.4,0.3,0.7,0.5c0.7,0.3,1.4,0.5,2,0.8C28.1,5,29.1,5.4,30.1,6l0.1-0.1L30.1,6l0.2,0.1v1.7l-0.1,0
		l-0.1,0.1l-0.1,0c-0.5,1.3,0.4,2.4,1,3.3c0.1,0.2,0.3,0.3,0.4,0.5c2,2.8,2.4,7.2-0.5,9.6l0.1,0.1l-0.1,0.1l0.1,0.1
		c-0.2,0.1-0.3,0.1-0.6,0.2l0.1,0.2c0.2-0.1,0.3-0.1,0.4-0.2l0,0l0.1,0.1l0,0.1c2.6-0.8,3.8-2.5,3.7-5.3c0.1,0,0.2,0,0.3,0
		c0.3,0,0.6,0,0.8-0.2c0.1-0.1,0.1-0.3,0-0.5C36,15,35.4,14.2,34.8,13.7z"/>
	<path class="st0" d="M30.9,19.1l-0.1,0l0,0c0.1-0.2,0.1-0.5,0-0.7c-0.2-0.6-0.9-1.2-1.5-1.5l-0.1,0.2c0.5,0.2,1.2,0.7,1.4,1.3
		c0.1,0.2,0,0.5-0.1,0.7l-0.2-0.1l-0.1,0.1l0-0.1c-0.2,0-0.3,0.1-0.4,0.2c-0.1,0.1-0.2,0.1-0.4,0.1c-0.2,0-0.3-0.2-0.3-0.6
		c0-0.3-0.1-0.6-0.3-0.7c-0.1-0.1-0.3-0.1-0.5-0.1l-0.1,0l0,0c-0.4,0.6-0.5,1.3-0.1,1.9c0.3,0.5,0.9,0.7,1.5,0.7c0.1,0,0.3,0,0.4,0
		C30.4,20.3,30.8,19.8,30.9,19.1z"/>
	<path class="st0" d="M75.7,1.6c-0.7,0.3-2.5,0.5-3.2,0l-0.1-0.1l-0.1,0.1c-1.1,2.2-3.5,3.8-5.9,3.8c0,0,0,0,0,0c0-0.1,0-0.1,0-0.2
		c-0.1-0.7-0.2-1.6-1.1-2l-0.1,0.1l-0.1,0l0,0c-0.8-0.9-1.6-1.5-2.3-1.8l0.1-0.1l-0.1-0.1l0.1-0.1c-1.6-0.9-5-1.7-7.1-0.6l0.1,0.1
		l-0.1,0.1l0,0.1c-0.3,0-0.5,0.1-0.7,0.2c-0.2,0.1-0.5,0.2-0.7,0.2l0,0.3c0.3,0,0.6-0.1,0.8-0.2c0.2-0.1,0.4-0.2,0.6-0.2l0,0.1
		l0.1,0.1l0,0.1C58,1.3,59.2,2.2,60,2.9l0.1-0.1h0.1c0.2,0.2,0.3,0.3,0.5,0.5c0.7,0.7,1.5,1.4,2.4,1.8l-0.1,0c0.3,0.6,0.8,0.8,1.4,1
		c0.4,0.2,0.9,0.3,1.1,0.7c0.1,2.6-1.1,3.9-2.3,5.3l-0.1,0.2l0.1,0.1l0,0.1h0c-1.7,1.1-3.9,1.5-5.8,0.9c-1.1-0.3-2.5-1-3.4-2.7
		l0-0.1l0.1,0c0-0.4-0.1-0.8-0.2-1.2c-0.1-0.6-0.3-1.3-0.1-1.8c0.4-1.2,1.7-1.8,2.9-1.7c1,0.1,1.6,0.6,1.6,1.4
		c0.1,1.1-0.5,1.3-1.3,1.8c-0.2,0.1-0.4,0.2-0.6,0.3l-0.2,0.1l0.2,0.1c0.9,0.4,1.7,0.4,2.4-0.2c1-0.8,1.4-2.4,1.1-3.9
		c-0.2-0.7-0.9-1.1-1.2-1.2c0,0-0.1-0.1-0.1-0.2c-0.1-0.2-0.1-0.3-0.2-0.4c-0.6-0.4-1.8-0.4-2.3-0.3c-0.9,0.1-1.3,0.6-1.8,1.1
		c-0.3,0.3-0.5,0.6-0.9,0.8c-0.5-2.2-2.1-4.8-4.3-5.3c-3.5-0.8-6.2,1.1-6.8,2.6c0,0-0.1,0.1-0.2,0.1c-0.2,0.1-0.3,0.1-0.4,0.2
		c-0.3,0.6-0.5,1.8-0.6,2.3c-0.3,2.5,0,4,1.2,4.9l0.1-0.1l0.1,0l0-0.1c0.1,0.1,0.2,0.2,0.3,0.3c0.7,0.7,1.5,1.4,2.6,1.5
		c-0.6,2.5-3.3,3.6-5.8,4l0-0.1l-0.1-0.1l0.1,0c0-0.7,0.3-1.1,0.7-1.5c0.5-0.5,1-1.1,0.4-2.2l0-0.1l-0.1,0c-0.9,0.1-1.1,0.8-1.3,1.4
		c-0.1,0.3-0.2,0.7-0.4,0.9c-0.2,0.1-0.5,0.3-0.7,0.4c-0.7,0.3-1.4,0.6-1.3,1.7l0,0.1l0.1,0c0.6,0.2,1.2,0.3,1.6,0.3
		c0.5,0,0.8-0.1,1-0.3l-0.1-0.1l0.1-0.1l-0.1-0.1c2.6-0.3,5.4-1.6,6.1-4.3c0.2-0.1,0.3-0.1,0.6-0.2c1.9,0.6,3.9-1,4.5-1.5l-0.2-0.2
		c-0.5,0.5-2.4,2-4.1,1.5l0-0.1c0.3-0.9,0.7-1.8,0.6-2.8c0.6-0.3,0.8-0.8,1-1.4c0.1-0.2,0.1-0.3,0.2-0.5l-0.2-0.1
		C48,6.7,48,6.9,47.9,7c-0.2,0.5-0.4,1-0.9,1.2c-0.5-0.6-0.8-1.3-1.1-2c-0.1-0.3-0.2-0.6-0.4-0.8l-0.2,0.1c0.1,0.3,0.3,0.5,0.4,0.8
		c0.3,0.7,0.6,1.5,1.2,2.1c0.1,1-0.2,1.9-0.5,2.7l-0.1,0.1c-0.2,0.1-0.4,0.2-0.6,0.2c-1,0-1.8-0.7-2.5-1.4c-0.1-0.1-0.3-0.3-0.4-0.4
		l0.1-0.1l-0.1-0.1l0.1-0.1c-0.7-1.6-0.6-3.3,0.2-4.8c0.7-1.2,1.7-2.1,2.8-2.3c1.5-0.3,3.9,0.5,4.4,0.8c0.5,0.4,1.1,1.5,1.4,2.2
		C51.8,6,52,6.8,52.1,7.5c0.2,1.2,0.4,2.4,1.2,3.3l0.1-0.1l0.1,0.1l0.2-0.1c0.7,1.5,2,2.5,3.7,3c2.1,0.6,4.4,0.1,6.2-1.1l0.2,0.2
		l0.1-0.1l0,0.1c1.8-0.6,2.9-2.6,3.2-6.1c4.2,0.2,7.1-1.4,8.9-4.8L76,1.5L75.7,1.6z"/>
</g>
</svg>
