<?xml version="1.0" encoding="utf-8"?>
<!-- Generator: Adobe Illustrator 20.0.0, SVG Export Plug-In . SVG Version: 6.00 Build 0)  -->
<svg version="1.1" id="圖層_1" xmlns="http://www.w3.org/2000/svg" xmlns:xlink="http://www.w3.org/1999/xlink" x="0px" y="0px"
	 viewBox="0 0 54.2 31.8" style="enable-background:new 0 0 54.2 31.8;" xml:space="preserve">
<style type="text/css">
	.st0{fill:#FFFFFF;}
</style>
<g>
	<g>
		<g>
			<path class="st0" d="M3.3,20.6v2H0.8V27H0.1v-6.4H3.3z M2.6,21H0.8v0.4h1.8V21z M2.6,21.8H0.8v0.3h1.8V21.8z M2.6,22.8
				C2.6,22.8,2.7,22.9,2.6,22.8c0.1,0.1,0.1,0.2,0,0.2l-0.5,0.4c0.1,0.1,0.2,0.1,0.3,0.2L3,23.1l0.4,0.2c0.1,0,0.1,0,0.1,0.1
				c0,0,0,0.1-0.1,0.1l-1,0.9c0.2,0,0.5-0.1,0.7-0.1c0-0.1-0.1-0.2-0.1-0.2l0.4-0.1c0.2,0.3,0.3,0.6,0.3,0.8l-0.5,0.1
				c0-0.1,0-0.1,0-0.2c-0.4,0.1-1,0.2-1.7,0.3c0,0.1-0.1,0.1-0.1,0.1c0,0-0.1,0-0.1-0.1l-0.1-0.5c0.2,0,0.3,0,0.5-0.1L2,24
				c-0.3-0.2-0.6-0.4-1-0.6L1.4,23c0.1,0.1,0.2,0.1,0.3,0.2l0.5-0.6L2.6,22.8z M2,25c0.1,0,0.2,0,0.2,0.1c0,0,0,0.1-0.1,0.1v0.4H3
				c0-0.2,0-0.4,0-0.7l0.6,0c0.1,0,0.1,0,0.1,0c0,0-0.1,0.1-0.1,0.2v0.6c0,0.3-0.1,0.5-0.2,0.6c-0.1,0.1-0.2,0.2-0.5,0.3
				c-0.2,0.1-0.6,0.2-1,0.2l-0.4-0.5c0.4,0,0.7-0.1,0.9-0.1c0.2,0,0.3-0.1,0.4-0.2c0.1,0,0.1-0.1,0.1-0.2H1.5v-1.1L2,25z M5.2,22.8
				C5.2,22.8,5.2,22.8,5.2,22.8c0.1,0.1,0.1,0.1,0,0.2l-0.5,0.4c0.1,0.1,0.2,0.2,0.3,0.2l0.6-0.6l0.4,0.2C6,23.3,6,23.3,6,23.3
				c0,0,0,0.1-0.1,0.1l-1,0.8c0.2,0,0.5-0.1,0.7-0.1c0-0.1-0.1-0.2-0.1-0.2L6,23.8c0.2,0.4,0.3,0.7,0.4,1l-0.6,0.1
				c0-0.1-0.1-0.2-0.1-0.4c-0.4,0.1-1,0.2-1.8,0.3c0,0.1-0.1,0.1-0.1,0.1c0,0-0.1,0-0.1-0.1l-0.1-0.4c0.2,0,0.3,0,0.5,0L4.6,24
				c-0.3-0.2-0.6-0.4-0.9-0.6L4,23c0.1,0.1,0.2,0.1,0.2,0.2l0.5-0.6L5.2,22.8z M4.5,24.9c0.1,0,0.2,0,0.2,0.1c0,0,0,0.1-0.1,0.1v0.5
				h0.8v-0.7l0.5,0C6,25,6,25,6,25c0,0,0,0.1-0.1,0.1v1H4.5V27H4v-2.1L4.5,24.9z M7.3,20.6v5.7c0,0.3-0.2,0.5-0.5,0.6
				C6.6,26.9,6.3,27,6.1,27l-0.3-0.6l0.5,0c0.2,0,0.2-0.1,0.2-0.2v-3.6H4.1v-2h0.3H7.3z M6.6,21H4.8v0.4h1.8V21z M6.6,21.8H4.8v0.3
				h1.8V21.8z"/>
			<path class="st0" d="M9.9,21.9c0.1,0,0.1,0,0.1,0.1c0,0,0,0.1-0.1,0.1c0,0.6,0,1-0.1,1.2c0,0.2,0,0.4-0.1,0.6l-0.7-0.1
				c0-0.2,0.1-0.4,0.1-0.6c0-0.3,0.1-0.7,0.1-1.3L9.9,21.9z M10.9,20.4c0.1,0,0.2,0,0.2,0.1c0,0-0.1,0.1-0.1,0.1V27h-0.7v-6.6
				L10.9,20.4z M11.9,22.8v-1.1h4.6v1.4h-1.9v1.4c0.2,0.4,0.4,0.7,0.6,0.9c0.4-0.2,0.7-0.5,0.9-0.8l0.5,0.4c0,0,0,0.1,0,0.1
				c0,0-0.1,0.1-0.2,0.1c-0.3,0.2-0.5,0.4-0.8,0.5c0.3,0.2,0.8,0.4,1.4,0.6l-0.7,0.4c-0.5-0.2-0.9-0.5-1.2-0.7
				c-0.3-0.2-0.6-0.5-0.8-0.7c-0.1-0.1-0.2-0.3-0.3-0.5c-0.3,0.1-0.5,0.3-0.8,0.4v0.8c0.4,0,0.7-0.1,1.1-0.2v0.5
				c-0.4,0.1-1.2,0.2-2.1,0.4C12.1,26.9,12.1,27,12,27c-0.1,0-0.1,0-0.1-0.1l-0.2-0.6c0.2,0,0.5,0,0.7-0.1v-0.6
				c-0.3,0.1-0.6,0.2-0.9,0.3l-0.5-0.5c1.1-0.2,2-0.6,2.6-1v-1.3h-1.9V23l-0.6,0.1c0-0.3-0.1-0.7-0.2-1.2l0.5-0.1
				C11.7,22.2,11.8,22.5,11.9,22.8 M14.5,20.4c0.1,0,0.2,0,0.2,0.1c0,0-0.1,0.1-0.1,0.2v0.3h2.3v0.5h-5.2v-0.5h2.2v-0.6L14.5,20.4z
				 M13.5,23.9h-1.7v-0.4h1.7V23.9z M13.5,24.6h-1.7v-0.4h1.7V24.6z M13.3,22.2h-0.7v0.5h0.7V22.2z M14.5,22.2h-0.7v0.5h0.7V22.2z
				 M16.5,23.9h-1.6v-0.4h1.6V23.9z M16.5,24.6h-1.7v-0.4h1.7V24.6z M15.8,22.2h-0.7v0.5h0.7V22.2z"/>
			<path class="st0" d="M21,20.8c0.1,0,0.1,0.1,0.1,0.1c0,0-0.1,0.1-0.3,0.1c-0.1,0.3-0.2,0.6-0.3,0.9h1.8v-1.5l0.7,0.1
				c0.1,0,0.2,0,0.2,0.1c0,0-0.1,0.1-0.1,0.2v1.2h2.6v0.6H23v1.4h2.2v0.6H23V26h3v0.6h-7.3V26h3.5v-1.5H20v-0.6h2.3v-1.4h-2.1
				c0,0,0,0.1-0.1,0.1c-0.3,0.4-0.5,0.8-0.9,1.1l-0.8-0.4c0.4-0.4,0.7-0.8,1-1.2c0.2-0.4,0.5-0.9,0.7-1.6L21,20.8z"/>
			<path class="st0" d="M32.1,20.6c0.1,0,0.2,0.1,0.2,0.1c0,0-0.1,0.1-0.2,0.1c0.6,0.4,1.1,0.8,1.6,1c0.4,0.2,1,0.5,1.8,0.7
				l-0.6,0.5c-0.8-0.3-1.4-0.6-1.8-0.8c-0.4-0.2-0.9-0.5-1.5-1c-0.4,0.3-0.7,0.6-1.1,0.8c-0.4,0.3-1.1,0.7-2,1.1l-0.7-0.5
				c0.7-0.3,1.4-0.6,2-0.9c0.5-0.3,1.1-0.8,1.6-1.3L32.1,20.6z M31.1,23.7v2.5h-0.7v-0.3h-1.1v0.5h-0.7v-2.7H31.1z M30.4,24.2h-1.1
				v1.1h1.1V24.2z M33.3,23.2h-3.4v-0.6h3.4V23.2z M34.7,23.6v1.9c0,0.3-0.2,0.5-0.5,0.6c-0.2,0.1-0.5,0.1-0.7,0.1l-0.3-0.7l0.5,0
				c0.1,0,0.2-0.1,0.2-0.3v-1.2h-1.2V27H32v-3.4h0.4H34.7z"/>
			<path class="st0" d="M38.1,22.1v-1.6l0.6,0c0.1,0,0.2,0,0.2,0.1c0,0,0,0.1-0.1,0.2v1.3h1.1v0.6h-1.1v4.2h-0.7v-4.2h-0.9v-0.6
				H38.1z M39.9,24.2c0-0.2,0-0.4,0-0.7l0.6,0.1c0.1,0,0.2,0,0.1,0.1c0,0,0,0.1-0.1,0.1c0,0.2,0,0.3,0,0.4h1.3c0,1.1,0,1.7-0.1,2
				c-0.1,0.3-0.2,0.4-0.3,0.5c-0.2,0.1-0.5,0.2-0.9,0.2l-0.3-0.6c0.4,0,0.6,0,0.7-0.1c0.1,0,0.1-0.1,0.2-0.3
				c0.1-0.2,0.1-0.5,0.1-1.1h-0.7c0,0.2-0.1,0.3-0.1,0.4c-0.1,0.4-0.2,0.7-0.4,1c-0.2,0.3-0.3,0.5-0.6,0.7l-0.6-0.4
				c0.2-0.2,0.4-0.4,0.5-0.6c0.2-0.2,0.3-0.5,0.4-0.8c0-0.1,0.1-0.2,0.1-0.3h-0.6v-0.6H39.9z M41.5,21.1c0-0.2,0-0.4,0.1-0.7
				l0.7,0.1c0.1,0,0.1,0,0.1,0.1c0,0-0.1,0.1-0.2,0.1c0,0.1,0,0.3,0,0.4h2c0,0.9-0.1,1.4-0.2,1.7c-0.1,0.2-0.2,0.4-0.4,0.5
				c-0.2,0.1-0.7,0.1-1.2,0.1l-0.3-0.6c0.6,0,1,0,1.1-0.1c0.1,0,0.2-0.1,0.3-0.2c0.1-0.1,0.1-0.4,0.1-0.8h-1.4c0,0.1,0,0.1-0.1,0.2
				c-0.1,0.3-0.2,0.5-0.4,0.7c-0.3,0.3-0.7,0.6-1.3,0.9L39.8,23c0.6-0.2,1-0.5,1.2-0.7c0.2-0.2,0.3-0.4,0.4-0.6v0H40v-0.6H41.5z
				 M42.8,24.2c0-0.2,0-0.5,0-0.7l0.7,0.1c0.1,0,0.1,0,0.1,0.1c0,0-0.1,0.1-0.1,0.1c0,0.2,0,0.3,0,0.4h1.2c0,1.1,0,1.7-0.1,2
				c-0.1,0.3-0.2,0.5-0.3,0.6c-0.2,0.1-0.5,0.2-0.9,0.2l-0.3-0.6c0.4,0,0.6,0,0.7-0.1c0.1,0,0.1-0.1,0.2-0.3
				c0.1-0.2,0.1-0.5,0.1-1.2h-0.6c0,0.2-0.1,0.3-0.1,0.5c-0.1,0.4-0.2,0.7-0.4,1c-0.2,0.3-0.4,0.5-0.7,0.7l-0.6-0.4
				c0.2-0.2,0.4-0.4,0.6-0.6c0.2-0.2,0.3-0.5,0.4-0.8c0-0.1,0.1-0.2,0.1-0.4H42v-0.6H42.8z"/>
			<path class="st0" d="M50.9,20.5c0.1,0,0.1,0.1,0.1,0.1c0,0-0.1,0.1-0.2,0.1c0.6,0.3,1.1,0.5,1.6,0.6c0.4,0.1,1,0.3,1.7,0.4
				l-0.5,0.6c-0.8-0.2-1.4-0.4-2-0.6c-0.5-0.2-0.9-0.4-1.4-0.7c-0.4,0.2-0.8,0.4-1.2,0.6c-0.5,0.2-1.2,0.5-2.2,0.7l-0.6-0.5
				c0.8-0.2,1.6-0.4,2.2-0.7c0.6-0.2,1.2-0.5,1.8-0.9L50.9,20.5z M53.4,22.5v1.9h-0.7v-0.2H48v0.2h-0.7v-1.9H53.4z M52.7,24.7v2.3
				H52v-0.2h-3.3V27h-0.8v-2.3H52.7z M48.7,23.8c-0.1-0.2-0.2-0.4-0.3-0.6l0.6-0.1c0.1,0.2,0.2,0.5,0.3,0.7h0.5V23h-2v0.7H48.7z
				 M52,25.1h-3.3v0.4H52V25.1z M52,25.9h-3.3v0.3H52V25.9z M51.8,22.2h-3v-0.4h3V22.2z M51.1,23.8l0.4-0.7l0.5,0.2
				c0.1,0,0.1,0.1,0.1,0.1c0,0.1,0,0.1-0.1,0.1l-0.2,0.3h0.9V23h-2.1v0.7H51.1z"/>
		</g>
		<g>
			<path class="st0" d="M0,31.8V29h0.6v2.3H2v0.5H0z"/>
			<path class="st0" d="M2.2,29.5V29h0.5v0.5H2.2z M2.2,31.8v-2h0.5v2H2.2z"/>
			<path class="st0" d="M2.8,29.8h0.3v-0.2c0-0.2,0-0.3,0.1-0.4c0-0.1,0.1-0.2,0.2-0.2C3.5,29,3.6,29,3.7,29C3.9,29,4,29,4.2,29
				l-0.1,0.4c-0.1,0-0.2,0-0.2,0c-0.1,0-0.1,0-0.2,0.1c0,0-0.1,0.1-0.1,0.2v0.1H4v0.4H3.6v1.6H3.1v-1.6H2.8V29.8z"/>
			<path class="st0" d="M5.3,31.2l0.5,0.1c-0.1,0.2-0.2,0.3-0.3,0.4c-0.1,0.1-0.3,0.2-0.6,0.2c-0.4,0-0.6-0.1-0.8-0.3
				C4.1,31.3,4,31.1,4,30.8c0-0.3,0.1-0.6,0.3-0.8c0.2-0.2,0.4-0.3,0.7-0.3c0.3,0,0.5,0.1,0.7,0.3c0.2,0.2,0.3,0.5,0.2,0.9H4.5
				c0,0.2,0,0.3,0.1,0.4c0.1,0.1,0.2,0.1,0.3,0.1c0.1,0,0.2,0,0.2-0.1C5.2,31.3,5.3,31.3,5.3,31.2z M5.4,30.6c0-0.2,0-0.3-0.1-0.4
				c-0.1-0.1-0.2-0.1-0.3-0.1c-0.1,0-0.2,0-0.3,0.1c-0.1,0.1-0.1,0.2-0.1,0.3H5.4z"/>
			<path class="st0" d="M8.8,30.8l0.5,0.2c-0.1,0.3-0.2,0.5-0.4,0.7c-0.2,0.1-0.4,0.2-0.7,0.2c-0.4,0-0.7-0.1-0.9-0.4
				c-0.2-0.3-0.4-0.6-0.4-1c0-0.5,0.1-0.8,0.4-1.1C7.5,29.1,7.8,29,8.2,29c0.3,0,0.6,0.1,0.8,0.3c0.1,0.1,0.2,0.3,0.3,0.5l-0.6,0.1
				c0-0.1-0.1-0.3-0.2-0.3c-0.1-0.1-0.2-0.1-0.4-0.1c-0.2,0-0.4,0.1-0.5,0.2c-0.1,0.1-0.2,0.4-0.2,0.7c0,0.4,0.1,0.6,0.2,0.8
				c0.1,0.1,0.3,0.2,0.5,0.2c0.1,0,0.3,0,0.4-0.1C8.7,31.1,8.7,31,8.8,30.8z"/>
			<path class="st0" d="M9.5,30.8c0-0.2,0-0.3,0.1-0.5c0.1-0.2,0.2-0.3,0.4-0.4c0.2-0.1,0.3-0.1,0.5-0.1c0.3,0,0.6,0.1,0.8,0.3
				c0.2,0.2,0.3,0.4,0.3,0.7c0,0.3-0.1,0.6-0.3,0.8c-0.2,0.2-0.4,0.3-0.7,0.3c-0.2,0-0.4,0-0.5-0.1c-0.2-0.1-0.3-0.2-0.4-0.4
				C9.5,31.2,9.5,31,9.5,30.8z M10,30.8c0,0.2,0,0.4,0.1,0.5c0.1,0.1,0.2,0.2,0.4,0.2c0.1,0,0.3-0.1,0.4-0.2C11,31.1,11,31,11,30.8
				c0-0.2,0-0.3-0.1-0.5c-0.1-0.1-0.2-0.2-0.4-0.2c-0.1,0-0.3,0.1-0.4,0.2C10.1,30.4,10,30.6,10,30.8z"/>
			<path class="st0" d="M13.6,31.8h-0.5v-1c0-0.2,0-0.4,0-0.4c0-0.1-0.1-0.1-0.1-0.1c-0.1,0-0.1-0.1-0.2-0.1c-0.1,0-0.2,0-0.2,0.1
				c-0.1,0.1-0.1,0.1-0.1,0.2c0,0.1,0,0.2,0,0.5v0.9h-0.5v-2h0.5v0.3c0.2-0.2,0.4-0.3,0.7-0.3c0.1,0,0.2,0,0.3,0.1
				c0.1,0,0.2,0.1,0.2,0.2c0.1,0.1,0.1,0.1,0.1,0.2c0,0.1,0,0.2,0,0.4V31.8z"/>
			<path class="st0" d="M13.8,31.2l0.5-0.1c0,0.1,0.1,0.2,0.1,0.2c0.1,0.1,0.2,0.1,0.3,0.1c0.1,0,0.2,0,0.3-0.1c0,0,0.1-0.1,0.1-0.1
				c0,0,0-0.1,0-0.1c0,0-0.1,0-0.2-0.1c-0.4-0.1-0.7-0.2-0.8-0.3c-0.2-0.1-0.2-0.3-0.2-0.5c0-0.2,0.1-0.3,0.2-0.4
				c0.1-0.1,0.4-0.2,0.6-0.2c0.3,0,0.5,0,0.6,0.1c0.1,0.1,0.2,0.2,0.3,0.4l-0.5,0.1c0-0.1-0.1-0.1-0.1-0.2c-0.1,0-0.1-0.1-0.3-0.1
				c-0.1,0-0.2,0-0.3,0.1c0,0-0.1,0.1-0.1,0.1c0,0,0,0.1,0.1,0.1c0,0,0.2,0.1,0.5,0.1c0.3,0.1,0.5,0.1,0.6,0.2
				c0.1,0.1,0.2,0.2,0.2,0.4c0,0.2-0.1,0.3-0.2,0.5c-0.2,0.1-0.4,0.2-0.7,0.2c-0.3,0-0.5-0.1-0.7-0.2C14,31.6,13.9,31.4,13.8,31.2z"
				/>
			<path class="st0" d="M17.1,31.2l0.5,0.1c-0.1,0.2-0.2,0.3-0.3,0.4c-0.1,0.1-0.3,0.2-0.6,0.2c-0.4,0-0.6-0.1-0.8-0.3
				c-0.1-0.2-0.2-0.4-0.2-0.7c0-0.3,0.1-0.6,0.3-0.8c0.2-0.2,0.4-0.3,0.7-0.3c0.3,0,0.5,0.1,0.7,0.3c0.2,0.2,0.3,0.5,0.2,0.9h-1.3
				c0,0.2,0,0.3,0.1,0.4c0.1,0.1,0.2,0.1,0.3,0.1c0.1,0,0.2,0,0.2-0.1C17.1,31.3,17.1,31.3,17.1,31.2z M17.2,30.6
				c0-0.2,0-0.3-0.1-0.4c-0.1-0.1-0.2-0.1-0.3-0.1c-0.1,0-0.2,0-0.3,0.1c-0.1,0.1-0.1,0.2-0.1,0.3H17.2z"/>
			<path class="st0" d="M18.4,31.8h-0.5v-2h0.5v0.3c0.1-0.1,0.2-0.2,0.2-0.3c0.1,0,0.1-0.1,0.2-0.1c0.1,0,0.2,0,0.4,0.1L19,30.3
				c-0.1-0.1-0.2-0.1-0.2-0.1c-0.1,0-0.1,0-0.2,0.1c-0.1,0-0.1,0.1-0.1,0.2c0,0.1,0,0.3,0,0.7V31.8z"/>
			<path class="st0" d="M19.8,31.8l-0.8-2h0.6l0.4,1l0.1,0.3c0-0.1,0-0.1,0.1-0.2c0-0.1,0-0.1,0.1-0.2l0.4-1h0.5l-0.8,2H19.8z"/>
			<path class="st0" d="M21.6,30.4l-0.5-0.1c0.1-0.2,0.1-0.3,0.3-0.4c0.1-0.1,0.3-0.1,0.6-0.1c0.2,0,0.4,0,0.5,0.1
				c0.1,0.1,0.2,0.1,0.2,0.2c0,0.1,0.1,0.2,0.1,0.5l0,0.6c0,0.2,0,0.3,0,0.4c0,0.1,0,0.2,0.1,0.3h-0.5c0,0,0-0.1-0.1-0.2
				c0,0,0-0.1,0-0.1c-0.1,0.1-0.2,0.2-0.3,0.2c-0.1,0-0.2,0.1-0.3,0.1c-0.2,0-0.4-0.1-0.5-0.2c-0.1-0.1-0.2-0.3-0.2-0.4
				c0-0.1,0-0.2,0.1-0.3c0.1-0.1,0.1-0.2,0.2-0.2c0.1,0,0.2-0.1,0.4-0.1c0.2,0,0.4-0.1,0.5-0.1v-0.1c0-0.1,0-0.2-0.1-0.2
				c-0.1,0-0.1-0.1-0.3-0.1c-0.1,0-0.2,0-0.2,0.1C21.7,30.2,21.6,30.3,21.6,30.4z M22.3,30.8c-0.1,0-0.2,0.1-0.3,0.1
				c-0.1,0-0.2,0.1-0.3,0.1c-0.1,0-0.1,0.1-0.1,0.2c0,0.1,0,0.1,0.1,0.2c0.1,0.1,0.1,0.1,0.2,0.1c0.1,0,0.2,0,0.3-0.1
				c0.1,0,0.1-0.1,0.1-0.2c0,0,0-0.1,0-0.3V30.8z"/>
			<path class="st0" d="M24.1,29.8v0.4h-0.4V31c0,0.2,0,0.3,0,0.3c0,0,0,0,0,0.1c0,0,0.1,0,0.1,0c0,0,0.1,0,0.2-0.1l0,0.4
				c-0.1,0.1-0.3,0.1-0.4,0.1c-0.1,0-0.2,0-0.3,0c-0.1,0-0.1-0.1-0.2-0.1c0-0.1-0.1-0.1-0.1-0.2c0-0.1,0-0.2,0-0.4v-0.9H23v-0.4h0.2
				v-0.4l0.5-0.3v0.7H24.1z"/>
			<path class="st0" d="M24.3,29.5V29h0.5v0.5H24.3z M24.3,31.8v-2h0.5v2H24.3z"/>
			<path class="st0" d="M25,30.8c0-0.2,0-0.3,0.1-0.5c0.1-0.2,0.2-0.3,0.4-0.4c0.2-0.1,0.3-0.1,0.5-0.1c0.3,0,0.6,0.1,0.8,0.3
				c0.2,0.2,0.3,0.4,0.3,0.7c0,0.3-0.1,0.6-0.3,0.8c-0.2,0.2-0.4,0.3-0.7,0.3c-0.2,0-0.4,0-0.5-0.1c-0.2-0.1-0.3-0.2-0.4-0.4
				C25.1,31.2,25,31,25,30.8z M25.6,30.8c0,0.2,0,0.4,0.1,0.5c0.1,0.1,0.2,0.2,0.4,0.2c0.1,0,0.3-0.1,0.4-0.2
				c0.1-0.1,0.1-0.3,0.1-0.5c0-0.2,0-0.3-0.1-0.5c-0.1-0.1-0.2-0.2-0.4-0.2c-0.1,0-0.3,0.1-0.4,0.2C25.6,30.4,25.6,30.6,25.6,30.8z"
				/>
			<path class="st0" d="M29.2,31.8h-0.5v-1c0-0.2,0-0.4,0-0.4c0-0.1-0.1-0.1-0.1-0.1c-0.1,0-0.1-0.1-0.2-0.1c-0.1,0-0.2,0-0.2,0.1
				c-0.1,0.1-0.1,0.1-0.2,0.2c0,0.1,0,0.2,0,0.5v0.9h-0.5v-2h0.5v0.3c0.2-0.2,0.4-0.3,0.7-0.3c0.1,0,0.2,0,0.3,0.1
				c0.1,0,0.2,0.1,0.2,0.2c0,0.1,0.1,0.1,0.1,0.2c0,0.1,0,0.2,0,0.4V31.8z"/>
			<path class="st0" d="M29.5,29.5V29h0.5v0.5H29.5z M29.5,31.8v-2h0.5v2H29.5z"/>
			<path class="st0" d="M30.2,31.2l0.5-0.1c0,0.1,0.1,0.2,0.1,0.2c0.1,0.1,0.2,0.1,0.3,0.1c0.1,0,0.2,0,0.3-0.1c0,0,0.1-0.1,0.1-0.1
				c0,0,0-0.1,0-0.1c0,0-0.1,0-0.2-0.1c-0.4-0.1-0.7-0.2-0.8-0.3c-0.2-0.1-0.2-0.3-0.2-0.5c0-0.2,0.1-0.3,0.2-0.4
				c0.1-0.1,0.4-0.2,0.6-0.2c0.3,0,0.5,0,0.6,0.1c0.1,0.1,0.2,0.2,0.3,0.4l-0.5,0.1c0-0.1-0.1-0.1-0.1-0.2c-0.1,0-0.1-0.1-0.3-0.1
				c-0.1,0-0.2,0-0.3,0.1c0,0-0.1,0.1-0.1,0.1c0,0,0,0.1,0.1,0.1c0,0,0.2,0.1,0.5,0.1c0.3,0.1,0.5,0.1,0.6,0.2
				c0.1,0.1,0.2,0.2,0.2,0.4c0,0.2-0.1,0.3-0.2,0.5c-0.2,0.1-0.4,0.2-0.7,0.2c-0.3,0-0.5-0.1-0.7-0.2C30.4,31.6,30.3,31.4,30.2,31.2
				z"/>
			<path class="st0" d="M33.3,29.8v0.4h-0.4V31c0,0.2,0,0.3,0,0.3c0,0,0,0,0,0.1c0,0,0.1,0,0.1,0c0,0,0.1,0,0.2-0.1l0,0.4
				c-0.1,0.1-0.3,0.1-0.4,0.1c-0.1,0-0.2,0-0.3,0c-0.1,0-0.1-0.1-0.2-0.1c0-0.1-0.1-0.1-0.1-0.2c0-0.1,0-0.2,0-0.4v-0.9h-0.2v-0.4
				h0.2v-0.4l0.5-0.3v0.7H33.3z"/>
			<path class="st0" d="M36.7,31.8h-0.6l-0.2-0.6h-1.1l-0.2,0.6H34L35,29h0.6L36.7,31.8z M35.7,30.7l-0.4-1l-0.4,1H35.7z"/>
			<path class="st0" d="M36.7,31.2l0.5-0.1c0,0.1,0.1,0.2,0.1,0.2c0.1,0.1,0.2,0.1,0.3,0.1c0.1,0,0.2,0,0.3-0.1c0,0,0.1-0.1,0.1-0.1
				c0,0,0-0.1,0-0.1c0,0-0.1,0-0.2-0.1c-0.4-0.1-0.7-0.2-0.8-0.3c-0.2-0.1-0.2-0.3-0.2-0.5c0-0.2,0.1-0.3,0.2-0.4
				c0.1-0.1,0.4-0.2,0.6-0.2c0.3,0,0.5,0,0.6,0.1c0.1,0.1,0.2,0.2,0.3,0.4L38,30.4c0-0.1-0.1-0.1-0.1-0.2c-0.1,0-0.1-0.1-0.3-0.1
				c-0.1,0-0.2,0-0.3,0.1c0,0-0.1,0.1-0.1,0.1c0,0,0,0.1,0.1,0.1c0,0,0.2,0.1,0.5,0.1c0.3,0.1,0.5,0.1,0.6,0.2
				c0.1,0.1,0.2,0.2,0.2,0.4c0,0.2-0.1,0.3-0.2,0.5c-0.2,0.1-0.4,0.2-0.7,0.2c-0.3,0-0.5-0.1-0.7-0.2C36.8,31.6,36.7,31.4,36.7,31.2
				z"/>
			<path class="st0" d="M38.6,31.2l0.5-0.1c0,0.1,0.1,0.2,0.1,0.2c0.1,0.1,0.2,0.1,0.3,0.1c0.1,0,0.2,0,0.3-0.1c0,0,0.1-0.1,0.1-0.1
				c0,0,0-0.1,0-0.1c0,0-0.1,0-0.2-0.1c-0.4-0.1-0.7-0.2-0.8-0.3c-0.2-0.1-0.2-0.3-0.2-0.5c0-0.2,0.1-0.3,0.2-0.4
				c0.1-0.1,0.4-0.2,0.6-0.2c0.3,0,0.5,0,0.6,0.1c0.1,0.1,0.2,0.2,0.3,0.4l-0.5,0.1c0-0.1-0.1-0.1-0.1-0.2c-0.1,0-0.1-0.1-0.3-0.1
				c-0.1,0-0.2,0-0.3,0.1c0,0-0.1,0.1-0.1,0.1c0,0,0,0.1,0.1,0.1c0,0,0.2,0.1,0.5,0.1c0.3,0.1,0.5,0.1,0.6,0.2
				c0.1,0.1,0.2,0.2,0.2,0.4c0,0.2-0.1,0.3-0.2,0.5c-0.2,0.1-0.4,0.2-0.7,0.2c-0.3,0-0.5-0.1-0.7-0.2C38.8,31.6,38.7,31.4,38.6,31.2
				z"/>
			<path class="st0" d="M40.7,30.8c0-0.2,0-0.3,0.1-0.5c0.1-0.2,0.2-0.3,0.4-0.4c0.2-0.1,0.3-0.1,0.5-0.1c0.3,0,0.6,0.1,0.7,0.3
				c0.2,0.2,0.3,0.4,0.3,0.7c0,0.3-0.1,0.6-0.3,0.8c-0.2,0.2-0.4,0.3-0.7,0.3c-0.2,0-0.4,0-0.5-0.1c-0.2-0.1-0.3-0.2-0.4-0.4
				C40.7,31.2,40.7,31,40.7,30.8z M41.2,30.8c0,0.2,0,0.4,0.1,0.5c0.1,0.1,0.2,0.2,0.4,0.2c0.1,0,0.3-0.1,0.4-0.2
				c0.1-0.1,0.1-0.3,0.1-0.5c0-0.2,0-0.3-0.1-0.5c-0.1-0.1-0.2-0.2-0.4-0.2c-0.1,0-0.3,0.1-0.4,0.2C41.3,30.4,41.2,30.6,41.2,30.8z"
				/>
			<path class="st0" d="M44.7,30.4l-0.5,0.1c0-0.1-0.1-0.2-0.1-0.2c-0.1-0.1-0.1-0.1-0.2-0.1c-0.1,0-0.2,0-0.3,0.1
				c-0.1,0.1-0.1,0.2-0.1,0.5c0,0.2,0,0.4,0.1,0.5c0.1,0.1,0.2,0.1,0.3,0.1c0.1,0,0.2,0,0.2-0.1c0.1-0.1,0.1-0.2,0.1-0.3l0.5,0.1
				c-0.1,0.2-0.2,0.4-0.3,0.5c-0.2,0.1-0.4,0.2-0.6,0.2c-0.3,0-0.5-0.1-0.7-0.3c-0.2-0.2-0.3-0.4-0.3-0.8c0-0.3,0.1-0.6,0.3-0.8
				c0.2-0.2,0.4-0.3,0.7-0.3c0.2,0,0.4,0.1,0.6,0.2C44.6,30,44.7,30.2,44.7,30.4z"/>
			<path class="st0" d="M44.9,29.5V29h0.5v0.5H44.9z M44.9,31.8v-2h0.5v2H44.9z"/>
			<path class="st0" d="M46.2,30.4l-0.5-0.1c0.1-0.2,0.1-0.3,0.3-0.4c0.1-0.1,0.3-0.1,0.6-0.1c0.2,0,0.4,0,0.5,0.1
				c0.1,0.1,0.2,0.1,0.2,0.2c0,0.1,0.1,0.2,0.1,0.5l0,0.6c0,0.2,0,0.3,0,0.4c0,0.1,0,0.2,0.1,0.3H47c0,0,0-0.1-0.1-0.2
				c0,0,0-0.1,0-0.1c-0.1,0.1-0.2,0.2-0.3,0.2c-0.1,0-0.2,0.1-0.3,0.1c-0.2,0-0.4-0.1-0.5-0.2c-0.1-0.1-0.2-0.3-0.2-0.4
				c0-0.1,0-0.2,0.1-0.3c0.1-0.1,0.1-0.2,0.2-0.2c0.1,0,0.2-0.1,0.4-0.1c0.2,0,0.4-0.1,0.5-0.1v-0.1c0-0.1,0-0.2-0.1-0.2
				c-0.1,0-0.1-0.1-0.3-0.1c-0.1,0-0.2,0-0.2,0.1C46.3,30.2,46.3,30.3,46.2,30.4z M46.9,30.8c-0.1,0-0.2,0.1-0.3,0.1
				c-0.1,0-0.2,0.1-0.3,0.1c-0.1,0-0.1,0.1-0.1,0.2c0,0.1,0,0.1,0.1,0.2c0.1,0.1,0.1,0.1,0.2,0.1c0.1,0,0.2,0,0.3-0.1
				c0.1,0,0.1-0.1,0.1-0.2c0,0,0-0.1,0-0.3V30.8z"/>
			<path class="st0" d="M48.7,29.8v0.4h-0.4V31c0,0.2,0,0.3,0,0.3c0,0,0,0,0,0.1c0,0,0.1,0,0.1,0c0,0,0.1,0,0.2-0.1l0,0.4
				c-0.1,0.1-0.3,0.1-0.4,0.1c-0.1,0-0.2,0-0.3,0c-0.1,0-0.1-0.1-0.2-0.1c0-0.1-0.1-0.1-0.1-0.2c0-0.1,0-0.2,0-0.4v-0.9h-0.2v-0.4
				h0.2v-0.4l0.5-0.3v0.7H48.7z"/>
			<path class="st0" d="M48.9,29.5V29h0.5v0.5H48.9z M48.9,31.8v-2h0.5v2H48.9z"/>
			<path class="st0" d="M49.7,30.8c0-0.2,0-0.3,0.1-0.5c0.1-0.2,0.2-0.3,0.4-0.4c0.2-0.1,0.3-0.1,0.5-0.1c0.3,0,0.6,0.1,0.7,0.3
				c0.2,0.2,0.3,0.4,0.3,0.7c0,0.3-0.1,0.6-0.3,0.8c-0.2,0.2-0.4,0.3-0.7,0.3c-0.2,0-0.4,0-0.5-0.1c-0.2-0.1-0.3-0.2-0.4-0.4
				C49.7,31.2,49.7,31,49.7,30.8z M50.2,30.8c0,0.2,0,0.4,0.1,0.5c0.1,0.1,0.2,0.2,0.4,0.2s0.3-0.1,0.3-0.2c0.1-0.1,0.1-0.3,0.1-0.5
				c0-0.2,0-0.3-0.1-0.5c-0.1-0.1-0.2-0.2-0.3-0.2s-0.3,0.1-0.4,0.2C50.3,30.4,50.2,30.6,50.2,30.8z"/>
			<path class="st0" d="M53.8,31.8h-0.5v-1c0-0.2,0-0.4,0-0.4c0-0.1-0.1-0.1-0.1-0.1c-0.1,0-0.1-0.1-0.2-0.1c-0.1,0-0.2,0-0.2,0.1
				c-0.1,0.1-0.1,0.1-0.2,0.2c0,0.1,0,0.2,0,0.5v0.9H52v-2h0.5v0.3c0.2-0.2,0.4-0.3,0.7-0.3c0.1,0,0.2,0,0.3,0.1
				c0.1,0,0.2,0.1,0.2,0.2c0,0.1,0.1,0.1,0.1,0.2c0,0.1,0,0.2,0,0.4V31.8z"/>
		</g>
	</g>
	<g>
		<path class="st0" d="M30.1,13.9L32,18l7.5,0c0,0,0.4,0.1,0.4-0.3l0-8.7c0,0-0.1-4.2-2.3-6.5c0,0-2.2-3-6.8-2.4c0,0-1.2,0.2-1.2,1
			c0,0,0,0.8,1,1.1c0,0,4.2,1.2,4.2,5.8C34.9,8,35,12.7,30.1,13.9z"/>
		<path class="st0" d="M29,14l1.3,2.7c0,0-5.6,1.8-15.4,1.2c0,0-1.5-0.2-1.2-1.9c0,0,0.8-6.1,6.1-14.8c0,0,0.4-0.9,1.5-0.9l6-0.2
			c0,0,1.3,0,1.4,0.7c0,0,0.2,1.1-0.8,1.2c-3.3,0.4-5.4,3.5-5.2,6.6C22.9,10,24.3,13.8,29,14z"/>
		<circle class="st0" cx="28.9" cy="8" r="5.1"/>
	</g>
</g>
</svg>
