<?xml version="1.0" encoding="utf-8"?>
<!-- Generator: Adobe Illustrator 20.0.0, SVG Export Plug-In . SVG Version: 6.00 Build 0)  -->
<svg version="1.1" id="圖層_1" xmlns="http://www.w3.org/2000/svg" xmlns:xlink="http://www.w3.org/1999/xlink" x="0px" y="0px"
	 viewBox="0 0 133.7 80.5" style="enable-background:new 0 0 133.7 80.5;" xml:space="preserve">
<style type="text/css">
	.st0{fill:#231815;}
</style>
<g>
	<path class="st0" d="M9.3,44.5c1.1,6.8,2.1,13.7,3.2,20.6c0.1,0,0.1,0,0.2,0c0.3-1.5,0.6-2.9,1-4.4c1-5.1,2.1-10.2,3.1-15.3
		c0.2-0.8,0.4-1.1,1.2-1.1c1.2,0.1,2.5,0.1,3.7,0c0.7,0,1,0.2,1.2,1c1.2,6.2,2.5,12.4,3.8,18.5c0.1,0.5,0.2,1,0.6,1.5
		c1.1-7,2.1-13.9,3.2-20.9c2.5,0,5,0,7.6,0c-0.5,2.4-0.9,4.8-1.4,7.1c-1.8,9.2-3.6,18.5-5.4,27.7c-0.2,0.9-0.4,1.2-1.4,1.2
		c-1.8-0.1-3.5,0-5.4,0c-1.5-6.7-3-13.5-4.5-20.2c-0.1,0-0.1,0-0.2,0c-1.5,6.7-3.1,13.4-4.6,20.2c-2.2,0-4.3,0-6.5,0
		C6.3,68.5,3.9,56.6,1.5,44.5C4.1,44.5,6.7,44.5,9.3,44.5z"/>
	<path class="st0" d="M68.2,80.4c0-12,0-23.9,0-35.9c4.1,0,8.1-0.2,12.1,0.1c4.1,0.3,7.3,3.4,8,7.8c1.1,6.9,1.2,13.8-0.1,20.6
		c-0.9,4.6-4.5,7.4-9.2,7.5c-3.4,0.1-6.9,0-10.3,0C68.5,80.5,68.4,80.4,68.2,80.4z M75.5,50.9c0,7.8,0,15.4,0,23c0.8,0,1.5,0,2.2,0
		c2.2,0,3.2-0.8,3.5-2.9c0.8-5.6,0.7-11.2,0.1-16.8c-0.3-2.6-1.3-3.3-4-3.3C76.7,50.9,76.1,50.9,75.5,50.9z"/>
	<path class="st0" d="M84.8,27.7c-0.2,0.2-0.4,0.4-0.7,0.6c-2.7,2.6-5.1,2.9-8.3,1c-0.3-0.2-0.8-0.5-0.8-0.6
		c0.2-1.4-1.5-2.4-0.6-3.9c0.3-0.5,0.4-1,0.7-1.6c-0.4-0.2-0.7-0.4-1.3-0.7c1.5-0.3,1.7-1.2,1.4-2.3c-0.1-0.3-0.4-0.5-0.6-0.7
		c-0.2,0.2-0.6,0.4-0.6,0.6c-0.2,1.2-0.4,2.4-0.4,3.6c0.1,3.2,0.3,6.3,0.4,9.5c0,0.5,0,1-0.1,1.6c-1.6-0.5-2.6-1.4-3.4-2.7
		c-0.7-1.2-1.8-2.1-2.7-3.2c-0.6,0.8-1.1,1.5-1.6,2.1c-0.6,0.7-1.2,0.7-1.9,0c-1.5-1.4-1.5-2.9,0-4.4c0.8-0.7,1.5-2.8,1.4-4.5
		c-0.6,0.7-0.9,1.1-1.3,1.5c-0.9-1.3,0.2-3.4,2-3.8c1.9-0.4,2.6,0.3,2.3,2.2c-0.1,0.5-0.1,1-0.2,1.8c0.9-0.8,1.6-1.4,2.3-2
		c0.2-0.1,0.3-0.4,0.3-0.6c0-1.6,0-3.1,0-4.7c-0.5,0.5-1.1,1-1.7,1.5c-1.8,1.6-4.4,1.1-5.6-1c-0.6-1-1.1-2.1-1.6-3.2
		c0.3,0,0.6,0,0.9,0.2c1.3,0.5,2.5,0.3,3.7-0.4c1.4-0.9,2.9-1.7,4.3-2.7c0.3-0.2,0.5-0.5,0.5-0.8c0.2-2.6,0.6-5.2-1.2-7.5
		c-0.2-0.3-0.1-0.9-0.1-1.3c0.4,0.1,0.8,0.1,1.1,0.3c0.6,0.3,1.1,0.7,1.7,0.9c1.6,0.5,2.1,1.7,2,3.1c0,0.9,0.3,1.2,1.2,1.4
		c0-0.3,0.1-0.6,0.1-0.9c1.1,0.1,2.2,0.1,2.7,1.1c0.7,1.1,0.9,2.4,0.2,3.7c-0.2,0.3-0.6,0.6-1,0.7c-3.9,1-4,1.7-4.4,5.7
		c1.2,0.3,2.9-0.5,3.5,1.5c0.3-0.4,0.5-0.6,0.5-0.8c0.9-3.5,1.9-7.1,2.8-10.7C81,6.1,81,4.8,81.1,3.5c0.1-1.5,0.7-1.8,2.1-1.2
		c2.6,1.2,3.7,3.4,3,6.2c-0.2,0.9-0.6,1.8-0.9,2.7s-0.7,1.7-1.1,2.9c1-0.7,1.7-1.1,2.4-1.6c0.7-0.5,1.4-1.1,2.1-1.3
		c0.6-0.2,1.6-0.2,2.1,0.1c0.4,0.2,0.6,1.1,0.6,1.8c0,0.8-0.6,1.1-1.4,1.4c-1.3,0.4-2.5,1-3.8,1.6c1,2.6,1,5.2,0.7,7.7
		c-0.1,0.4,0.3,0.9,0.6,1.2c3,1.9,6.3,3,9.7,4c0.9,0.3,1.8,0.7,2.7,1.2c0.3,0.2,0.5,0.8,0.5,1.1c-0.1,0.3-0.6,0.7-0.9,0.7
		c-1.9,0.3-3.8,0.6-5.7,0.7c-1.6,0.1-3.2-0.3-4.5-1.4C87.9,30,86.3,28.9,84.8,27.7z M84.1,22.4c0.2-1.4,1-2.9,0.2-4.6
		c-0.9,0.5-1.7,1.1-2.5,1.5c-1.1,0.6-2,0.2-2.1-1c-0.1-0.6,0.1-1.4,0.5-2c1.6-2.6,2.6-5.4,3.3-8.3c0.3-1.3-0.2-3.3-1.5-3.8
		c-1.3,5.7-2.5,11.5-3.8,17.1C80.3,21.7,82.1,22,84.1,22.4z M77.1,28.2c2.3-0.2,4.2-0.9,5.8-2.9c-1.8-0.5-3.3-0.8-4.9-1.2
		C77.7,25.4,77.4,26.7,77.1,28.2z M71,24.8c-0.1,0-0.2-0.1-0.4-0.1c-0.8,1.2-1.6,2.4-2.5,3.7c0.7,0.5,1.3,1,2,1.4
		c0.6,0.3,0.9,0,0.9-0.6C71,27.7,71,26.2,71,24.8z"/>
	<path class="st0" d="M3.4,12.3c0.8-2,3.6-1.7,4.3-3.9C5.7,8.7,4.1,9,2.5,9.2c0-0.2-0.1-0.3-0.1-0.5c1-1.4,2.3-2.7,4-3.1
		c2-0.6,4.1-0.9,6.2-1c1.7-0.1,3,1,4,2.1c0.6-0.4,1.2-0.8,1.6-1.2c0.4-0.3,0.6-0.8,0.9-1.2c0.3-0.3,0.6-0.6,0.8-1
		c0.3,0.3,0.7,0.6,1,1C21,4.4,21,4.7,21.2,5.1c0.9-0.7,1.9-1.1,2.5-1.9c0.6-0.7,1.3-0.9,2.1-0.7C28.3,3,29.3,6,27.6,7.9
		c-0.8,0.9-1.7,1.6-2.6,2.4c1.6,1.9-0.2,2.8-1.2,3.9c1.6-0.3,3-0.7,4.4-0.9c2.2-0.3,4.4,1.2,4.9,3.2c0.1,0.4-0.1,1.2-0.4,1.4
		c-1.5,0.9-3.1,1.7-4.8,2.5c-0.6,0.3-1.4,0.4-2.2,0.6c0.1,1.2,0.2,2.4,0.2,3.7c0,2.6,0.1,5.2-0.2,7.8c-0.1,1.1-0.9,2.3-1.6,3.2
		c-0.5,0.8-1.3,0.7-2.2,0.2c-1.7-1-3.5-1.8-5.3-2.8c-0.4-0.2-0.7-0.4-1-0.9c0.4,0,0.7,0,1.1,0c1.4-0.1,2.9-0.1,4.3-0.3
		c1.1-0.2,1.9-1,2-2.1c0.1-2.6,0-5.3,0-7.9c0-0.3-0.3-0.8-0.5-0.9c-1.4-0.5-2.8-1-4.2-1.4c-0.2-0.1-0.5,0.1-0.8,0.3
		c-0.3,0.3-0.6,0.6-1,0.9c-0.7,0.6-1.6,1.5-2.4,0.8c-0.5-0.5-0.3-1.8-0.3-2.8c0-0.2,0.6-0.4,0.9-0.6c1.6-1,3.3-1.9,4.8-3
		C20,15,20.1,14,20,13.4c-0.6-2.1-0.5-2.1,1.4-3.2c1.7-1,2.8-2.8,3.7-4.6C25,5.5,25,5.5,24.9,5.4c-0.5,0.3-0.9,0.5-1.4,0.8
		c-1.5,1-2.9,2.1-4.4,3.2c-1.3,1-2.4,2.1-3.3,3.6c-1.1,2-2.5,3.7-4.4,5c-0.3-0.3-0.5-0.6-1.1-1.3c-0.2,1-0.3,1.7-0.5,2.4
		c0.6,0.2,1.1,0.4,1.6,0.6c1.4,0.6,1.7,2,0.7,3.2c-0.6,0.8-1.1,1.7-1.7,2.6c1.8,0.3,3.1,0.1,4.2-1.2c-0.1,1-0.1,1.9-0.3,2.9
		c-0.1,0.3-0.5,0.6-0.8,0.7C13,28,12.4,28,11.9,28c-2.3,0-4.3,0.7-6,2.3c-0.7,0.6-1.5,1.3-2.6,0.7c-1.1-0.6-1.4-1.5-1.4-2.7
		c0.1-0.9,0.4-1.4,1.4-1.6c0.8-0.1,1.6-0.5,2.4-0.7c0-0.2,0-0.3,0-0.5c-0.5-0.2-1-0.4-1.3-0.7c-0.7-0.6-1.8-1.1-1.9-1.9
		c-0.1-0.5,0.9-1.4,1.6-1.9c0.6-0.5,1.4-0.7,2.1-1.1c0.3-0.1,0.5-0.3,0.7-0.7c-1,0.2-2.1,0.4-3.1,0.5c-0.3,0-0.7-0.1-0.8-0.4
		c-0.6-0.9-1.4-1.8-1.8-2.8C0.3,13.9,0,11.1,0,8.1c2.4,2.7,3.2,5.9,3.9,9.6c1.2-1.5,3.2-1.3,3.5-3.1C5.9,13.8,4.6,13,3.4,12.3z
		 M10.6,14.8c0.7-0.3,1.3-0.5,1.4-0.8c0.8-2,1.5-3.9,2-6c0.2-0.6-0.3-1.5-0.7-2c-0.2-0.3-1.2,0-1.7,0.2c-0.9,0.3-0.9,2.4-0.1,3.2
		c0.9,0.8,1,1.6,0.1,2.3C10.6,12.4,10.6,13.4,10.6,14.8z M22.1,17.2c1.1,0.7,2.1,1.3,3,1.8c0.1,0.1,0.4,0.1,0.5,0
		c1.3-0.9,2.5-1.8,3.7-2.7c0.2-0.2,0.3-0.8,0.1-1.1c-0.1-0.2-0.7-0.3-1-0.2C26.3,15.8,24.2,16.5,22.1,17.2z"/>
	<path class="st0" d="M37.8,8.5c1.9,1.9,4,3.5,3.5,6.9c1.9-1,3.5-2,5.2-2.7c1.5-0.6,2-1.7,2.1-3.2C48.6,8,49,6.6,49,5.1
		c0-1-0.3-2.1-0.4-3.1c0-0.5,0-1.3,0.3-1.5c0.4-0.2,1.3-0.2,1.6,0.1C52,2.4,53.9,4.1,53,6.9c-0.3,1,0.4,1.8,1.4,2.1
		c0.7,0.2,1.4,0.5,2,1c1,0.9,0.8,1.8-0.4,2.3c-1.3,0.6-2.7,1.2-4,1.8c-0.3,0.2-0.7,0.6-0.8,0.9c-0.2,1.2-0.3,2.4-0.5,3.4
		c1,0.6,2,1,2.9,1.7c1.6,1.2,1.7,2.6,0.4,4.1c-0.8,0.9-1.5,1.8-2.4,2.7c-0.8,0.7-1,1.6-0.8,2.4c1.4,0,2.8,0,4.2,0
		c1.8,0,2.9,1,3.5,2.6c0.4,1.1,0.1,1.8-1.1,2c-0.7,0.1-1.4,0-2-0.1c-4.1-0.7-8-0.7-11.8,1.1c-1.4,0.7-2.5,0.4-3.2-0.7
		c-0.8-1.3-0.6-2.9,0.6-3.8c1.2-0.9,2.6-1.6,4-2.5c-1-0.6-2-1.2-3-1.8c-1.3-0.8-1.6-1.8-0.6-2.8c1.5-1.4,3.1-2.8,4.9-3.7
		c1.4-0.8,1.9-1.7,1.5-3.4c-1.7,1.2-3.4,2.4-5.1,3.6c-1,0.7-4,0.8-4.9,0.1c-0.9-0.7-1.8-3.3-1.4-4.5c0.2-0.5,0.4-1.1,0.5-1.6
		C37.4,12.2,38.3,10.5,37.8,8.5z M47.8,24.4c-1.7,0.3-3.3,0.5-4.9,0.8c0.8,1.2,2.5,2,3.4,1.6C47.2,26.5,47.7,25.7,47.8,24.4z"/>
	<path class="st0" d="M66.2,73.9c0,2.3,0,4.3,0,6.5c-5.1,0-10.2,0-15.4,0c0-11.9,0-23.9,0-35.9c2.3,0,4.7,0,7.1,0
		c0,9.7,0,19.5,0,29.4C60.7,73.9,63.4,73.9,66.2,73.9z"/>
	<path class="st0" d="M133.7,34.2c-1.7,0-3-0.6-4.3-1.4c-1.6-1.1-3.3-2.1-4.9-3.2c-0.6-0.4-1.1-0.3-1.7,0.1
		c-2.6,1.8-5.5,2.7-8.7,2.1c-1-0.2-1.9-0.7-1.9-1.7c0-1.2,0.4-2.3,0.6-3.5c-0.4-0.1-0.9-0.1-1.5-0.2c0.3-1.3,1.2-1.7,2.2-1.9
		c1.2-0.1,1.9-0.8,2.3-1.9c0.2-0.6,0.6-1.1,1-2c-1,0.6-1.7,1-2.4,1.4c-0.4,0.2-1.2,0.5-1.4,0.3c-0.3-0.3-0.4-1-0.4-1.5
		c-0.1-1.1,0.4-1.6,1.4-2c1.9-0.7,3.6-1.6,5-3.5c-0.9,0.2-1.5,0.4-2.2,0.4c-1.1,0.1-2-0.3-2.6-1.2c-0.3-0.5-0.3-0.9,0.4-1.1
		c0.6-0.2,1.1-0.4,1.9-0.8c-0.9-1.8-1.8-3.5-2.8-5.2c1.2-0.1,2.3-0.1,3.1,0.9c0.7,0.9,1.1,1.9,1.6,3c0.5-0.3,1-0.6,1.5-0.9
		c-0.3-1.3-0.7-2.4-1-3.6c-2.7,0.7-3.1,0.7-4.6-0.4c0.7-0.3,1.4-0.4,2-0.8c1.8-1.2,3.5-2.5,5.2-3.8c0.3-0.2,0.3-0.8,0.6-1.6
		c1.3-0.7,3.6-0.1,4.4,1.6c0.4,0.7,0.3,1.3-0.6,1.5c-0.4,0.1-0.7,0.2-1.3,0.4c0.6,0.6,1.1,1,1.6,1.6c0.8,1,1,2,0.1,3
		c-0.5,0.5-0.7,1-0.2,1.8c0.4,0.6,0.1,1.2-0.5,1.7c-0.7,0.5-1.2,1.2-1.8,1.9c0.1,0.1,0.2,0.2,0.2,0.3c0.4,0,0.8-0.1,1.3-0.1
		c1.4-0.2,2.5,0.2,3.2,1.4c0.4,0.6,0.3,1.1-0.5,1.2c-0.5,0.1-1,0-1.5,0c-0.9,0-1.8,0-2.6,0.1c-2.1,0.2-3.4,1.4-3.7,3.6
		c1-0.5,1.9-1.1,2.8-1.6c1.1-0.6,2.2-0.5,3.2,0.3s1.1,1.7,0.8,2.8c-0.4,1.5-0.9,3.1-1.4,4.7C129.1,28.1,132.9,29.4,133.7,34.2z
		 M114.2,29.8c2.5,0.3,4.5-0.6,6.5-2.1c-0.6-0.2-0.9-0.3-1.3-0.5c-1.6-0.6-3-0.8-3.9,1.1C115.3,28.8,114.7,29.2,114.2,29.8z
		 M118.6,24.3c1.6,0.4,2.7,0.7,4,1.1c0.5-1.4,1.3-2.6,1.1-4.4C122,22.1,120.4,23.1,118.6,24.3z M124,4.3c-2.9,1.4-3.2,2.2-1.5,4.6
		C124.3,7.3,124.9,5.7,124,4.3z"/>
	<path class="st0" d="M40.1,80.4c0-12,0-23.9,0-35.9c2.4,0,4.7,0,7.1,0c0,12,0,23.9,0,35.9C44.8,80.4,42.5,80.4,40.1,80.4z"/>
	<path class="st0" d="M117.5,80.5c0-12.1,0-24,0-36c0.3,0,0.6-0.1,0.8-0.1c2.2,0,4.5,0,6.7,0c4,0.1,6.7,2.4,7.2,6.4
		c0.3,2,0.5,4.1,0.4,6.1c-0.1,5.7-0.1,11.4-0.5,17c-0.3,4.1-3.1,6.4-7.2,6.5C122.6,80.5,120.1,80.5,117.5,80.5z M120.6,47.2
		c0,10.2,0,20.3,0,30.4c1.8,0,3.5,0.1,5.2,0c1.6-0.1,2.6-1.2,3.1-2.6c0.3-0.7,0.5-1.5,0.5-2.3c0.1-5.8,0.2-11.6,0.2-17.4
		c0-1.6-0.2-3.2-0.5-4.7c-0.4-1.9-1.6-3.2-3.6-3.3C123.9,47.1,122.3,47.2,120.6,47.2z"/>
	<path class="st0" d="M108.2,80.4c-1.2,0-2.1,0-3.2,0c-0.7-3.2-1.3-6.5-2-9.8c-2.8,0-5.5,0-8.3,0c-0.6,3.2-1.3,6.4-1.9,9.7
		c-1.1,0-2.1,0-3.3,0c0.4-1.8,0.7-3.6,1.1-5.3c2.2-9.7,4.4-19.4,6.5-29.1c0.3-1.3,0.8-1.8,2-1.6c0.3,0.1,0.7,0,1.2,0
		C102.9,56.4,105.5,68.3,108.2,80.4z M98.9,50.4c-0.1,0-0.1,0-0.2,0c-1.1,5.8-2.3,11.5-3.4,17.3c2.5,0,4.7,0,7.1,0
		C101.2,61.9,100,56.2,98.9,50.4z"/>
	<path class="st0" d="M107.3,14.7c-2,1.3-2.9,4.2-6,3.2c-1.6-0.6-3-1.5-3.6-3.2c0.2-0.1,0.3-0.2,0.4-0.2c1.6,0.8,2.7,0,3.9-0.9
		c1.7-1.2,3.5-2.3,5.1-3.5c0.4-0.3,0.8-0.9,0.9-1.4c0.2-1.2,0.3-2.4,0.4-3.6c0.1-1.1-0.3-1.7-1.4-2c-0.5-0.1-0.8-0.7-1.2-1.1
		c0.5-0.3,1.1-0.7,1.6-0.7c2.4-0.1,4.3,1.2,3.7,3.9c-0.1,0.6,0,1.2,0,1.8c0,0.8,0.2,1.4,1.1,1.7c1.1,0.4,1.2,1,0.3,1.6
		c-2.5,1.6-2.2,4.1-2.5,6.6c0.7-0.7,1.3-1.3,2-2c0.1,0,0.2,0.1,0.3,0.1c-0.1,0.4-0.1,0.9-0.2,1.3s-0.4,0.8-0.7,1.1
		c-1.7,1.7-2.1,3.7-2,6c0.2,3.7,0.1,7.5,0.1,11.3c0,0.5-0.3,0.9-0.4,1.4c-0.4-0.2-1-0.3-1.3-0.6c-1.1-1.4-2.2-2.8-3.3-4.3
		c-0.6-0.8-1.1-1.7-1.6-2.5c-0.4-0.6-0.7-1.2-1.7-0.8c-0.3,0.1-0.9-0.2-1-0.5c-0.3-0.9-0.4-1.8-0.6-2.8c0-0.2,0.3-0.7,0.5-0.7
		c1.9-0.3,3-1.7,4.5-2.6c2-1.2,2.8-2.8,2.5-5C107.2,15.8,107.3,15.3,107.3,14.7z M106.5,30.6c0.1-0.1,0.3-0.1,0.4-0.2
		c0.4-2.3,0.1-4.6,0.2-7.1c-1.5,1.4-2.7,2.6-4.2,4C104.1,28.4,105.3,29.5,106.5,30.6z"/>
	<path class="st0" d="M113.3,80.4c-1,0-1.9,0-2.9,0c0-12,0-23.9,0-35.9c0.9,0,1.9,0,2.9,0C113.3,56.4,113.3,68.4,113.3,80.4z"/>
</g>
</svg>
