<?xml version="1.0" encoding="utf-8"?>
<!-- Generator: Adobe Illustrator 20.0.0, SVG Export Plug-In . SVG Version: 6.00 Build 0)  -->
<svg version="1.1" id="圖層_1" xmlns="http://www.w3.org/2000/svg" xmlns:xlink="http://www.w3.org/1999/xlink" x="0px" y="0px"
	 viewBox="0 0 682.8 109.7" style="enable-background:new 0 0 682.8 109.7;" xml:space="preserve">
<style type="text/css">
	.st0{fill:#FFFFFF;}
</style>
<g>
	<g>
		<path class="st0" d="M43.5,77.2V44.9H31.3v42.9h68.5v15.7H14.5V44.9H0V29.3h14.5V6.4h16.8v22.9h12.2V4.1h16.2v25.2h12V5.1h17.1
			v24.2h13.7v15.6H88.8v32.2H43.5z M59.7,44.9v17.4h12V44.9H59.7z"/>
		<path class="st0" d="M192.9,56.2c7.5,5.7,17.3,10.2,28,12.7c-3.6,3.2-8.5,9.6-10.8,13.8c-6-2-11.6-4.6-16.7-7.9v33.7h-17V68.8h8.7
			c-4.5-3.8-8.5-8-11.8-12.6h-10.8c-3.5,4.5-7.4,8.6-11.8,12.3h9.4v8.1c0,10.7-3.5,25.3-26.2,33.1c-2.1-3.9-7.5-10.2-11-13.2
			c18.1-5.4,20.5-14.1,20.5-20.6v-2c-5.6,3.8-11.7,6.8-18.1,9.1c-2.3-3.9-7.3-10-10.7-13.3c10.3-2.9,20.1-7.8,27.4-13.6h-14.9V6.9
			h81.8v49.3H192.9z M143.1,25.5h16.1v-5.7h-16.1V25.5z M143.1,43.2h16.1v-5.8h-16.1V43.2z M191.8,19.8h-16.2v5.7h16.2V19.8z
			 M191.8,43.2v-5.8h-16.2v5.8H191.8z"/>
		<path class="st0" d="M323.3,80.2c4.8,6.8,10.7,16.1,13.5,22.2l-16,7.1c-2.2-6.1-7.9-16.1-12.6-23.4l14.1-5.9h-89V65.8h14.3V54.3
			h-11.3V39.9h1.9c-1.7-3.1-6.1-10-8.9-13.2c9-5.9,18-15.5,22.9-25.5l14.1,4.7c-1.3,2.8-2.9,5.6-4.7,8.3H331v14.2h-80.1
			c-0.9,1-1.8,2-2.7,2.9h13.6v8.7h5.5v-8.7h13.4v8.7h6.1v-8.7h13.4v8.7h6.1v-8.7h14.8v8.7h10v14.4h-10v11.5h12.6v14.4H323.3z
			 M230.7,103.1c4-5.2,9.7-14.3,13.2-22.2l15.8,4.1c-3.3,8.3-8.9,18.2-13.1,24.5L230.7,103.1z M247.5,39.9v-8c-3,3-6,5.7-9.1,8
			H247.5z M261.8,65.8h5.5V54.3h-5.5V65.8z M278.1,84.5c1.5,6.9,2.8,16,2.9,21.5l-16,2.3c0-5.6-0.8-14.9-2-22.1L278.1,84.5z
			 M280.7,54.3v11.5h6.1V54.3H280.7z M300.8,83.5c2.7,6.7,5.4,15.5,6.2,21.2l-16.3,3.1c-0.6-5.6-2.9-14.7-5.2-21.8L300.8,83.5z
			 M300.2,54.3v11.5h6.1V54.3H300.2z"/>
		<path class="st0" d="M388.6,16.5v14.2h-11.7v10.9h2.5l2.7-0.4l9.3,3.3c-0.9,5.5-1.9,10.6-3.2,15.5c4-2.7,9.4-6.8,15.1-11.4v-6.5
			l-7.9,3.1c-1.2-4.5-4.1-11.9-6.6-17.5l10-3.6c1.5,2.9,3.1,6.4,4.5,9.6V20.8H390V7.2h27.6v67.1c0,6.8-1.1,10.4-5.2,12.5
			c-4.2,2.1-10,2.2-18.1,2.2c-0.3-3.8-1.7-9.5-3.3-13.2c3.9,0.2,8.9,0.2,10.3,0.2c1.6-0.1,2-0.6,2-2v-9.6c-3.2,2.9-6.5,5.8-9.6,8.4
			L388,60.3c-2.5,8.8-5.7,16.6-9.5,23.4c8.4,6.6,19.4,8.1,32.8,8.3c7.9,0,32.7,0,41.8-0.4c-2.2,3.5-4.7,10.3-5.5,14.5h-36.9
			c-17.1,0-30.5-2.2-40.6-10.6c-4.8,5.4-10.2,9.7-16.2,12.9c-1.6-3.8-6-10.6-8.7-13.4c5.7-2.8,10.7-6.6,15.1-11.4
			c-4.2-7.1-7.6-16.3-10.2-28.2h-2.7V41.6h14.4V30.6h-14.5V16.5H388.6z M363.2,55.4c1.4,6.2,3.2,11.5,5.5,15.7
			c2.3-4.7,4.2-9.9,5.7-15.7H363.2z M418.1,56.2c4.1-2.2,9.7-5.6,15.6-9.4v-5.5l-9.6,3.1c-0.9-4.5-3.2-11.9-5.1-17.5l10.6-3.1
			c1.3,3.5,2.9,7.7,4.1,11.4V20.9h-13.9V6.9h28.6v67c0,7-1.2,10.7-5.6,12.9c-4.3,2.1-10.4,2.2-19,2.2c-0.2-3.9-1.8-9.8-3.3-13.5
			c4.1,0.2,9.6,0.2,11.2,0.2c1.6-0.1,2.1-0.6,2.1-2V61.9c-3.5,2.6-6.9,5-10.1,7.3L418.1,56.2z"/>
		<path class="st0" d="M565,91.3v14.5h-99.5V91.3H565z M482.9,38.1h-15.8V11.3h39.2c-0.7-1.7-1.3-3.5-2-4.9L520,2
			c1.6,2.8,3.2,6.2,4.4,9.4h39.4v26.8h-16.6V25.5h-64.2V38.1z M482.6,46h65V88h-65V46z M544,29.4V42h-57.8V29.4H544z M498.2,61.4h33
			V58h-33V61.4z M498.2,76h33v-3.6h-33V76z"/>
		<path class="st0" d="M682.8,17.1v13.6H580.3V17.1h43.8c-1.6-3.7-3.7-7.8-5.8-11.2l16.4-3.9c3.2,4.6,6.6,10.4,8.4,15.1H682.8z
			 M593.9,72.1H670v36.4h-16.7v-3h-43.4v3.3h-16V72.1z M668.7,48.3h-73.4V35.7h73.4V48.3z M595.4,53.5h73.4v12.6h-73.4V53.5z
			 M609.9,85.5v6.8h43.4v-6.8H609.9z"/>
	</g>
	<g>
		<path class="st0" d="M365.5,11.7c-1.9,0-3.2,0.2-4.1,0.3c-1.3,2.2-2.1,4.1-2.6,5.2c0.4,0.2,0.9,0.3,1.3,0.3c1.4,0,4.2-0.2,5.6-0.2
			c1.4,0,4.2,0,5.6,0c1.4,0,4.2,0.1,5.6,0.1c0.7,0,1.3-0.2,1.8-0.5c-2.1-3.3-2.5-7.6-2.4-11c-0.5,0-1.1,0.1-2,0.2
			c1-0.5,1.6-0.8,2.1-0.8c0.2-3,0.7-5.3,0.7-5.3c-7.7,1.6-12.6,6.9-15.5,11.4C362.6,11.4,363.8,11.5,365.5,11.7z"/>
	</g>
</g>
</svg>
